<?xml version="1.0" encoding="utf-8" standalone="no"?>
<!DOCTYPE svg PUBLIC "-//W3C//DTD SVG 1.1//EN"
  "http://www.w3.org/Graphics/SVG/1.1/DTD/svg11.dtd">
<!-- Created with matplotlib (https://matplotlib.org/) -->
<svg height="331.2pt" version="1.1" viewBox="0 0 518.4 331.2" width="518.4pt" xmlns="http://www.w3.org/2000/svg" xmlns:xlink="http://www.w3.org/1999/xlink">
 <metadata>
  <rdf:RDF xmlns:cc="http://creativecommons.org/ns#" xmlns:dc="http://purl.org/dc/elements/1.1/" xmlns:rdf="http://www.w3.org/1999/02/22-rdf-syntax-ns#">
   <cc:Work>
    <dc:type rdf:resource="http://purl.org/dc/dcmitype/StillImage"/>
    <dc:date>2022-08-19T15:57:47.240996</dc:date>
    <dc:format>image/svg+xml</dc:format>
    <dc:creator>
     <cc:Agent>
      <dc:title>Matplotlib v3.3.4, https://matplotlib.org/</dc:title>
     </cc:Agent>
    </dc:creator>
   </cc:Work>
  </rdf:RDF>
 </metadata>
 <defs>
  <style type="text/css">*{stroke-linecap:butt;stroke-linejoin:round;}</style>
 </defs>
 <g id="figure_1">
  <g id="patch_1">
   <path d="M 0 331.2 
L 518.4 331.2 
L 518.4 0 
L 0 0 
z
" style="fill:#ffffff;"/>
  </g>
  <g id="axes_1">
   <g id="patch_2">
    <path d="M 64.8 294.768 
L 466.56 294.768 
L 466.56 39.744 
L 64.8 39.744 
z
" style="fill:#ffffff;"/>
   </g>
   <g id="matplotlib.axis_1">
    <g id="xtick_1">
     <g id="line2d_1">
      <defs>
       <path d="M 0 0 
L 0 3.5 
" id="m188041cf89" style="stroke:#000000;stroke-width:0.8;"/>
      </defs>
      <g>
       <use style="stroke:#000000;stroke-width:0.8;" x="111.139728" xlink:href="#m188041cf89" y="294.768"/>
      </g>
     </g>
     <g id="text_1">
      <!-- 400 -->
      <g transform="translate(99.687228 310.886125)scale(0.12 -0.12)">
       <defs>
        <path d="M 37.796875 64.3125 
L 12.890625 25.390625 
L 37.796875 25.390625 
z
M 35.203125 72.90625 
L 47.609375 72.90625 
L 47.609375 25.390625 
L 58.015625 25.390625 
L 58.015625 17.1875 
L 47.609375 17.1875 
L 47.609375 0 
L 37.796875 0 
L 37.796875 17.1875 
L 4.890625 17.1875 
L 4.890625 26.703125 
z
" id="DejaVuSans-52"/>
        <path d="M 31.78125 66.40625 
Q 24.171875 66.40625 20.328125 58.90625 
Q 16.5 51.421875 16.5 36.375 
Q 16.5 21.390625 20.328125 13.890625 
Q 24.171875 6.390625 31.78125 6.390625 
Q 39.453125 6.390625 43.28125 13.890625 
Q 47.125 21.390625 47.125 36.375 
Q 47.125 51.421875 43.28125 58.90625 
Q 39.453125 66.40625 31.78125 66.40625 
z
M 31.78125 74.21875 
Q 44.046875 74.21875 50.515625 64.515625 
Q 56.984375 54.828125 56.984375 36.375 
Q 56.984375 17.96875 50.515625 8.265625 
Q 44.046875 -1.421875 31.78125 -1.421875 
Q 19.53125 -1.421875 13.0625 8.265625 
Q 6.59375 17.96875 6.59375 36.375 
Q 6.59375 54.828125 13.0625 64.515625 
Q 19.53125 74.21875 31.78125 74.21875 
z
" id="DejaVuSans-48"/>
       </defs>
       <use xlink:href="#DejaVuSans-52"/>
       <use x="63.623047" xlink:href="#DejaVuSans-48"/>
       <use x="127.246094" xlink:href="#DejaVuSans-48"/>
      </g>
     </g>
    </g>
    <g id="xtick_2">
     <g id="line2d_2">
      <g>
       <use style="stroke:#000000;stroke-width:0.8;" x="167.37238" xlink:href="#m188041cf89" y="294.768"/>
      </g>
     </g>
     <g id="text_2">
      <!-- 600 -->
      <g transform="translate(155.91988 310.886125)scale(0.12 -0.12)">
       <defs>
        <path d="M 33.015625 40.375 
Q 26.375 40.375 22.484375 35.828125 
Q 18.609375 31.296875 18.609375 23.390625 
Q 18.609375 15.53125 22.484375 10.953125 
Q 26.375 6.390625 33.015625 6.390625 
Q 39.65625 6.390625 43.53125 10.953125 
Q 47.40625 15.53125 47.40625 23.390625 
Q 47.40625 31.296875 43.53125 35.828125 
Q 39.65625 40.375 33.015625 40.375 
z
M 52.59375 71.296875 
L 52.59375 62.3125 
Q 48.875 64.0625 45.09375 64.984375 
Q 41.3125 65.921875 37.59375 65.921875 
Q 27.828125 65.921875 22.671875 59.328125 
Q 17.53125 52.734375 16.796875 39.40625 
Q 19.671875 43.65625 24.015625 45.921875 
Q 28.375 48.1875 33.59375 48.1875 
Q 44.578125 48.1875 50.953125 41.515625 
Q 57.328125 34.859375 57.328125 23.390625 
Q 57.328125 12.15625 50.6875 5.359375 
Q 44.046875 -1.421875 33.015625 -1.421875 
Q 20.359375 -1.421875 13.671875 8.265625 
Q 6.984375 17.96875 6.984375 36.375 
Q 6.984375 53.65625 15.1875 63.9375 
Q 23.390625 74.21875 37.203125 74.21875 
Q 40.921875 74.21875 44.703125 73.484375 
Q 48.484375 72.75 52.59375 71.296875 
z
" id="DejaVuSans-54"/>
       </defs>
       <use xlink:href="#DejaVuSans-54"/>
       <use x="63.623047" xlink:href="#DejaVuSans-48"/>
       <use x="127.246094" xlink:href="#DejaVuSans-48"/>
      </g>
     </g>
    </g>
    <g id="xtick_3">
     <g id="line2d_3">
      <g>
       <use style="stroke:#000000;stroke-width:0.8;" x="223.605032" xlink:href="#m188041cf89" y="294.768"/>
      </g>
     </g>
     <g id="text_3">
      <!-- 800 -->
      <g transform="translate(212.152532 310.886125)scale(0.12 -0.12)">
       <defs>
        <path d="M 31.78125 34.625 
Q 24.75 34.625 20.71875 30.859375 
Q 16.703125 27.09375 16.703125 20.515625 
Q 16.703125 13.921875 20.71875 10.15625 
Q 24.75 6.390625 31.78125 6.390625 
Q 38.8125 6.390625 42.859375 10.171875 
Q 46.921875 13.96875 46.921875 20.515625 
Q 46.921875 27.09375 42.890625 30.859375 
Q 38.875 34.625 31.78125 34.625 
z
M 21.921875 38.8125 
Q 15.578125 40.375 12.03125 44.71875 
Q 8.5 49.078125 8.5 55.328125 
Q 8.5 64.0625 14.71875 69.140625 
Q 20.953125 74.21875 31.78125 74.21875 
Q 42.671875 74.21875 48.875 69.140625 
Q 55.078125 64.0625 55.078125 55.328125 
Q 55.078125 49.078125 51.53125 44.71875 
Q 48 40.375 41.703125 38.8125 
Q 48.828125 37.15625 52.796875 32.3125 
Q 56.78125 27.484375 56.78125 20.515625 
Q 56.78125 9.90625 50.3125 4.234375 
Q 43.84375 -1.421875 31.78125 -1.421875 
Q 19.734375 -1.421875 13.25 4.234375 
Q 6.78125 9.90625 6.78125 20.515625 
Q 6.78125 27.484375 10.78125 32.3125 
Q 14.796875 37.15625 21.921875 38.8125 
z
M 18.3125 54.390625 
Q 18.3125 48.734375 21.84375 45.5625 
Q 25.390625 42.390625 31.78125 42.390625 
Q 38.140625 42.390625 41.71875 45.5625 
Q 45.3125 48.734375 45.3125 54.390625 
Q 45.3125 60.0625 41.71875 63.234375 
Q 38.140625 66.40625 31.78125 66.40625 
Q 25.390625 66.40625 21.84375 63.234375 
Q 18.3125 60.0625 18.3125 54.390625 
z
" id="DejaVuSans-56"/>
       </defs>
       <use xlink:href="#DejaVuSans-56"/>
       <use x="63.623047" xlink:href="#DejaVuSans-48"/>
       <use x="127.246094" xlink:href="#DejaVuSans-48"/>
      </g>
     </g>
    </g>
    <g id="xtick_4">
     <g id="line2d_4">
      <g>
       <use style="stroke:#000000;stroke-width:0.8;" x="279.837684" xlink:href="#m188041cf89" y="294.768"/>
      </g>
     </g>
     <g id="text_4">
      <!-- 1000 -->
      <g transform="translate(264.567684 310.886125)scale(0.12 -0.12)">
       <defs>
        <path d="M 12.40625 8.296875 
L 28.515625 8.296875 
L 28.515625 63.921875 
L 10.984375 60.40625 
L 10.984375 69.390625 
L 28.421875 72.90625 
L 38.28125 72.90625 
L 38.28125 8.296875 
L 54.390625 8.296875 
L 54.390625 0 
L 12.40625 0 
z
" id="DejaVuSans-49"/>
       </defs>
       <use xlink:href="#DejaVuSans-49"/>
       <use x="63.623047" xlink:href="#DejaVuSans-48"/>
       <use x="127.246094" xlink:href="#DejaVuSans-48"/>
       <use x="190.869141" xlink:href="#DejaVuSans-48"/>
      </g>
     </g>
    </g>
    <g id="xtick_5">
     <g id="line2d_5">
      <g>
       <use style="stroke:#000000;stroke-width:0.8;" x="336.070335" xlink:href="#m188041cf89" y="294.768"/>
      </g>
     </g>
     <g id="text_5">
      <!-- 1200 -->
      <g transform="translate(320.800335 310.886125)scale(0.12 -0.12)">
       <defs>
        <path d="M 19.1875 8.296875 
L 53.609375 8.296875 
L 53.609375 0 
L 7.328125 0 
L 7.328125 8.296875 
Q 12.9375 14.109375 22.625 23.890625 
Q 32.328125 33.6875 34.8125 36.53125 
Q 39.546875 41.84375 41.421875 45.53125 
Q 43.3125 49.21875 43.3125 52.78125 
Q 43.3125 58.59375 39.234375 62.25 
Q 35.15625 65.921875 28.609375 65.921875 
Q 23.96875 65.921875 18.8125 64.3125 
Q 13.671875 62.703125 7.8125 59.421875 
L 7.8125 69.390625 
Q 13.765625 71.78125 18.9375 73 
Q 24.125 74.21875 28.421875 74.21875 
Q 39.75 74.21875 46.484375 68.546875 
Q 53.21875 62.890625 53.21875 53.421875 
Q 53.21875 48.921875 51.53125 44.890625 
Q 49.859375 40.875 45.40625 35.40625 
Q 44.1875 33.984375 37.640625 27.21875 
Q 31.109375 20.453125 19.1875 8.296875 
z
" id="DejaVuSans-50"/>
       </defs>
       <use xlink:href="#DejaVuSans-49"/>
       <use x="63.623047" xlink:href="#DejaVuSans-50"/>
       <use x="127.246094" xlink:href="#DejaVuSans-48"/>
       <use x="190.869141" xlink:href="#DejaVuSans-48"/>
      </g>
     </g>
    </g>
    <g id="xtick_6">
     <g id="line2d_6">
      <g>
       <use style="stroke:#000000;stroke-width:0.8;" x="392.302987" xlink:href="#m188041cf89" y="294.768"/>
      </g>
     </g>
     <g id="text_6">
      <!-- 1400 -->
      <g transform="translate(377.032987 310.886125)scale(0.12 -0.12)">
       <use xlink:href="#DejaVuSans-49"/>
       <use x="63.623047" xlink:href="#DejaVuSans-52"/>
       <use x="127.246094" xlink:href="#DejaVuSans-48"/>
       <use x="190.869141" xlink:href="#DejaVuSans-48"/>
      </g>
     </g>
    </g>
    <g id="xtick_7">
     <g id="line2d_7">
      <g>
       <use style="stroke:#000000;stroke-width:0.8;" x="448.535639" xlink:href="#m188041cf89" y="294.768"/>
      </g>
     </g>
     <g id="text_7">
      <!-- 1600 -->
      <g transform="translate(433.265639 310.886125)scale(0.12 -0.12)">
       <use xlink:href="#DejaVuSans-49"/>
       <use x="63.623047" xlink:href="#DejaVuSans-54"/>
       <use x="127.246094" xlink:href="#DejaVuSans-48"/>
       <use x="190.869141" xlink:href="#DejaVuSans-48"/>
      </g>
     </g>
    </g>
    <g id="text_8">
     <!-- Wavelengths [nm] -->
     <g transform="translate(201.564375 328.019563)scale(0.14 -0.14)">
      <defs>
       <path d="M 3.328125 72.90625 
L 13.28125 72.90625 
L 28.609375 11.28125 
L 43.890625 72.90625 
L 54.984375 72.90625 
L 70.3125 11.28125 
L 85.59375 72.90625 
L 95.609375 72.90625 
L 77.296875 0 
L 64.890625 0 
L 49.515625 63.28125 
L 33.984375 0 
L 21.578125 0 
z
" id="DejaVuSans-87"/>
       <path d="M 34.28125 27.484375 
Q 23.390625 27.484375 19.1875 25 
Q 14.984375 22.515625 14.984375 16.5 
Q 14.984375 11.71875 18.140625 8.90625 
Q 21.296875 6.109375 26.703125 6.109375 
Q 34.1875 6.109375 38.703125 11.40625 
Q 43.21875 16.703125 43.21875 25.484375 
L 43.21875 27.484375 
z
M 52.203125 31.203125 
L 52.203125 0 
L 43.21875 0 
L 43.21875 8.296875 
Q 40.140625 3.328125 35.546875 0.953125 
Q 30.953125 -1.421875 24.3125 -1.421875 
Q 15.921875 -1.421875 10.953125 3.296875 
Q 6 8.015625 6 15.921875 
Q 6 25.140625 12.171875 29.828125 
Q 18.359375 34.515625 30.609375 34.515625 
L 43.21875 34.515625 
L 43.21875 35.40625 
Q 43.21875 41.609375 39.140625 45 
Q 35.0625 48.390625 27.6875 48.390625 
Q 23 48.390625 18.546875 47.265625 
Q 14.109375 46.140625 10.015625 43.890625 
L 10.015625 52.203125 
Q 14.9375 54.109375 19.578125 55.046875 
Q 24.21875 56 28.609375 56 
Q 40.484375 56 46.34375 49.84375 
Q 52.203125 43.703125 52.203125 31.203125 
z
" id="DejaVuSans-97"/>
       <path d="M 2.984375 54.6875 
L 12.5 54.6875 
L 29.59375 8.796875 
L 46.6875 54.6875 
L 56.203125 54.6875 
L 35.6875 0 
L 23.484375 0 
z
" id="DejaVuSans-118"/>
       <path d="M 56.203125 29.59375 
L 56.203125 25.203125 
L 14.890625 25.203125 
Q 15.484375 15.921875 20.484375 11.0625 
Q 25.484375 6.203125 34.421875 6.203125 
Q 39.59375 6.203125 44.453125 7.46875 
Q 49.3125 8.734375 54.109375 11.28125 
L 54.109375 2.78125 
Q 49.265625 0.734375 44.1875 -0.34375 
Q 39.109375 -1.421875 33.890625 -1.421875 
Q 20.796875 -1.421875 13.15625 6.1875 
Q 5.515625 13.8125 5.515625 26.8125 
Q 5.515625 40.234375 12.765625 48.109375 
Q 20.015625 56 32.328125 56 
Q 43.359375 56 49.78125 48.890625 
Q 56.203125 41.796875 56.203125 29.59375 
z
M 47.21875 32.234375 
Q 47.125 39.59375 43.09375 43.984375 
Q 39.0625 48.390625 32.421875 48.390625 
Q 24.90625 48.390625 20.390625 44.140625 
Q 15.875 39.890625 15.1875 32.171875 
z
" id="DejaVuSans-101"/>
       <path d="M 9.421875 75.984375 
L 18.40625 75.984375 
L 18.40625 0 
L 9.421875 0 
z
" id="DejaVuSans-108"/>
       <path d="M 54.890625 33.015625 
L 54.890625 0 
L 45.90625 0 
L 45.90625 32.71875 
Q 45.90625 40.484375 42.875 44.328125 
Q 39.84375 48.1875 33.796875 48.1875 
Q 26.515625 48.1875 22.3125 43.546875 
Q 18.109375 38.921875 18.109375 30.90625 
L 18.109375 0 
L 9.078125 0 
L 9.078125 54.6875 
L 18.109375 54.6875 
L 18.109375 46.1875 
Q 21.34375 51.125 25.703125 53.5625 
Q 30.078125 56 35.796875 56 
Q 45.21875 56 50.046875 50.171875 
Q 54.890625 44.34375 54.890625 33.015625 
z
" id="DejaVuSans-110"/>
       <path d="M 45.40625 27.984375 
Q 45.40625 37.75 41.375 43.109375 
Q 37.359375 48.484375 30.078125 48.484375 
Q 22.859375 48.484375 18.828125 43.109375 
Q 14.796875 37.75 14.796875 27.984375 
Q 14.796875 18.265625 18.828125 12.890625 
Q 22.859375 7.515625 30.078125 7.515625 
Q 37.359375 7.515625 41.375 12.890625 
Q 45.40625 18.265625 45.40625 27.984375 
z
M 54.390625 6.78125 
Q 54.390625 -7.171875 48.1875 -13.984375 
Q 42 -20.796875 29.203125 -20.796875 
Q 24.46875 -20.796875 20.265625 -20.09375 
Q 16.0625 -19.390625 12.109375 -17.921875 
L 12.109375 -9.1875 
Q 16.0625 -11.328125 19.921875 -12.34375 
Q 23.78125 -13.375 27.78125 -13.375 
Q 36.625 -13.375 41.015625 -8.765625 
Q 45.40625 -4.15625 45.40625 5.171875 
L 45.40625 9.625 
Q 42.625 4.78125 38.28125 2.390625 
Q 33.9375 0 27.875 0 
Q 17.828125 0 11.671875 7.65625 
Q 5.515625 15.328125 5.515625 27.984375 
Q 5.515625 40.671875 11.671875 48.328125 
Q 17.828125 56 27.875 56 
Q 33.9375 56 38.28125 53.609375 
Q 42.625 51.21875 45.40625 46.390625 
L 45.40625 54.6875 
L 54.390625 54.6875 
z
" id="DejaVuSans-103"/>
       <path d="M 18.3125 70.21875 
L 18.3125 54.6875 
L 36.8125 54.6875 
L 36.8125 47.703125 
L 18.3125 47.703125 
L 18.3125 18.015625 
Q 18.3125 11.328125 20.140625 9.421875 
Q 21.96875 7.515625 27.59375 7.515625 
L 36.8125 7.515625 
L 36.8125 0 
L 27.59375 0 
Q 17.1875 0 13.234375 3.875 
Q 9.28125 7.765625 9.28125 18.015625 
L 9.28125 47.703125 
L 2.6875 47.703125 
L 2.6875 54.6875 
L 9.28125 54.6875 
L 9.28125 70.21875 
z
" id="DejaVuSans-116"/>
       <path d="M 54.890625 33.015625 
L 54.890625 0 
L 45.90625 0 
L 45.90625 32.71875 
Q 45.90625 40.484375 42.875 44.328125 
Q 39.84375 48.1875 33.796875 48.1875 
Q 26.515625 48.1875 22.3125 43.546875 
Q 18.109375 38.921875 18.109375 30.90625 
L 18.109375 0 
L 9.078125 0 
L 9.078125 75.984375 
L 18.109375 75.984375 
L 18.109375 46.1875 
Q 21.34375 51.125 25.703125 53.5625 
Q 30.078125 56 35.796875 56 
Q 45.21875 56 50.046875 50.171875 
Q 54.890625 44.34375 54.890625 33.015625 
z
" id="DejaVuSans-104"/>
       <path d="M 44.28125 53.078125 
L 44.28125 44.578125 
Q 40.484375 46.53125 36.375 47.5 
Q 32.28125 48.484375 27.875 48.484375 
Q 21.1875 48.484375 17.84375 46.4375 
Q 14.5 44.390625 14.5 40.28125 
Q 14.5 37.15625 16.890625 35.375 
Q 19.28125 33.59375 26.515625 31.984375 
L 29.59375 31.296875 
Q 39.15625 29.25 43.1875 25.515625 
Q 47.21875 21.78125 47.21875 15.09375 
Q 47.21875 7.46875 41.1875 3.015625 
Q 35.15625 -1.421875 24.609375 -1.421875 
Q 20.21875 -1.421875 15.453125 -0.5625 
Q 10.6875 0.296875 5.421875 2 
L 5.421875 11.28125 
Q 10.40625 8.6875 15.234375 7.390625 
Q 20.0625 6.109375 24.8125 6.109375 
Q 31.15625 6.109375 34.5625 8.28125 
Q 37.984375 10.453125 37.984375 14.40625 
Q 37.984375 18.0625 35.515625 20.015625 
Q 33.0625 21.96875 24.703125 23.78125 
L 21.578125 24.515625 
Q 13.234375 26.265625 9.515625 29.90625 
Q 5.8125 33.546875 5.8125 39.890625 
Q 5.8125 47.609375 11.28125 51.796875 
Q 16.75 56 26.8125 56 
Q 31.78125 56 36.171875 55.265625 
Q 40.578125 54.546875 44.28125 53.078125 
z
" id="DejaVuSans-115"/>
       <path id="DejaVuSans-32"/>
       <path d="M 8.59375 75.984375 
L 29.296875 75.984375 
L 29.296875 69 
L 17.578125 69 
L 17.578125 -6.203125 
L 29.296875 -6.203125 
L 29.296875 -13.1875 
L 8.59375 -13.1875 
z
" id="DejaVuSans-91"/>
       <path d="M 52 44.1875 
Q 55.375 50.25 60.0625 53.125 
Q 64.75 56 71.09375 56 
Q 79.640625 56 84.28125 50.015625 
Q 88.921875 44.046875 88.921875 33.015625 
L 88.921875 0 
L 79.890625 0 
L 79.890625 32.71875 
Q 79.890625 40.578125 77.09375 44.375 
Q 74.3125 48.1875 68.609375 48.1875 
Q 61.625 48.1875 57.5625 43.546875 
Q 53.515625 38.921875 53.515625 30.90625 
L 53.515625 0 
L 44.484375 0 
L 44.484375 32.71875 
Q 44.484375 40.625 41.703125 44.40625 
Q 38.921875 48.1875 33.109375 48.1875 
Q 26.21875 48.1875 22.15625 43.53125 
Q 18.109375 38.875 18.109375 30.90625 
L 18.109375 0 
L 9.078125 0 
L 9.078125 54.6875 
L 18.109375 54.6875 
L 18.109375 46.1875 
Q 21.1875 51.21875 25.484375 53.609375 
Q 29.78125 56 35.6875 56 
Q 41.65625 56 45.828125 52.96875 
Q 50 49.953125 52 44.1875 
z
" id="DejaVuSans-109"/>
       <path d="M 30.421875 75.984375 
L 30.421875 -13.1875 
L 9.71875 -13.1875 
L 9.71875 -6.203125 
L 21.390625 -6.203125 
L 21.390625 69 
L 9.71875 69 
L 9.71875 75.984375 
z
" id="DejaVuSans-93"/>
      </defs>
      <use xlink:href="#DejaVuSans-87"/>
      <use x="92.501953" xlink:href="#DejaVuSans-97"/>
      <use x="153.78125" xlink:href="#DejaVuSans-118"/>
      <use x="212.960938" xlink:href="#DejaVuSans-101"/>
      <use x="274.484375" xlink:href="#DejaVuSans-108"/>
      <use x="302.267578" xlink:href="#DejaVuSans-101"/>
      <use x="363.791016" xlink:href="#DejaVuSans-110"/>
      <use x="427.169922" xlink:href="#DejaVuSans-103"/>
      <use x="490.646484" xlink:href="#DejaVuSans-116"/>
      <use x="529.855469" xlink:href="#DejaVuSans-104"/>
      <use x="593.234375" xlink:href="#DejaVuSans-115"/>
      <use x="645.333984" xlink:href="#DejaVuSans-32"/>
      <use x="677.121094" xlink:href="#DejaVuSans-91"/>
      <use x="716.134766" xlink:href="#DejaVuSans-110"/>
      <use x="779.513672" xlink:href="#DejaVuSans-109"/>
      <use x="876.925781" xlink:href="#DejaVuSans-93"/>
     </g>
    </g>
   </g>
   <g id="matplotlib.axis_2">
    <g id="ytick_1">
     <g id="line2d_8">
      <defs>
       <path d="M 0 0 
L -3.5 0 
" id="m7c14a66bdb" style="stroke:#000000;stroke-width:0.8;"/>
      </defs>
      <g>
       <use style="stroke:#000000;stroke-width:0.8;" x="64.8" xlink:href="#m7c14a66bdb" y="294.768"/>
      </g>
     </g>
     <g id="text_9">
      <!-- 0 -->
      <g transform="translate(50.165 299.327063)scale(0.12 -0.12)">
       <use xlink:href="#DejaVuSans-48"/>
      </g>
     </g>
    </g>
    <g id="ytick_2">
     <g id="line2d_9">
      <g>
       <use style="stroke:#000000;stroke-width:0.8;" x="64.8" xlink:href="#m7c14a66bdb" y="262.785939"/>
      </g>
     </g>
     <g id="text_10">
      <!-- 5 -->
      <g transform="translate(50.165 267.345002)scale(0.12 -0.12)">
       <defs>
        <path d="M 10.796875 72.90625 
L 49.515625 72.90625 
L 49.515625 64.59375 
L 19.828125 64.59375 
L 19.828125 46.734375 
Q 21.96875 47.46875 24.109375 47.828125 
Q 26.265625 48.1875 28.421875 48.1875 
Q 40.625 48.1875 47.75 41.5 
Q 54.890625 34.8125 54.890625 23.390625 
Q 54.890625 11.625 47.5625 5.09375 
Q 40.234375 -1.421875 26.90625 -1.421875 
Q 22.3125 -1.421875 17.546875 -0.640625 
Q 12.796875 0.140625 7.71875 1.703125 
L 7.71875 11.625 
Q 12.109375 9.234375 16.796875 8.0625 
Q 21.484375 6.890625 26.703125 6.890625 
Q 35.15625 6.890625 40.078125 11.328125 
Q 45.015625 15.765625 45.015625 23.390625 
Q 45.015625 31 40.078125 35.4375 
Q 35.15625 39.890625 26.703125 39.890625 
Q 22.75 39.890625 18.8125 39.015625 
Q 14.890625 38.140625 10.796875 36.28125 
z
" id="DejaVuSans-53"/>
       </defs>
       <use xlink:href="#DejaVuSans-53"/>
      </g>
     </g>
    </g>
    <g id="ytick_3">
     <g id="line2d_10">
      <g>
       <use style="stroke:#000000;stroke-width:0.8;" x="64.8" xlink:href="#m7c14a66bdb" y="230.803879"/>
      </g>
     </g>
     <g id="text_11">
      <!-- 10 -->
      <g transform="translate(42.53 235.362941)scale(0.12 -0.12)">
       <use xlink:href="#DejaVuSans-49"/>
       <use x="63.623047" xlink:href="#DejaVuSans-48"/>
      </g>
     </g>
    </g>
    <g id="ytick_4">
     <g id="line2d_11">
      <g>
       <use style="stroke:#000000;stroke-width:0.8;" x="64.8" xlink:href="#m7c14a66bdb" y="198.821818"/>
      </g>
     </g>
     <g id="text_12">
      <!-- 15 -->
      <g transform="translate(42.53 203.380881)scale(0.12 -0.12)">
       <use xlink:href="#DejaVuSans-49"/>
       <use x="63.623047" xlink:href="#DejaVuSans-53"/>
      </g>
     </g>
    </g>
    <g id="ytick_5">
     <g id="line2d_12">
      <g>
       <use style="stroke:#000000;stroke-width:0.8;" x="64.8" xlink:href="#m7c14a66bdb" y="166.839758"/>
      </g>
     </g>
     <g id="text_13">
      <!-- 20 -->
      <g transform="translate(42.53 171.39882)scale(0.12 -0.12)">
       <use xlink:href="#DejaVuSans-50"/>
       <use x="63.623047" xlink:href="#DejaVuSans-48"/>
      </g>
     </g>
    </g>
    <g id="ytick_6">
     <g id="line2d_13">
      <g>
       <use style="stroke:#000000;stroke-width:0.8;" x="64.8" xlink:href="#m7c14a66bdb" y="134.857697"/>
      </g>
     </g>
     <g id="text_14">
      <!-- 25 -->
      <g transform="translate(42.53 139.41676)scale(0.12 -0.12)">
       <use xlink:href="#DejaVuSans-50"/>
       <use x="63.623047" xlink:href="#DejaVuSans-53"/>
      </g>
     </g>
    </g>
    <g id="ytick_7">
     <g id="line2d_14">
      <g>
       <use style="stroke:#000000;stroke-width:0.8;" x="64.8" xlink:href="#m7c14a66bdb" y="102.875636"/>
      </g>
     </g>
     <g id="text_15">
      <!-- 30 -->
      <g transform="translate(42.53 107.434699)scale(0.12 -0.12)">
       <defs>
        <path d="M 40.578125 39.3125 
Q 47.65625 37.796875 51.625 33 
Q 55.609375 28.21875 55.609375 21.1875 
Q 55.609375 10.40625 48.1875 4.484375 
Q 40.765625 -1.421875 27.09375 -1.421875 
Q 22.515625 -1.421875 17.65625 -0.515625 
Q 12.796875 0.390625 7.625 2.203125 
L 7.625 11.71875 
Q 11.71875 9.328125 16.59375 8.109375 
Q 21.484375 6.890625 26.8125 6.890625 
Q 36.078125 6.890625 40.9375 10.546875 
Q 45.796875 14.203125 45.796875 21.1875 
Q 45.796875 27.640625 41.28125 31.265625 
Q 36.765625 34.90625 28.71875 34.90625 
L 20.21875 34.90625 
L 20.21875 43.015625 
L 29.109375 43.015625 
Q 36.375 43.015625 40.234375 45.921875 
Q 44.09375 48.828125 44.09375 54.296875 
Q 44.09375 59.90625 40.109375 62.90625 
Q 36.140625 65.921875 28.71875 65.921875 
Q 24.65625 65.921875 20.015625 65.03125 
Q 15.375 64.15625 9.8125 62.3125 
L 9.8125 71.09375 
Q 15.4375 72.65625 20.34375 73.4375 
Q 25.25 74.21875 29.59375 74.21875 
Q 40.828125 74.21875 47.359375 69.109375 
Q 53.90625 64.015625 53.90625 55.328125 
Q 53.90625 49.265625 50.4375 45.09375 
Q 46.96875 40.921875 40.578125 39.3125 
z
" id="DejaVuSans-51"/>
       </defs>
       <use xlink:href="#DejaVuSans-51"/>
       <use x="63.623047" xlink:href="#DejaVuSans-48"/>
      </g>
     </g>
    </g>
    <g id="ytick_8">
     <g id="line2d_15">
      <g>
       <use style="stroke:#000000;stroke-width:0.8;" x="64.8" xlink:href="#m7c14a66bdb" y="70.893576"/>
      </g>
     </g>
     <g id="text_16">
      <!-- 35 -->
      <g transform="translate(42.53 75.452638)scale(0.12 -0.12)">
       <use xlink:href="#DejaVuSans-51"/>
       <use x="63.623047" xlink:href="#DejaVuSans-53"/>
      </g>
     </g>
    </g>
    <g id="text_17">
     <!-- Absorption [%] -->
     <g transform="translate(35.618437 219.485844)rotate(-90)scale(0.14 -0.14)">
      <defs>
       <path d="M 34.1875 63.1875 
L 20.796875 26.90625 
L 47.609375 26.90625 
z
M 28.609375 72.90625 
L 39.796875 72.90625 
L 67.578125 0 
L 57.328125 0 
L 50.6875 18.703125 
L 17.828125 18.703125 
L 11.1875 0 
L 0.78125 0 
z
" id="DejaVuSans-65"/>
       <path d="M 48.6875 27.296875 
Q 48.6875 37.203125 44.609375 42.84375 
Q 40.53125 48.484375 33.40625 48.484375 
Q 26.265625 48.484375 22.1875 42.84375 
Q 18.109375 37.203125 18.109375 27.296875 
Q 18.109375 17.390625 22.1875 11.75 
Q 26.265625 6.109375 33.40625 6.109375 
Q 40.53125 6.109375 44.609375 11.75 
Q 48.6875 17.390625 48.6875 27.296875 
z
M 18.109375 46.390625 
Q 20.953125 51.265625 25.265625 53.625 
Q 29.59375 56 35.59375 56 
Q 45.5625 56 51.78125 48.09375 
Q 58.015625 40.1875 58.015625 27.296875 
Q 58.015625 14.40625 51.78125 6.484375 
Q 45.5625 -1.421875 35.59375 -1.421875 
Q 29.59375 -1.421875 25.265625 0.953125 
Q 20.953125 3.328125 18.109375 8.203125 
L 18.109375 0 
L 9.078125 0 
L 9.078125 75.984375 
L 18.109375 75.984375 
z
" id="DejaVuSans-98"/>
       <path d="M 30.609375 48.390625 
Q 23.390625 48.390625 19.1875 42.75 
Q 14.984375 37.109375 14.984375 27.296875 
Q 14.984375 17.484375 19.15625 11.84375 
Q 23.34375 6.203125 30.609375 6.203125 
Q 37.796875 6.203125 41.984375 11.859375 
Q 46.1875 17.53125 46.1875 27.296875 
Q 46.1875 37.015625 41.984375 42.703125 
Q 37.796875 48.390625 30.609375 48.390625 
z
M 30.609375 56 
Q 42.328125 56 49.015625 48.375 
Q 55.71875 40.765625 55.71875 27.296875 
Q 55.71875 13.875 49.015625 6.21875 
Q 42.328125 -1.421875 30.609375 -1.421875 
Q 18.84375 -1.421875 12.171875 6.21875 
Q 5.515625 13.875 5.515625 27.296875 
Q 5.515625 40.765625 12.171875 48.375 
Q 18.84375 56 30.609375 56 
z
" id="DejaVuSans-111"/>
       <path d="M 41.109375 46.296875 
Q 39.59375 47.171875 37.8125 47.578125 
Q 36.03125 48 33.890625 48 
Q 26.265625 48 22.1875 43.046875 
Q 18.109375 38.09375 18.109375 28.8125 
L 18.109375 0 
L 9.078125 0 
L 9.078125 54.6875 
L 18.109375 54.6875 
L 18.109375 46.1875 
Q 20.953125 51.171875 25.484375 53.578125 
Q 30.03125 56 36.53125 56 
Q 37.453125 56 38.578125 55.875 
Q 39.703125 55.765625 41.0625 55.515625 
z
" id="DejaVuSans-114"/>
       <path d="M 18.109375 8.203125 
L 18.109375 -20.796875 
L 9.078125 -20.796875 
L 9.078125 54.6875 
L 18.109375 54.6875 
L 18.109375 46.390625 
Q 20.953125 51.265625 25.265625 53.625 
Q 29.59375 56 35.59375 56 
Q 45.5625 56 51.78125 48.09375 
Q 58.015625 40.1875 58.015625 27.296875 
Q 58.015625 14.40625 51.78125 6.484375 
Q 45.5625 -1.421875 35.59375 -1.421875 
Q 29.59375 -1.421875 25.265625 0.953125 
Q 20.953125 3.328125 18.109375 8.203125 
z
M 48.6875 27.296875 
Q 48.6875 37.203125 44.609375 42.84375 
Q 40.53125 48.484375 33.40625 48.484375 
Q 26.265625 48.484375 22.1875 42.84375 
Q 18.109375 37.203125 18.109375 27.296875 
Q 18.109375 17.390625 22.1875 11.75 
Q 26.265625 6.109375 33.40625 6.109375 
Q 40.53125 6.109375 44.609375 11.75 
Q 48.6875 17.390625 48.6875 27.296875 
z
" id="DejaVuSans-112"/>
       <path d="M 9.421875 54.6875 
L 18.40625 54.6875 
L 18.40625 0 
L 9.421875 0 
z
M 9.421875 75.984375 
L 18.40625 75.984375 
L 18.40625 64.59375 
L 9.421875 64.59375 
z
" id="DejaVuSans-105"/>
       <path d="M 72.703125 32.078125 
Q 68.453125 32.078125 66.03125 28.46875 
Q 63.625 24.859375 63.625 18.40625 
Q 63.625 12.0625 66.03125 8.421875 
Q 68.453125 4.78125 72.703125 4.78125 
Q 76.859375 4.78125 79.265625 8.421875 
Q 81.6875 12.0625 81.6875 18.40625 
Q 81.6875 24.8125 79.265625 28.4375 
Q 76.859375 32.078125 72.703125 32.078125 
z
M 72.703125 38.28125 
Q 80.421875 38.28125 84.953125 32.90625 
Q 89.5 27.546875 89.5 18.40625 
Q 89.5 9.28125 84.9375 3.921875 
Q 80.375 -1.421875 72.703125 -1.421875 
Q 64.890625 -1.421875 60.34375 3.921875 
Q 55.8125 9.28125 55.8125 18.40625 
Q 55.8125 27.59375 60.375 32.9375 
Q 64.9375 38.28125 72.703125 38.28125 
z
M 22.3125 68.015625 
Q 18.109375 68.015625 15.6875 64.375 
Q 13.28125 60.75 13.28125 54.390625 
Q 13.28125 47.953125 15.671875 44.328125 
Q 18.0625 40.71875 22.3125 40.71875 
Q 26.5625 40.71875 28.96875 44.328125 
Q 31.390625 47.953125 31.390625 54.390625 
Q 31.390625 60.6875 28.953125 64.34375 
Q 26.515625 68.015625 22.3125 68.015625 
z
M 66.40625 74.21875 
L 74.21875 74.21875 
L 28.609375 -1.421875 
L 20.796875 -1.421875 
z
M 22.3125 74.21875 
Q 30.03125 74.21875 34.609375 68.875 
Q 39.203125 63.53125 39.203125 54.390625 
Q 39.203125 45.171875 34.640625 39.84375 
Q 30.078125 34.515625 22.3125 34.515625 
Q 14.546875 34.515625 10.03125 39.859375 
Q 5.515625 45.21875 5.515625 54.390625 
Q 5.515625 63.484375 10.046875 68.84375 
Q 14.59375 74.21875 22.3125 74.21875 
z
" id="DejaVuSans-37"/>
      </defs>
      <use xlink:href="#DejaVuSans-65"/>
      <use x="68.408203" xlink:href="#DejaVuSans-98"/>
      <use x="131.884766" xlink:href="#DejaVuSans-115"/>
      <use x="183.984375" xlink:href="#DejaVuSans-111"/>
      <use x="245.166016" xlink:href="#DejaVuSans-114"/>
      <use x="286.279297" xlink:href="#DejaVuSans-112"/>
      <use x="349.755859" xlink:href="#DejaVuSans-116"/>
      <use x="388.964844" xlink:href="#DejaVuSans-105"/>
      <use x="416.748047" xlink:href="#DejaVuSans-111"/>
      <use x="477.929688" xlink:href="#DejaVuSans-110"/>
      <use x="541.308594" xlink:href="#DejaVuSans-32"/>
      <use x="573.095703" xlink:href="#DejaVuSans-91"/>
      <use x="612.109375" xlink:href="#DejaVuSans-37"/>
      <use x="707.128906" xlink:href="#DejaVuSans-93"/>
     </g>
    </g>
   </g>
   <g id="line2d_16">
    <path clip-path="url(#p20ef585af3)" d="M 448.298182 285.55713 
L 392.246267 286.731831 
L 349.724125 287.414178 
L 315.899694 287.743478 
L 288.840149 287.791266 
L 266.691872 287.611577 
L 248.637119 287.247823 
L 233.664884 286.731046 
L 221.114629 286.084951 
L 210.325812 285.314377 
L 201.078256 284.438799 
L 192.931599 283.447701 
L 185.885841 282.372592 
L 179.720803 281.217701 
L 174.216305 279.971888 
L 169.152167 278.601125 
L 164.528389 277.115631 
L 160.34497 275.534282 
L 156.601912 273.886286 
L 153.079033 272.09232 
L 149.776334 270.154153 
L 146.693815 268.078645 
L 143.831476 265.878957 
L 141.189317 263.57563 
L 138.547158 260.967207 
L 136.125179 258.266303 
L 133.7032 255.224406 
L 131.281221 251.792708 
L 129.079422 248.289713 
L 126.877622 244.377826 
L 124.675823 240.014693 
L 122.474024 235.162026 
L 120.272225 229.792026 
L 117.850246 223.279484 
L 115.208087 215.49949 
L 111.685208 204.32893 
L 107.281609 190.386415 
L 105.29999 184.812166 
L 103.758731 181.059266 
L 102.437651 178.355577 
L 101.116572 176.184325 
L 100.015672 174.796741 
L 98.914772 173.779505 
L 97.813873 173.092663 
L 96.712973 172.666954 
L 94.731354 172.218378 
L 93.410274 171.794558 
L 92.529555 171.268599 
L 91.648835 170.413953 
L 90.988295 169.478693 
L 90.327756 168.223329 
L 89.667216 166.580764 
L 88.786496 163.661275 
L 87.905776 159.733003 
L 87.025057 154.588422 
L 86.144337 148.009108 
L 85.263617 139.782563 
L 84.162718 126.92896 
L 83.061818 111.151947 
L 83.061818 111.151947 
" style="fill:none;stroke:#cc4c02;stroke-linecap:square;stroke-width:1.5;"/>
   </g>
   <g id="line2d_17">
    <path clip-path="url(#p20ef585af3)" d="M 448.298182 285.978872 
L 381.615732 287.471828 
L 334.261528 288.324946 
L 298.504273 288.760639 
L 270.214751 288.889519 
L 248.196759 288.77571 
L 230.362185 288.467649 
L 215.83031 287.999184 
L 203.940595 287.401102 
L 194.032498 286.69057 
L 185.445481 285.856187 
L 178.179544 284.933058 
L 171.794326 283.901072 
L 166.289828 282.793335 
L 161.44587 281.602671 
L 157.042272 280.297298 
L 153.079033 278.894705 
L 149.556154 277.423682 
L 146.253455 275.810031 
L 143.170937 274.055874 
L 140.308598 272.169313 
L 137.666439 270.165866 
L 135.244459 268.069653 
L 132.82248 265.684109 
L 130.400501 262.963919 
L 128.198702 260.158451 
L 125.996903 256.995042 
L 123.795104 253.434319 
L 121.593304 249.442197 
L 119.391505 244.997772 
L 116.969526 239.593029 
L 114.107187 232.60561 
L 107.06143 215.035143 
L 105.29999 211.438028 
L 103.978911 209.179664 
L 102.657831 207.354779 
L 101.556932 206.176753 
L 100.456032 205.294667 
L 99.355132 204.66696 
L 97.813873 204.077466 
L 95.612074 203.261953 
L 94.731354 202.707685 
L 93.850634 201.876578 
L 92.969915 200.650447 
L 92.089195 198.892861 
L 91.208475 196.44512 
L 90.327756 193.121047 
L 89.447036 188.701002 
L 88.566316 182.92629 
L 87.685597 175.496795 
L 86.804877 166.077752 
L 85.924157 154.327087 
L 85.043437 139.962992 
L 83.942538 118.238199 
L 83.061818 98.354378 
L 83.061818 98.354378 
" style="fill:none;stroke:#ec7014;stroke-linecap:square;stroke-width:1.5;"/>
   </g>
   <g id="line2d_18">
    <path clip-path="url(#p20ef585af3)" d="M 448.298182 285.273034 
L 396.111917 286.444385 
L 354.556187 287.166007 
L 321.698168 287.528086 
L 294.638623 287.612641 
L 272.19637 287.461149 
L 254.141617 287.123033 
L 238.949202 286.621946 
L 226.178767 285.984158 
L 215.389951 285.231946 
L 205.922214 284.353332 
L 197.775557 283.379629 
L 190.50962 282.288449 
L 184.124402 281.105921 
L 178.399724 279.819501 
L 173.335586 278.458169 
L 168.711807 276.988807 
L 164.528389 275.432122 
L 160.56515 273.716541 
L 157.042272 271.95641 
L 153.739573 270.068355 
L 150.657054 268.063119 
L 147.574535 265.785051 
L 144.712196 263.387986 
L 142.070037 260.90045 
L 139.427878 258.115336 
L 136.785719 254.998548 
L 134.14356 251.516981 
L 131.501401 247.642428 
L 128.859242 243.357897 
L 125.996903 238.258851 
L 122.914384 232.295347 
L 117.630066 221.458343 
L 114.327367 214.957789 
L 112.125568 211.122169 
L 110.364128 208.508492 
L 108.822869 206.635892 
L 107.501789 205.376036 
L 106.18071 204.449557 
L 105.07981 203.928995 
L 103.978911 203.622063 
L 102.657831 203.497775 
L 101.116572 203.598781 
L 97.813873 203.928326 
L 96.712973 203.761797 
L 95.832254 203.401882 
L 94.951534 202.764737 
L 94.070814 201.770222 
L 93.190095 200.326663 
L 92.309375 198.328719 
L 91.428655 195.655162 
L 90.547935 192.167132 
L 89.667216 187.707907 
L 88.786496 182.106253 
L 87.905776 175.186909 
L 86.804877 164.452492 
L 85.703977 151.276638 
L 84.382898 132.66488 
L 83.061818 112.940434 
L 83.061818 112.940434 
" style="fill:none;stroke:#993404;stroke-linecap:square;stroke-width:1.5;"/>
   </g>
   <g id="line2d_19">
    <path clip-path="url(#p20ef585af3)" d="M 448.298182 281.464527 
L 398.044741 283.46407 
L 354.556187 284.982807 
L 318.798931 286.022304 
L 289.806562 286.656957 
L 265.590973 286.970863 
L 245.99496 287.008346 
L 229.921825 286.824215 
L 216.49085 286.453703 
L 205.261674 285.927508 
L 195.793938 285.269591 
L 187.647281 284.488709 
L 180.601523 283.5986 
L 174.436485 282.604866 
L 168.931987 281.498527 
L 164.088029 280.307654 
L 159.684431 279.003984 
L 155.721192 277.608667 
L 151.978133 276.05533 
L 148.675435 274.456241 
L 145.592916 272.734313 
L 142.510397 270.752294 
L 139.648058 268.641191 
L 137.005899 266.427126 
L 134.36374 263.925571 
L 131.721581 261.105301 
L 129.079422 257.939769 
L 126.437263 254.413857 
L 123.574924 250.196219 
L 120.272225 244.895672 
L 112.786107 232.659247 
L 110.804488 229.950493 
L 109.263229 228.18337 
L 107.942149 226.957972 
L 106.62107 226.03055 
L 105.52017 225.496404 
L 104.41927 225.178485 
L 103.318371 225.065167 
L 101.997291 225.165637 
L 100.456032 225.524895 
L 97.153333 226.413806 
L 96.052434 226.426459 
L 95.171714 226.193188 
L 94.511174 225.820705 
L 93.850634 225.230725 
L 93.190095 224.371068 
L 92.529555 223.178918 
L 91.869015 221.577659 
L 91.208475 219.472629 
L 90.547935 216.745475 
L 89.887396 213.246636 
L 89.226856 208.785452 
L 88.566316 203.117436 
L 87.905776 195.928577 
L 87.245237 186.817818 
L 86.584697 175.282035 
L 85.703977 155.071103 
L 84.823258 127.92122 
L 83.942538 92.905312 
L 83.061818 51.682318 
L 83.061818 51.682318 
" style="fill:none;stroke:#fb9a29;stroke-linecap:square;stroke-width:1.5;"/>
   </g>
   <g id="line2d_20">
    <path clip-path="url(#p20ef585af3)" d="M 448.298182 284.070207 
L 393.21268 285.576179 
L 349.724125 286.552398 
L 315.899694 287.100708 
L 288.840149 287.328215 
L 266.471692 287.297457 
L 248.416939 287.05515 
L 233.444704 286.637587 
L 220.894449 286.07084 
L 210.325812 285.379242 
L 201.078256 284.554025 
L 193.151779 283.627482 
L 186.106021 282.579959 
L 179.940983 281.439662 
L 174.436485 280.196862 
L 169.592527 278.883865 
L 165.188929 277.470796 
L 161.00551 275.892908 
L 157.262451 274.247374 
L 153.739573 272.458938 
L 150.436874 270.534648 
L 147.354355 268.488118 
L 144.271836 266.164524 
L 141.409497 263.726922 
L 138.547158 260.989958 
L 135.684819 257.928144 
L 132.82248 254.524888 
L 129.960141 250.780936 
L 126.657442 246.079433 
L 121.813484 238.727659 
L 117.850246 232.858549 
L 115.648446 229.950373 
L 113.887007 227.937828 
L 112.345748 226.471788 
L 110.804488 225.326614 
L 109.483409 224.623321 
L 108.162329 224.185292 
L 106.84125 224.007086 
L 105.52017 224.068315 
L 103.978911 224.392295 
L 101.997291 225.066564 
L 99.355132 225.954196 
L 98.254233 226.124433 
L 97.373513 226.089117 
L 96.492793 225.84093 
L 95.612074 225.313062 
L 94.951534 224.6858 
L 94.290994 223.815847 
L 93.630454 222.65569 
L 92.749735 220.558539 
L 91.869015 217.679316 
L 90.988295 213.807406 
L 90.107576 208.672778 
L 89.226856 201.931459 
L 88.346136 193.155317 
L 87.465417 181.840136 
L 86.584697 167.464144 
L 85.703977 149.660079 
L 84.603078 122.936548 
L 83.061818 83.776337 
L 83.061818 83.776337 
" style="fill:none;stroke:#ec7014;stroke-linecap:square;stroke-width:1.5;"/>
   </g>
   <g id="line2d_21">
    <path clip-path="url(#p20ef585af3)" d="M 448.298182 288.887667 
L 394.179092 289.540792 
L 350.690538 289.850344 
L 315.899694 289.882514 
L 287.873737 289.691154 
L 265.150613 289.316254 
L 246.875679 288.798596 
L 231.683265 288.151373 
L 219.133009 287.402934 
L 208.344193 286.541956 
L 199.096636 285.583465 
L 191.170159 284.543029 
L 184.344582 283.432779 
L 178.179544 282.208005 
L 172.675046 280.88577 
L 167.831088 279.495744 
L 163.427489 278.001499 
L 159.464251 276.424184 
L 155.941372 274.79581 
L 152.638673 273.034785 
L 149.556154 271.145093 
L 146.693815 269.136042 
L 144.051656 267.02341 
L 141.409497 264.61751 
L 138.987518 262.108575 
L 136.565539 259.257823 
L 134.36374 256.319258 
L 132.161941 252.995172 
L 130.180321 249.622306 
L 128.198702 245.833929 
L 126.217083 241.570501 
L 124.235463 236.765856 
L 122.253844 231.348538 
L 120.272225 225.244951 
L 118.290606 218.385486 
L 116.308986 210.715249 
L 114.107187 201.215932 
L 111.685208 189.650588 
L 108.382509 172.567478 
L 105.07981 155.681884 
L 103.318371 147.808805 
L 101.997291 142.880535 
L 100.896392 139.609731 
L 100.015672 137.627745 
L 99.355132 136.54281 
L 98.694593 135.81675 
L 98.034053 135.4555 
L 97.593693 135.416838 
L 97.153333 135.537202 
L 96.492793 136.006169 
L 95.832254 136.801245 
L 94.951534 138.314114 
L 93.850634 140.790632 
L 92.089195 145.48932 
L 90.547935 149.422908 
L 89.667216 151.165414 
L 89.006676 152.061351 
L 88.566316 152.407137 
L 88.125956 152.515445 
L 87.685597 152.354254 
L 87.245237 151.890976 
L 86.804877 151.092885 
L 86.144337 149.198038 
L 85.483797 146.378076 
L 84.823258 142.556111 
L 83.942538 135.858455 
L 83.061818 127.501567 
L 83.061818 127.501567 
" style="fill:none;stroke:#cc4c02;stroke-linecap:square;stroke-width:1.5;"/>
   </g>
   <g id="line2d_22">
    <path clip-path="url(#p20ef585af3)" d="M 448.298182 286.62667 
L 371.951609 288.387479 
L 318.798931 289.401607 
L 280.142438 289.928765 
L 250.398558 290.1184 
L 227.940206 290.04707 
L 210.545992 289.779592 
L 196.674657 289.351602 
L 185.665661 288.800335 
L 176.638285 288.137498 
L 169.152167 287.377603 
L 162.76695 286.515614 
L 157.262451 285.553482 
L 152.418493 284.478689 
L 148.235075 283.321293 
L 144.492016 282.049806 
L 141.189317 280.689867 
L 138.326978 279.283396 
L 135.684819 277.752223 
L 133.26284 276.108937 
L 130.840861 274.188 
L 128.639062 272.153154 
L 126.437263 269.79217 
L 124.455643 267.342519 
L 122.474024 264.541345 
L 120.492405 261.34949 
L 118.510785 257.739737 
L 116.308986 253.23962 
L 113.666827 247.26865 
L 108.602689 235.647132 
L 107.06143 232.709679 
L 105.74035 230.637428 
L 104.63945 229.269897 
L 103.538551 228.231508 
L 102.437651 227.488877 
L 101.116572 226.889003 
L 98.034053 225.650206 
L 97.153333 225.000189 
L 96.272613 224.061417 
L 95.391894 222.739361 
L 94.511174 220.932286 
L 93.630454 218.528375 
L 92.749735 215.401653 
L 91.869015 211.4068 
L 90.988295 206.372971 
L 90.107576 200.097001 
L 89.226856 192.336851 
L 88.346136 182.807236 
L 87.465417 171.181471 
L 86.364517 153.165578 
L 85.263617 130.700284 
L 84.162718 103.530521 
L 83.061818 72.370736 
L 83.061818 72.370736 
" style="fill:none;stroke:#fb9a29;stroke-linecap:square;stroke-width:1.5;"/>
   </g>
   <g id="line2d_23">
    <path clip-path="url(#p20ef585af3)" d="M 448.298182 287.787712 
L 398.044741 288.470424 
L 357.455424 288.807592 
L 324.597405 288.865043 
L 298.504273 288.702281 
L 276.379789 288.348001 
L 258.325035 287.842981 
L 243.132621 287.201039 
L 230.362185 286.444965 
L 219.353189 285.573549 
L 209.885453 284.603342 
L 201.738795 283.550729 
L 194.472858 282.389154 
L 188.08764 281.144641 
L 182.362962 279.802166 
L 177.298824 278.390139 
L 172.675046 276.872402 
L 168.491627 275.268512 
L 164.748569 273.607901 
L 161.22569 271.810936 
L 157.922991 269.880292 
L 154.840472 267.823458 
L 151.978133 265.653798 
L 149.335974 263.3915 
L 146.693815 260.839436 
L 144.271836 258.205922 
L 141.849857 255.248488 
L 139.427878 251.919866 
L 137.226079 248.527172 
L 135.024279 244.740289 
L 132.82248 240.513264 
L 130.620681 235.800134 
L 128.418882 230.559074 
L 126.217083 224.759192 
L 123.795104 217.723519 
L 121.152944 209.313353 
L 117.850246 197.993982 
L 113.006287 181.380799 
L 111.024668 175.411039 
L 109.483409 171.436414 
L 108.162329 168.622618 
L 107.06143 166.752965 
L 105.96053 165.342958 
L 105.07981 164.550228 
L 104.199091 164.047781 
L 103.318371 163.817784 
L 102.437651 163.832069 
L 101.556932 164.052311 
L 100.235852 164.66175 
L 97.153333 166.295005 
L 96.272613 166.49295 
L 95.391894 166.430389 
L 94.731354 166.165694 
L 94.070814 165.67858 
L 93.410274 164.938081 
L 92.749735 163.915015 
L 91.869015 162.065966 
L 90.988295 159.615711 
L 90.107576 156.530503 
L 89.006676 151.774827 
L 87.685597 144.867604 
L 85.263617 130.418867 
L 83.942538 123.370674 
L 83.061818 119.930623 
L 83.061818 119.930623 
" style="fill:none;stroke:#662506;stroke-linecap:square;stroke-width:1.5;"/>
   </g>
   <g id="line2d_24">
    <path clip-path="url(#p20ef585af3)" d="M 448.298182 281.494116 
L 409.641689 283.586984 
L 370.985196 285.459572 
L 332.328704 287.108759 
L 295.605036 288.451007 
L 262.288274 289.447425 
L 233.664884 290.087137 
L 210.105632 290.399142 
L 191.610519 290.432917 
L 177.078644 290.24782 
L 165.629288 289.888224 
L 156.601912 289.392534 
L 149.335974 288.783249 
L 143.391116 288.07611 
L 138.326978 287.25861 
L 134.14356 286.372518 
L 130.400501 285.35603 
L 127.097802 284.220692 
L 124.235463 282.99434 
L 121.813484 281.72564 
L 119.611685 280.335148 
L 117.630066 278.838379 
L 115.648446 277.04705 
L 113.887007 275.142916 
L 112.345748 273.17555 
L 110.804488 270.859514 
L 109.263229 268.111587 
L 107.942149 265.332179 
L 106.62107 262.072596 
L 105.29999 258.228414 
L 103.978911 253.672834 
L 102.657831 248.256281 
L 101.336752 241.812167 
L 100.015672 234.176292 
L 98.694593 225.232736 
L 97.153333 213.189366 
L 92.969915 178.862734 
L 92.089195 173.766967 
L 91.208475 170.040871 
L 90.547935 168.058108 
L 89.667216 166.100458 
L 88.786496 164.173221 
L 88.125956 162.104039 
L 87.465417 158.905932 
L 86.804877 153.970706 
L 86.144337 146.606714 
L 85.483797 136.009154 
L 84.823258 121.22913 
L 84.162718 101.175338 
L 83.502178 74.729954 
L 83.061818 53.142949 
L 83.061818 53.142949 
" style="fill:none;stroke:#000000;stroke-dasharray:5.55,2.4;stroke-dashoffset:0;stroke-width:1.5;"/>
   </g>
   <g id="line2d_25">
    <path clip-path="url(#p20ef585af3)" d="M 448.298182 286.828802 
L 397.078329 287.798972 
L 355.522599 288.372488 
L 321.698168 288.625944 
L 294.638623 288.62077 
L 271.75601 288.399995 
L 253.260897 288.007165 
L 237.848302 287.466526 
L 224.857687 286.796199 
L 213.848691 286.013382 
L 204.380955 285.124246 
L 196.234297 284.144371 
L 188.96836 283.04865 
L 182.583142 281.86075 
L 177.078644 280.619866 
L 172.014506 279.253755 
L 167.390728 277.771224 
L 163.207309 276.189637 
L 159.464251 274.536795 
L 155.941372 272.731378 
L 152.858853 270.912357 
L 149.996514 268.984687 
L 147.134175 266.78462 
L 144.492016 264.468141 
L 142.070037 262.061431 
L 139.648058 259.337815 
L 137.446259 256.542306 
L 135.244459 253.394377 
L 133.04266 249.83992 
L 131.061041 246.242259 
L 129.079422 242.214536 
L 127.097802 237.701482 
L 125.116183 232.64479 
L 123.134564 226.986278 
L 121.152944 220.673554 
L 118.951145 212.847731 
L 116.749346 204.162396 
L 114.327367 193.708688 
L 110.364128 175.412329 
L 107.501789 162.697872 
L 105.74035 155.909078 
L 104.41927 151.67134 
L 103.318371 148.843694 
L 102.437651 147.102622 
L 101.556932 145.856353 
L 100.896392 145.25492 
L 100.235852 144.938608 
L 99.575312 144.900303 
L 98.914772 145.126421 
L 98.254233 145.59676 
L 97.373513 146.556572 
L 96.272613 148.173902 
L 92.309375 154.536019 
L 91.648835 155.104545 
L 90.988295 155.36907 
L 90.547935 155.346178 
L 90.107576 155.143271 
L 89.667216 154.743509 
L 89.006676 153.740815 
L 88.346136 152.214549 
L 87.685597 150.132162 
L 86.804877 146.472904 
L 85.924157 141.862397 
L 84.603078 133.649509 
L 83.061818 124.08689 
L 83.061818 124.08689 
" style="fill:none;stroke:#993404;stroke-linecap:square;stroke-width:1.5;"/>
   </g>
   <g id="patch_3">
    <path d="M 64.8 294.768 
L 64.8 39.744 
" style="fill:none;stroke:#000000;stroke-linecap:square;stroke-linejoin:miter;stroke-width:0.8;"/>
   </g>
   <g id="patch_4">
    <path d="M 466.56 294.768 
L 466.56 39.744 
" style="fill:none;stroke:#000000;stroke-linecap:square;stroke-linejoin:miter;stroke-width:0.8;"/>
   </g>
   <g id="patch_5">
    <path d="M 64.8 294.768 
L 466.56 294.768 
" style="fill:none;stroke:#000000;stroke-linecap:square;stroke-linejoin:miter;stroke-width:0.8;"/>
   </g>
   <g id="patch_6">
    <path d="M 64.8 39.744 
L 466.56 39.744 
" style="fill:none;stroke:#000000;stroke-linecap:square;stroke-linejoin:miter;stroke-width:0.8;"/>
   </g>
   <g id="legend_1">
    <g id="patch_7">
     <path d="M 386.79 155.0265 
L 458.16 155.0265 
Q 460.56 155.0265 460.56 152.6265 
L 460.56 48.144 
Q 460.56 45.744 458.16 45.744 
L 386.79 45.744 
Q 384.39 45.744 384.39 48.144 
L 384.39 152.6265 
Q 384.39 155.0265 386.79 155.0265 
z
" style="fill:#ffffff;opacity:0.8;stroke:#cccccc;stroke-linejoin:miter;"/>
    </g>
    <g id="line2d_26">
     <path d="M 389.19 55.462125 
L 413.19 55.462125 
" style="fill:none;stroke:#000000;stroke-dasharray:5.55,2.4;stroke-dashoffset:0;stroke-width:1.5;"/>
    </g>
    <g id="line2d_27"/>
    <g id="text_18">
     <!-- 0 s -->
     <g transform="translate(422.79 59.662125)scale(0.12 -0.12)">
      <use xlink:href="#DejaVuSans-48"/>
      <use x="63.623047" xlink:href="#DejaVuSans-32"/>
      <use x="95.410156" xlink:href="#DejaVuSans-115"/>
     </g>
    </g>
    <g id="line2d_28">
     <path d="M 389.19 73.075875 
L 413.19 73.075875 
" style="fill:none;stroke:#fb9a29;stroke-linecap:square;stroke-width:1.5;"/>
    </g>
    <g id="line2d_29"/>
    <g id="text_19">
     <!-- 60 s -->
     <g transform="translate(422.79 77.275875)scale(0.12 -0.12)">
      <use xlink:href="#DejaVuSans-54"/>
      <use x="63.623047" xlink:href="#DejaVuSans-48"/>
      <use x="127.246094" xlink:href="#DejaVuSans-32"/>
      <use x="159.033203" xlink:href="#DejaVuSans-115"/>
     </g>
    </g>
    <g id="line2d_30">
     <path d="M 389.19 90.689625 
L 413.19 90.689625 
" style="fill:none;stroke:#ec7014;stroke-linecap:square;stroke-width:1.5;"/>
    </g>
    <g id="line2d_31"/>
    <g id="text_20">
     <!-- 90 s -->
     <g transform="translate(422.79 94.889625)scale(0.12 -0.12)">
      <defs>
       <path d="M 10.984375 1.515625 
L 10.984375 10.5 
Q 14.703125 8.734375 18.5 7.8125 
Q 22.3125 6.890625 25.984375 6.890625 
Q 35.75 6.890625 40.890625 13.453125 
Q 46.046875 20.015625 46.78125 33.40625 
Q 43.953125 29.203125 39.59375 26.953125 
Q 35.25 24.703125 29.984375 24.703125 
Q 19.046875 24.703125 12.671875 31.3125 
Q 6.296875 37.9375 6.296875 49.421875 
Q 6.296875 60.640625 12.9375 67.421875 
Q 19.578125 74.21875 30.609375 74.21875 
Q 43.265625 74.21875 49.921875 64.515625 
Q 56.59375 54.828125 56.59375 36.375 
Q 56.59375 19.140625 48.40625 8.859375 
Q 40.234375 -1.421875 26.421875 -1.421875 
Q 22.703125 -1.421875 18.890625 -0.6875 
Q 15.09375 0.046875 10.984375 1.515625 
z
M 30.609375 32.421875 
Q 37.25 32.421875 41.125 36.953125 
Q 45.015625 41.5 45.015625 49.421875 
Q 45.015625 57.28125 41.125 61.84375 
Q 37.25 66.40625 30.609375 66.40625 
Q 23.96875 66.40625 20.09375 61.84375 
Q 16.21875 57.28125 16.21875 49.421875 
Q 16.21875 41.5 20.09375 36.953125 
Q 23.96875 32.421875 30.609375 32.421875 
z
" id="DejaVuSans-57"/>
      </defs>
      <use xlink:href="#DejaVuSans-57"/>
      <use x="63.623047" xlink:href="#DejaVuSans-48"/>
      <use x="127.246094" xlink:href="#DejaVuSans-32"/>
      <use x="159.033203" xlink:href="#DejaVuSans-115"/>
     </g>
    </g>
    <g id="line2d_32">
     <path d="M 389.19 108.303375 
L 413.19 108.303375 
" style="fill:none;stroke:#cc4c02;stroke-linecap:square;stroke-width:1.5;"/>
    </g>
    <g id="line2d_33"/>
    <g id="text_21">
     <!-- 120 s -->
     <g transform="translate(422.79 112.503375)scale(0.12 -0.12)">
      <use xlink:href="#DejaVuSans-49"/>
      <use x="63.623047" xlink:href="#DejaVuSans-50"/>
      <use x="127.246094" xlink:href="#DejaVuSans-48"/>
      <use x="190.869141" xlink:href="#DejaVuSans-32"/>
      <use x="222.65625" xlink:href="#DejaVuSans-115"/>
     </g>
    </g>
    <g id="line2d_34">
     <path d="M 389.19 125.917125 
L 413.19 125.917125 
" style="fill:none;stroke:#993404;stroke-linecap:square;stroke-width:1.5;"/>
    </g>
    <g id="line2d_35"/>
    <g id="text_22">
     <!-- 150 s -->
     <g transform="translate(422.79 130.117125)scale(0.12 -0.12)">
      <use xlink:href="#DejaVuSans-49"/>
      <use x="63.623047" xlink:href="#DejaVuSans-53"/>
      <use x="127.246094" xlink:href="#DejaVuSans-48"/>
      <use x="190.869141" xlink:href="#DejaVuSans-32"/>
      <use x="222.65625" xlink:href="#DejaVuSans-115"/>
     </g>
    </g>
    <g id="line2d_36">
     <path d="M 389.19 143.530875 
L 413.19 143.530875 
" style="fill:none;stroke:#662506;stroke-linecap:square;stroke-width:1.5;"/>
    </g>
    <g id="line2d_37"/>
    <g id="text_23">
     <!-- 180 s -->
     <g transform="translate(422.79 147.730875)scale(0.12 -0.12)">
      <use xlink:href="#DejaVuSans-49"/>
      <use x="63.623047" xlink:href="#DejaVuSans-56"/>
      <use x="127.246094" xlink:href="#DejaVuSans-48"/>
      <use x="190.869141" xlink:href="#DejaVuSans-32"/>
      <use x="222.65625" xlink:href="#DejaVuSans-115"/>
     </g>
    </g>
   </g>
  </g>
 </g>
 <defs>
  <clipPath id="p20ef585af3">
   <rect height="255.024" width="401.76" x="64.8" y="39.744"/>
  </clipPath>
 </defs>
</svg>
