<?xml version="1.0" encoding="utf-8" standalone="no"?>
<!DOCTYPE svg PUBLIC "-//W3C//DTD SVG 1.1//EN"
  "http://www.w3.org/Graphics/SVG/1.1/DTD/svg11.dtd">
<!-- Created with matplotlib (https://matplotlib.org/) -->
<svg height="331.2pt" version="1.1" viewBox="0 0 518.4 331.2" width="518.4pt" xmlns="http://www.w3.org/2000/svg" xmlns:xlink="http://www.w3.org/1999/xlink">
 <metadata>
  <rdf:RDF xmlns:cc="http://creativecommons.org/ns#" xmlns:dc="http://purl.org/dc/elements/1.1/" xmlns:rdf="http://www.w3.org/1999/02/22-rdf-syntax-ns#">
   <cc:Work>
    <dc:type rdf:resource="http://purl.org/dc/dcmitype/StillImage"/>
    <dc:date>2022-08-19T15:55:34.672566</dc:date>
    <dc:format>image/svg+xml</dc:format>
    <dc:creator>
     <cc:Agent>
      <dc:title>Matplotlib v3.3.4, https://matplotlib.org/</dc:title>
     </cc:Agent>
    </dc:creator>
   </cc:Work>
  </rdf:RDF>
 </metadata>
 <defs>
  <style type="text/css">*{stroke-linecap:butt;stroke-linejoin:round;}</style>
 </defs>
 <g id="figure_1">
  <g id="patch_1">
   <path d="M 0 331.2 
L 518.4 331.2 
L 518.4 0 
L 0 0 
z
" style="fill:#ffffff;"/>
  </g>
  <g id="axes_1">
   <g id="patch_2">
    <path d="M 64.8 294.768 
L 466.56 294.768 
L 466.56 39.744 
L 64.8 39.744 
z
" style="fill:#ffffff;"/>
   </g>
   <g id="matplotlib.axis_1">
    <g id="xtick_1">
     <g id="line2d_1">
      <defs>
       <path d="M 0 0 
L 0 3.5 
" id="m1501ebac38" style="stroke:#000000;stroke-width:0.8;"/>
      </defs>
      <g>
       <use style="stroke:#000000;stroke-width:0.8;" x="111.139728" xlink:href="#m1501ebac38" y="294.768"/>
      </g>
     </g>
     <g id="text_1">
      <!-- 400 -->
      <g transform="translate(99.687228 310.886125)scale(0.12 -0.12)">
       <defs>
        <path d="M 37.796875 64.3125 
L 12.890625 25.390625 
L 37.796875 25.390625 
z
M 35.203125 72.90625 
L 47.609375 72.90625 
L 47.609375 25.390625 
L 58.015625 25.390625 
L 58.015625 17.1875 
L 47.609375 17.1875 
L 47.609375 0 
L 37.796875 0 
L 37.796875 17.1875 
L 4.890625 17.1875 
L 4.890625 26.703125 
z
" id="DejaVuSans-52"/>
        <path d="M 31.78125 66.40625 
Q 24.171875 66.40625 20.328125 58.90625 
Q 16.5 51.421875 16.5 36.375 
Q 16.5 21.390625 20.328125 13.890625 
Q 24.171875 6.390625 31.78125 6.390625 
Q 39.453125 6.390625 43.28125 13.890625 
Q 47.125 21.390625 47.125 36.375 
Q 47.125 51.421875 43.28125 58.90625 
Q 39.453125 66.40625 31.78125 66.40625 
z
M 31.78125 74.21875 
Q 44.046875 74.21875 50.515625 64.515625 
Q 56.984375 54.828125 56.984375 36.375 
Q 56.984375 17.96875 50.515625 8.265625 
Q 44.046875 -1.421875 31.78125 -1.421875 
Q 19.53125 -1.421875 13.0625 8.265625 
Q 6.59375 17.96875 6.59375 36.375 
Q 6.59375 54.828125 13.0625 64.515625 
Q 19.53125 74.21875 31.78125 74.21875 
z
" id="DejaVuSans-48"/>
       </defs>
       <use xlink:href="#DejaVuSans-52"/>
       <use x="63.623047" xlink:href="#DejaVuSans-48"/>
       <use x="127.246094" xlink:href="#DejaVuSans-48"/>
      </g>
     </g>
    </g>
    <g id="xtick_2">
     <g id="line2d_2">
      <g>
       <use style="stroke:#000000;stroke-width:0.8;" x="167.37238" xlink:href="#m1501ebac38" y="294.768"/>
      </g>
     </g>
     <g id="text_2">
      <!-- 600 -->
      <g transform="translate(155.91988 310.886125)scale(0.12 -0.12)">
       <defs>
        <path d="M 33.015625 40.375 
Q 26.375 40.375 22.484375 35.828125 
Q 18.609375 31.296875 18.609375 23.390625 
Q 18.609375 15.53125 22.484375 10.953125 
Q 26.375 6.390625 33.015625 6.390625 
Q 39.65625 6.390625 43.53125 10.953125 
Q 47.40625 15.53125 47.40625 23.390625 
Q 47.40625 31.296875 43.53125 35.828125 
Q 39.65625 40.375 33.015625 40.375 
z
M 52.59375 71.296875 
L 52.59375 62.3125 
Q 48.875 64.0625 45.09375 64.984375 
Q 41.3125 65.921875 37.59375 65.921875 
Q 27.828125 65.921875 22.671875 59.328125 
Q 17.53125 52.734375 16.796875 39.40625 
Q 19.671875 43.65625 24.015625 45.921875 
Q 28.375 48.1875 33.59375 48.1875 
Q 44.578125 48.1875 50.953125 41.515625 
Q 57.328125 34.859375 57.328125 23.390625 
Q 57.328125 12.15625 50.6875 5.359375 
Q 44.046875 -1.421875 33.015625 -1.421875 
Q 20.359375 -1.421875 13.671875 8.265625 
Q 6.984375 17.96875 6.984375 36.375 
Q 6.984375 53.65625 15.1875 63.9375 
Q 23.390625 74.21875 37.203125 74.21875 
Q 40.921875 74.21875 44.703125 73.484375 
Q 48.484375 72.75 52.59375 71.296875 
z
" id="DejaVuSans-54"/>
       </defs>
       <use xlink:href="#DejaVuSans-54"/>
       <use x="63.623047" xlink:href="#DejaVuSans-48"/>
       <use x="127.246094" xlink:href="#DejaVuSans-48"/>
      </g>
     </g>
    </g>
    <g id="xtick_3">
     <g id="line2d_3">
      <g>
       <use style="stroke:#000000;stroke-width:0.8;" x="223.605032" xlink:href="#m1501ebac38" y="294.768"/>
      </g>
     </g>
     <g id="text_3">
      <!-- 800 -->
      <g transform="translate(212.152532 310.886125)scale(0.12 -0.12)">
       <defs>
        <path d="M 31.78125 34.625 
Q 24.75 34.625 20.71875 30.859375 
Q 16.703125 27.09375 16.703125 20.515625 
Q 16.703125 13.921875 20.71875 10.15625 
Q 24.75 6.390625 31.78125 6.390625 
Q 38.8125 6.390625 42.859375 10.171875 
Q 46.921875 13.96875 46.921875 20.515625 
Q 46.921875 27.09375 42.890625 30.859375 
Q 38.875 34.625 31.78125 34.625 
z
M 21.921875 38.8125 
Q 15.578125 40.375 12.03125 44.71875 
Q 8.5 49.078125 8.5 55.328125 
Q 8.5 64.0625 14.71875 69.140625 
Q 20.953125 74.21875 31.78125 74.21875 
Q 42.671875 74.21875 48.875 69.140625 
Q 55.078125 64.0625 55.078125 55.328125 
Q 55.078125 49.078125 51.53125 44.71875 
Q 48 40.375 41.703125 38.8125 
Q 48.828125 37.15625 52.796875 32.3125 
Q 56.78125 27.484375 56.78125 20.515625 
Q 56.78125 9.90625 50.3125 4.234375 
Q 43.84375 -1.421875 31.78125 -1.421875 
Q 19.734375 -1.421875 13.25 4.234375 
Q 6.78125 9.90625 6.78125 20.515625 
Q 6.78125 27.484375 10.78125 32.3125 
Q 14.796875 37.15625 21.921875 38.8125 
z
M 18.3125 54.390625 
Q 18.3125 48.734375 21.84375 45.5625 
Q 25.390625 42.390625 31.78125 42.390625 
Q 38.140625 42.390625 41.71875 45.5625 
Q 45.3125 48.734375 45.3125 54.390625 
Q 45.3125 60.0625 41.71875 63.234375 
Q 38.140625 66.40625 31.78125 66.40625 
Q 25.390625 66.40625 21.84375 63.234375 
Q 18.3125 60.0625 18.3125 54.390625 
z
" id="DejaVuSans-56"/>
       </defs>
       <use xlink:href="#DejaVuSans-56"/>
       <use x="63.623047" xlink:href="#DejaVuSans-48"/>
       <use x="127.246094" xlink:href="#DejaVuSans-48"/>
      </g>
     </g>
    </g>
    <g id="xtick_4">
     <g id="line2d_4">
      <g>
       <use style="stroke:#000000;stroke-width:0.8;" x="279.837684" xlink:href="#m1501ebac38" y="294.768"/>
      </g>
     </g>
     <g id="text_4">
      <!-- 1000 -->
      <g transform="translate(264.567684 310.886125)scale(0.12 -0.12)">
       <defs>
        <path d="M 12.40625 8.296875 
L 28.515625 8.296875 
L 28.515625 63.921875 
L 10.984375 60.40625 
L 10.984375 69.390625 
L 28.421875 72.90625 
L 38.28125 72.90625 
L 38.28125 8.296875 
L 54.390625 8.296875 
L 54.390625 0 
L 12.40625 0 
z
" id="DejaVuSans-49"/>
       </defs>
       <use xlink:href="#DejaVuSans-49"/>
       <use x="63.623047" xlink:href="#DejaVuSans-48"/>
       <use x="127.246094" xlink:href="#DejaVuSans-48"/>
       <use x="190.869141" xlink:href="#DejaVuSans-48"/>
      </g>
     </g>
    </g>
    <g id="xtick_5">
     <g id="line2d_5">
      <g>
       <use style="stroke:#000000;stroke-width:0.8;" x="336.070335" xlink:href="#m1501ebac38" y="294.768"/>
      </g>
     </g>
     <g id="text_5">
      <!-- 1200 -->
      <g transform="translate(320.800335 310.886125)scale(0.12 -0.12)">
       <defs>
        <path d="M 19.1875 8.296875 
L 53.609375 8.296875 
L 53.609375 0 
L 7.328125 0 
L 7.328125 8.296875 
Q 12.9375 14.109375 22.625 23.890625 
Q 32.328125 33.6875 34.8125 36.53125 
Q 39.546875 41.84375 41.421875 45.53125 
Q 43.3125 49.21875 43.3125 52.78125 
Q 43.3125 58.59375 39.234375 62.25 
Q 35.15625 65.921875 28.609375 65.921875 
Q 23.96875 65.921875 18.8125 64.3125 
Q 13.671875 62.703125 7.8125 59.421875 
L 7.8125 69.390625 
Q 13.765625 71.78125 18.9375 73 
Q 24.125 74.21875 28.421875 74.21875 
Q 39.75 74.21875 46.484375 68.546875 
Q 53.21875 62.890625 53.21875 53.421875 
Q 53.21875 48.921875 51.53125 44.890625 
Q 49.859375 40.875 45.40625 35.40625 
Q 44.1875 33.984375 37.640625 27.21875 
Q 31.109375 20.453125 19.1875 8.296875 
z
" id="DejaVuSans-50"/>
       </defs>
       <use xlink:href="#DejaVuSans-49"/>
       <use x="63.623047" xlink:href="#DejaVuSans-50"/>
       <use x="127.246094" xlink:href="#DejaVuSans-48"/>
       <use x="190.869141" xlink:href="#DejaVuSans-48"/>
      </g>
     </g>
    </g>
    <g id="xtick_6">
     <g id="line2d_6">
      <g>
       <use style="stroke:#000000;stroke-width:0.8;" x="392.302987" xlink:href="#m1501ebac38" y="294.768"/>
      </g>
     </g>
     <g id="text_6">
      <!-- 1400 -->
      <g transform="translate(377.032987 310.886125)scale(0.12 -0.12)">
       <use xlink:href="#DejaVuSans-49"/>
       <use x="63.623047" xlink:href="#DejaVuSans-52"/>
       <use x="127.246094" xlink:href="#DejaVuSans-48"/>
       <use x="190.869141" xlink:href="#DejaVuSans-48"/>
      </g>
     </g>
    </g>
    <g id="xtick_7">
     <g id="line2d_7">
      <g>
       <use style="stroke:#000000;stroke-width:0.8;" x="448.535639" xlink:href="#m1501ebac38" y="294.768"/>
      </g>
     </g>
     <g id="text_7">
      <!-- 1600 -->
      <g transform="translate(433.265639 310.886125)scale(0.12 -0.12)">
       <use xlink:href="#DejaVuSans-49"/>
       <use x="63.623047" xlink:href="#DejaVuSans-54"/>
       <use x="127.246094" xlink:href="#DejaVuSans-48"/>
       <use x="190.869141" xlink:href="#DejaVuSans-48"/>
      </g>
     </g>
    </g>
    <g id="text_8">
     <!-- Wavelengths [nm] -->
     <g transform="translate(201.564375 328.019563)scale(0.14 -0.14)">
      <defs>
       <path d="M 3.328125 72.90625 
L 13.28125 72.90625 
L 28.609375 11.28125 
L 43.890625 72.90625 
L 54.984375 72.90625 
L 70.3125 11.28125 
L 85.59375 72.90625 
L 95.609375 72.90625 
L 77.296875 0 
L 64.890625 0 
L 49.515625 63.28125 
L 33.984375 0 
L 21.578125 0 
z
" id="DejaVuSans-87"/>
       <path d="M 34.28125 27.484375 
Q 23.390625 27.484375 19.1875 25 
Q 14.984375 22.515625 14.984375 16.5 
Q 14.984375 11.71875 18.140625 8.90625 
Q 21.296875 6.109375 26.703125 6.109375 
Q 34.1875 6.109375 38.703125 11.40625 
Q 43.21875 16.703125 43.21875 25.484375 
L 43.21875 27.484375 
z
M 52.203125 31.203125 
L 52.203125 0 
L 43.21875 0 
L 43.21875 8.296875 
Q 40.140625 3.328125 35.546875 0.953125 
Q 30.953125 -1.421875 24.3125 -1.421875 
Q 15.921875 -1.421875 10.953125 3.296875 
Q 6 8.015625 6 15.921875 
Q 6 25.140625 12.171875 29.828125 
Q 18.359375 34.515625 30.609375 34.515625 
L 43.21875 34.515625 
L 43.21875 35.40625 
Q 43.21875 41.609375 39.140625 45 
Q 35.0625 48.390625 27.6875 48.390625 
Q 23 48.390625 18.546875 47.265625 
Q 14.109375 46.140625 10.015625 43.890625 
L 10.015625 52.203125 
Q 14.9375 54.109375 19.578125 55.046875 
Q 24.21875 56 28.609375 56 
Q 40.484375 56 46.34375 49.84375 
Q 52.203125 43.703125 52.203125 31.203125 
z
" id="DejaVuSans-97"/>
       <path d="M 2.984375 54.6875 
L 12.5 54.6875 
L 29.59375 8.796875 
L 46.6875 54.6875 
L 56.203125 54.6875 
L 35.6875 0 
L 23.484375 0 
z
" id="DejaVuSans-118"/>
       <path d="M 56.203125 29.59375 
L 56.203125 25.203125 
L 14.890625 25.203125 
Q 15.484375 15.921875 20.484375 11.0625 
Q 25.484375 6.203125 34.421875 6.203125 
Q 39.59375 6.203125 44.453125 7.46875 
Q 49.3125 8.734375 54.109375 11.28125 
L 54.109375 2.78125 
Q 49.265625 0.734375 44.1875 -0.34375 
Q 39.109375 -1.421875 33.890625 -1.421875 
Q 20.796875 -1.421875 13.15625 6.1875 
Q 5.515625 13.8125 5.515625 26.8125 
Q 5.515625 40.234375 12.765625 48.109375 
Q 20.015625 56 32.328125 56 
Q 43.359375 56 49.78125 48.890625 
Q 56.203125 41.796875 56.203125 29.59375 
z
M 47.21875 32.234375 
Q 47.125 39.59375 43.09375 43.984375 
Q 39.0625 48.390625 32.421875 48.390625 
Q 24.90625 48.390625 20.390625 44.140625 
Q 15.875 39.890625 15.1875 32.171875 
z
" id="DejaVuSans-101"/>
       <path d="M 9.421875 75.984375 
L 18.40625 75.984375 
L 18.40625 0 
L 9.421875 0 
z
" id="DejaVuSans-108"/>
       <path d="M 54.890625 33.015625 
L 54.890625 0 
L 45.90625 0 
L 45.90625 32.71875 
Q 45.90625 40.484375 42.875 44.328125 
Q 39.84375 48.1875 33.796875 48.1875 
Q 26.515625 48.1875 22.3125 43.546875 
Q 18.109375 38.921875 18.109375 30.90625 
L 18.109375 0 
L 9.078125 0 
L 9.078125 54.6875 
L 18.109375 54.6875 
L 18.109375 46.1875 
Q 21.34375 51.125 25.703125 53.5625 
Q 30.078125 56 35.796875 56 
Q 45.21875 56 50.046875 50.171875 
Q 54.890625 44.34375 54.890625 33.015625 
z
" id="DejaVuSans-110"/>
       <path d="M 45.40625 27.984375 
Q 45.40625 37.75 41.375 43.109375 
Q 37.359375 48.484375 30.078125 48.484375 
Q 22.859375 48.484375 18.828125 43.109375 
Q 14.796875 37.75 14.796875 27.984375 
Q 14.796875 18.265625 18.828125 12.890625 
Q 22.859375 7.515625 30.078125 7.515625 
Q 37.359375 7.515625 41.375 12.890625 
Q 45.40625 18.265625 45.40625 27.984375 
z
M 54.390625 6.78125 
Q 54.390625 -7.171875 48.1875 -13.984375 
Q 42 -20.796875 29.203125 -20.796875 
Q 24.46875 -20.796875 20.265625 -20.09375 
Q 16.0625 -19.390625 12.109375 -17.921875 
L 12.109375 -9.1875 
Q 16.0625 -11.328125 19.921875 -12.34375 
Q 23.78125 -13.375 27.78125 -13.375 
Q 36.625 -13.375 41.015625 -8.765625 
Q 45.40625 -4.15625 45.40625 5.171875 
L 45.40625 9.625 
Q 42.625 4.78125 38.28125 2.390625 
Q 33.9375 0 27.875 0 
Q 17.828125 0 11.671875 7.65625 
Q 5.515625 15.328125 5.515625 27.984375 
Q 5.515625 40.671875 11.671875 48.328125 
Q 17.828125 56 27.875 56 
Q 33.9375 56 38.28125 53.609375 
Q 42.625 51.21875 45.40625 46.390625 
L 45.40625 54.6875 
L 54.390625 54.6875 
z
" id="DejaVuSans-103"/>
       <path d="M 18.3125 70.21875 
L 18.3125 54.6875 
L 36.8125 54.6875 
L 36.8125 47.703125 
L 18.3125 47.703125 
L 18.3125 18.015625 
Q 18.3125 11.328125 20.140625 9.421875 
Q 21.96875 7.515625 27.59375 7.515625 
L 36.8125 7.515625 
L 36.8125 0 
L 27.59375 0 
Q 17.1875 0 13.234375 3.875 
Q 9.28125 7.765625 9.28125 18.015625 
L 9.28125 47.703125 
L 2.6875 47.703125 
L 2.6875 54.6875 
L 9.28125 54.6875 
L 9.28125 70.21875 
z
" id="DejaVuSans-116"/>
       <path d="M 54.890625 33.015625 
L 54.890625 0 
L 45.90625 0 
L 45.90625 32.71875 
Q 45.90625 40.484375 42.875 44.328125 
Q 39.84375 48.1875 33.796875 48.1875 
Q 26.515625 48.1875 22.3125 43.546875 
Q 18.109375 38.921875 18.109375 30.90625 
L 18.109375 0 
L 9.078125 0 
L 9.078125 75.984375 
L 18.109375 75.984375 
L 18.109375 46.1875 
Q 21.34375 51.125 25.703125 53.5625 
Q 30.078125 56 35.796875 56 
Q 45.21875 56 50.046875 50.171875 
Q 54.890625 44.34375 54.890625 33.015625 
z
" id="DejaVuSans-104"/>
       <path d="M 44.28125 53.078125 
L 44.28125 44.578125 
Q 40.484375 46.53125 36.375 47.5 
Q 32.28125 48.484375 27.875 48.484375 
Q 21.1875 48.484375 17.84375 46.4375 
Q 14.5 44.390625 14.5 40.28125 
Q 14.5 37.15625 16.890625 35.375 
Q 19.28125 33.59375 26.515625 31.984375 
L 29.59375 31.296875 
Q 39.15625 29.25 43.1875 25.515625 
Q 47.21875 21.78125 47.21875 15.09375 
Q 47.21875 7.46875 41.1875 3.015625 
Q 35.15625 -1.421875 24.609375 -1.421875 
Q 20.21875 -1.421875 15.453125 -0.5625 
Q 10.6875 0.296875 5.421875 2 
L 5.421875 11.28125 
Q 10.40625 8.6875 15.234375 7.390625 
Q 20.0625 6.109375 24.8125 6.109375 
Q 31.15625 6.109375 34.5625 8.28125 
Q 37.984375 10.453125 37.984375 14.40625 
Q 37.984375 18.0625 35.515625 20.015625 
Q 33.0625 21.96875 24.703125 23.78125 
L 21.578125 24.515625 
Q 13.234375 26.265625 9.515625 29.90625 
Q 5.8125 33.546875 5.8125 39.890625 
Q 5.8125 47.609375 11.28125 51.796875 
Q 16.75 56 26.8125 56 
Q 31.78125 56 36.171875 55.265625 
Q 40.578125 54.546875 44.28125 53.078125 
z
" id="DejaVuSans-115"/>
       <path id="DejaVuSans-32"/>
       <path d="M 8.59375 75.984375 
L 29.296875 75.984375 
L 29.296875 69 
L 17.578125 69 
L 17.578125 -6.203125 
L 29.296875 -6.203125 
L 29.296875 -13.1875 
L 8.59375 -13.1875 
z
" id="DejaVuSans-91"/>
       <path d="M 52 44.1875 
Q 55.375 50.25 60.0625 53.125 
Q 64.75 56 71.09375 56 
Q 79.640625 56 84.28125 50.015625 
Q 88.921875 44.046875 88.921875 33.015625 
L 88.921875 0 
L 79.890625 0 
L 79.890625 32.71875 
Q 79.890625 40.578125 77.09375 44.375 
Q 74.3125 48.1875 68.609375 48.1875 
Q 61.625 48.1875 57.5625 43.546875 
Q 53.515625 38.921875 53.515625 30.90625 
L 53.515625 0 
L 44.484375 0 
L 44.484375 32.71875 
Q 44.484375 40.625 41.703125 44.40625 
Q 38.921875 48.1875 33.109375 48.1875 
Q 26.21875 48.1875 22.15625 43.53125 
Q 18.109375 38.875 18.109375 30.90625 
L 18.109375 0 
L 9.078125 0 
L 9.078125 54.6875 
L 18.109375 54.6875 
L 18.109375 46.1875 
Q 21.1875 51.21875 25.484375 53.609375 
Q 29.78125 56 35.6875 56 
Q 41.65625 56 45.828125 52.96875 
Q 50 49.953125 52 44.1875 
z
" id="DejaVuSans-109"/>
       <path d="M 30.421875 75.984375 
L 30.421875 -13.1875 
L 9.71875 -13.1875 
L 9.71875 -6.203125 
L 21.390625 -6.203125 
L 21.390625 69 
L 9.71875 69 
L 9.71875 75.984375 
z
" id="DejaVuSans-93"/>
      </defs>
      <use xlink:href="#DejaVuSans-87"/>
      <use x="92.501953" xlink:href="#DejaVuSans-97"/>
      <use x="153.78125" xlink:href="#DejaVuSans-118"/>
      <use x="212.960938" xlink:href="#DejaVuSans-101"/>
      <use x="274.484375" xlink:href="#DejaVuSans-108"/>
      <use x="302.267578" xlink:href="#DejaVuSans-101"/>
      <use x="363.791016" xlink:href="#DejaVuSans-110"/>
      <use x="427.169922" xlink:href="#DejaVuSans-103"/>
      <use x="490.646484" xlink:href="#DejaVuSans-116"/>
      <use x="529.855469" xlink:href="#DejaVuSans-104"/>
      <use x="593.234375" xlink:href="#DejaVuSans-115"/>
      <use x="645.333984" xlink:href="#DejaVuSans-32"/>
      <use x="677.121094" xlink:href="#DejaVuSans-91"/>
      <use x="716.134766" xlink:href="#DejaVuSans-110"/>
      <use x="779.513672" xlink:href="#DejaVuSans-109"/>
      <use x="876.925781" xlink:href="#DejaVuSans-93"/>
     </g>
    </g>
   </g>
   <g id="matplotlib.axis_2">
    <g id="ytick_1">
     <g id="line2d_8">
      <defs>
       <path d="M 0 0 
L -3.5 0 
" id="m0e10362cfa" style="stroke:#000000;stroke-width:0.8;"/>
      </defs>
      <g>
       <use style="stroke:#000000;stroke-width:0.8;" x="64.8" xlink:href="#m0e10362cfa" y="294.768"/>
      </g>
     </g>
     <g id="text_9">
      <!-- 0 -->
      <g transform="translate(50.165 299.327063)scale(0.12 -0.12)">
       <use xlink:href="#DejaVuSans-48"/>
      </g>
     </g>
    </g>
    <g id="ytick_2">
     <g id="line2d_9">
      <g>
       <use style="stroke:#000000;stroke-width:0.8;" x="64.8" xlink:href="#m0e10362cfa" y="238.369978"/>
      </g>
     </g>
     <g id="text_10">
      <!-- 5 -->
      <g transform="translate(50.165 242.929041)scale(0.12 -0.12)">
       <defs>
        <path d="M 10.796875 72.90625 
L 49.515625 72.90625 
L 49.515625 64.59375 
L 19.828125 64.59375 
L 19.828125 46.734375 
Q 21.96875 47.46875 24.109375 47.828125 
Q 26.265625 48.1875 28.421875 48.1875 
Q 40.625 48.1875 47.75 41.5 
Q 54.890625 34.8125 54.890625 23.390625 
Q 54.890625 11.625 47.5625 5.09375 
Q 40.234375 -1.421875 26.90625 -1.421875 
Q 22.3125 -1.421875 17.546875 -0.640625 
Q 12.796875 0.140625 7.71875 1.703125 
L 7.71875 11.625 
Q 12.109375 9.234375 16.796875 8.0625 
Q 21.484375 6.890625 26.703125 6.890625 
Q 35.15625 6.890625 40.078125 11.328125 
Q 45.015625 15.765625 45.015625 23.390625 
Q 45.015625 31 40.078125 35.4375 
Q 35.15625 39.890625 26.703125 39.890625 
Q 22.75 39.890625 18.8125 39.015625 
Q 14.890625 38.140625 10.796875 36.28125 
z
" id="DejaVuSans-53"/>
       </defs>
       <use xlink:href="#DejaVuSans-53"/>
      </g>
     </g>
    </g>
    <g id="ytick_3">
     <g id="line2d_10">
      <g>
       <use style="stroke:#000000;stroke-width:0.8;" x="64.8" xlink:href="#m0e10362cfa" y="181.971957"/>
      </g>
     </g>
     <g id="text_11">
      <!-- 10 -->
      <g transform="translate(42.53 186.531019)scale(0.12 -0.12)">
       <use xlink:href="#DejaVuSans-49"/>
       <use x="63.623047" xlink:href="#DejaVuSans-48"/>
      </g>
     </g>
    </g>
    <g id="ytick_4">
     <g id="line2d_11">
      <g>
       <use style="stroke:#000000;stroke-width:0.8;" x="64.8" xlink:href="#m0e10362cfa" y="125.573935"/>
      </g>
     </g>
     <g id="text_12">
      <!-- 15 -->
      <g transform="translate(42.53 130.132998)scale(0.12 -0.12)">
       <use xlink:href="#DejaVuSans-49"/>
       <use x="63.623047" xlink:href="#DejaVuSans-53"/>
      </g>
     </g>
    </g>
    <g id="ytick_5">
     <g id="line2d_12">
      <g>
       <use style="stroke:#000000;stroke-width:0.8;" x="64.8" xlink:href="#m0e10362cfa" y="69.175914"/>
      </g>
     </g>
     <g id="text_13">
      <!-- 20 -->
      <g transform="translate(42.53 73.734976)scale(0.12 -0.12)">
       <use xlink:href="#DejaVuSans-50"/>
       <use x="63.623047" xlink:href="#DejaVuSans-48"/>
      </g>
     </g>
    </g>
    <g id="text_14">
     <!-- Reflcection [%] -->
     <g transform="translate(35.618437 220.27225)rotate(-90)scale(0.14 -0.14)">
      <defs>
       <path d="M 44.390625 34.1875 
Q 47.5625 33.109375 50.5625 29.59375 
Q 53.5625 26.078125 56.59375 19.921875 
L 66.609375 0 
L 56 0 
L 46.6875 18.703125 
Q 43.0625 26.03125 39.671875 28.421875 
Q 36.28125 30.8125 30.421875 30.8125 
L 19.671875 30.8125 
L 19.671875 0 
L 9.8125 0 
L 9.8125 72.90625 
L 32.078125 72.90625 
Q 44.578125 72.90625 50.734375 67.671875 
Q 56.890625 62.453125 56.890625 51.90625 
Q 56.890625 45.015625 53.6875 40.46875 
Q 50.484375 35.9375 44.390625 34.1875 
z
M 19.671875 64.796875 
L 19.671875 38.921875 
L 32.078125 38.921875 
Q 39.203125 38.921875 42.84375 42.21875 
Q 46.484375 45.515625 46.484375 51.90625 
Q 46.484375 58.296875 42.84375 61.546875 
Q 39.203125 64.796875 32.078125 64.796875 
z
" id="DejaVuSans-82"/>
       <path d="M 37.109375 75.984375 
L 37.109375 68.5 
L 28.515625 68.5 
Q 23.6875 68.5 21.796875 66.546875 
Q 19.921875 64.59375 19.921875 59.515625 
L 19.921875 54.6875 
L 34.71875 54.6875 
L 34.71875 47.703125 
L 19.921875 47.703125 
L 19.921875 0 
L 10.890625 0 
L 10.890625 47.703125 
L 2.296875 47.703125 
L 2.296875 54.6875 
L 10.890625 54.6875 
L 10.890625 58.5 
Q 10.890625 67.625 15.140625 71.796875 
Q 19.390625 75.984375 28.609375 75.984375 
z
" id="DejaVuSans-102"/>
       <path d="M 48.78125 52.59375 
L 48.78125 44.1875 
Q 44.96875 46.296875 41.140625 47.34375 
Q 37.3125 48.390625 33.40625 48.390625 
Q 24.65625 48.390625 19.8125 42.84375 
Q 14.984375 37.3125 14.984375 27.296875 
Q 14.984375 17.28125 19.8125 11.734375 
Q 24.65625 6.203125 33.40625 6.203125 
Q 37.3125 6.203125 41.140625 7.25 
Q 44.96875 8.296875 48.78125 10.40625 
L 48.78125 2.09375 
Q 45.015625 0.34375 40.984375 -0.53125 
Q 36.96875 -1.421875 32.421875 -1.421875 
Q 20.0625 -1.421875 12.78125 6.34375 
Q 5.515625 14.109375 5.515625 27.296875 
Q 5.515625 40.671875 12.859375 48.328125 
Q 20.21875 56 33.015625 56 
Q 37.15625 56 41.109375 55.140625 
Q 45.0625 54.296875 48.78125 52.59375 
z
" id="DejaVuSans-99"/>
       <path d="M 9.421875 54.6875 
L 18.40625 54.6875 
L 18.40625 0 
L 9.421875 0 
z
M 9.421875 75.984375 
L 18.40625 75.984375 
L 18.40625 64.59375 
L 9.421875 64.59375 
z
" id="DejaVuSans-105"/>
       <path d="M 30.609375 48.390625 
Q 23.390625 48.390625 19.1875 42.75 
Q 14.984375 37.109375 14.984375 27.296875 
Q 14.984375 17.484375 19.15625 11.84375 
Q 23.34375 6.203125 30.609375 6.203125 
Q 37.796875 6.203125 41.984375 11.859375 
Q 46.1875 17.53125 46.1875 27.296875 
Q 46.1875 37.015625 41.984375 42.703125 
Q 37.796875 48.390625 30.609375 48.390625 
z
M 30.609375 56 
Q 42.328125 56 49.015625 48.375 
Q 55.71875 40.765625 55.71875 27.296875 
Q 55.71875 13.875 49.015625 6.21875 
Q 42.328125 -1.421875 30.609375 -1.421875 
Q 18.84375 -1.421875 12.171875 6.21875 
Q 5.515625 13.875 5.515625 27.296875 
Q 5.515625 40.765625 12.171875 48.375 
Q 18.84375 56 30.609375 56 
z
" id="DejaVuSans-111"/>
       <path d="M 72.703125 32.078125 
Q 68.453125 32.078125 66.03125 28.46875 
Q 63.625 24.859375 63.625 18.40625 
Q 63.625 12.0625 66.03125 8.421875 
Q 68.453125 4.78125 72.703125 4.78125 
Q 76.859375 4.78125 79.265625 8.421875 
Q 81.6875 12.0625 81.6875 18.40625 
Q 81.6875 24.8125 79.265625 28.4375 
Q 76.859375 32.078125 72.703125 32.078125 
z
M 72.703125 38.28125 
Q 80.421875 38.28125 84.953125 32.90625 
Q 89.5 27.546875 89.5 18.40625 
Q 89.5 9.28125 84.9375 3.921875 
Q 80.375 -1.421875 72.703125 -1.421875 
Q 64.890625 -1.421875 60.34375 3.921875 
Q 55.8125 9.28125 55.8125 18.40625 
Q 55.8125 27.59375 60.375 32.9375 
Q 64.9375 38.28125 72.703125 38.28125 
z
M 22.3125 68.015625 
Q 18.109375 68.015625 15.6875 64.375 
Q 13.28125 60.75 13.28125 54.390625 
Q 13.28125 47.953125 15.671875 44.328125 
Q 18.0625 40.71875 22.3125 40.71875 
Q 26.5625 40.71875 28.96875 44.328125 
Q 31.390625 47.953125 31.390625 54.390625 
Q 31.390625 60.6875 28.953125 64.34375 
Q 26.515625 68.015625 22.3125 68.015625 
z
M 66.40625 74.21875 
L 74.21875 74.21875 
L 28.609375 -1.421875 
L 20.796875 -1.421875 
z
M 22.3125 74.21875 
Q 30.03125 74.21875 34.609375 68.875 
Q 39.203125 63.53125 39.203125 54.390625 
Q 39.203125 45.171875 34.640625 39.84375 
Q 30.078125 34.515625 22.3125 34.515625 
Q 14.546875 34.515625 10.03125 39.859375 
Q 5.515625 45.21875 5.515625 54.390625 
Q 5.515625 63.484375 10.046875 68.84375 
Q 14.59375 74.21875 22.3125 74.21875 
z
" id="DejaVuSans-37"/>
      </defs>
      <use xlink:href="#DejaVuSans-82"/>
      <use x="64.982422" xlink:href="#DejaVuSans-101"/>
      <use x="126.505859" xlink:href="#DejaVuSans-102"/>
      <use x="161.710938" xlink:href="#DejaVuSans-108"/>
      <use x="189.494141" xlink:href="#DejaVuSans-99"/>
      <use x="244.474609" xlink:href="#DejaVuSans-101"/>
      <use x="305.998047" xlink:href="#DejaVuSans-99"/>
      <use x="360.978516" xlink:href="#DejaVuSans-116"/>
      <use x="400.1875" xlink:href="#DejaVuSans-105"/>
      <use x="427.970703" xlink:href="#DejaVuSans-111"/>
      <use x="489.152344" xlink:href="#DejaVuSans-110"/>
      <use x="552.53125" xlink:href="#DejaVuSans-32"/>
      <use x="584.318359" xlink:href="#DejaVuSans-91"/>
      <use x="623.332031" xlink:href="#DejaVuSans-37"/>
      <use x="718.351562" xlink:href="#DejaVuSans-93"/>
     </g>
    </g>
   </g>
   <g id="line2d_13">
    <path clip-path="url(#p0b34c0c8e1)" d="M 448.298182 281.526496 
L 419.305812 279.53198 
L 388.380618 277.176864 
L 355.522599 274.452159 
L 320.731756 271.348228 
L 286.907325 268.116125 
L 257.664495 265.105229 
L 234.985964 262.556742 
L 216.93121 260.313365 
L 202.179155 258.2622 
L 189.84908 256.326427 
L 179.500623 254.483519 
L 170.473247 252.656977 
L 162.54677 250.835522 
L 155.280832 248.942866 
L 148.455255 246.933001 
L 141.849857 244.74915 
L 134.8041 242.172157 
L 123.134564 237.847775 
L 120.052045 236.983469 
L 117.630066 236.533001 
L 115.648446 236.384569 
L 113.887007 236.472473 
L 112.345748 236.758581 
L 110.804488 237.274555 
L 109.263229 238.050983 
L 107.721969 239.111629 
L 106.18071 240.46769 
L 104.63945 242.11101 
L 102.657831 244.586977 
L 99.134952 249.487795 
L 97.153333 252.048775 
L 95.832254 253.461332 
L 94.731354 254.368463 
L 93.630454 254.967939 
L 92.749735 255.190063 
L 91.869015 255.156885 
L 90.988295 254.847406 
L 90.107576 254.244547 
L 89.226856 253.336229 
L 88.346136 252.117224 
L 87.245237 250.165213 
L 85.924157 247.260963 
L 83.061818 240.209841 
L 83.061818 240.209841 
" style="fill:none;stroke:#cc4c02;stroke-linecap:square;stroke-width:1.5;"/>
   </g>
   <g id="line2d_14">
    <path clip-path="url(#p0b34c0c8e1)" d="M 448.298182 285.442325 
L 419.305812 283.833989 
L 388.380618 281.891504 
L 355.522599 279.600449 
L 320.731756 276.95124 
L 285.940912 274.085809 
L 254.581976 271.286274 
L 230.142005 268.891202 
L 210.986352 266.798502 
L 195.793938 264.922241 
L 183.463862 263.185283 
L 172.895226 261.476003 
L 163.867849 259.794108 
L 155.941372 258.095221 
L 148.675435 256.309059 
L 141.849857 254.397281 
L 134.8041 252.180626 
L 121.593304 247.935018 
L 118.730965 247.309802 
L 116.529166 247.036082 
L 114.547547 247.007975 
L 112.786107 247.204908 
L 111.244848 247.581161 
L 109.703589 248.170559 
L 108.162329 248.984601 
L 106.40089 250.182497 
L 104.41927 251.813132 
L 99.355132 256.153247 
L 98.034053 256.918226 
L 96.933153 257.304022 
L 96.052434 257.408943 
L 95.171714 257.304286 
L 94.290994 256.96527 
L 93.410274 256.368572 
L 92.529555 255.492283 
L 91.648835 254.315945 
L 90.547935 252.395436 
L 89.447036 249.947862 
L 88.346136 246.960011 
L 87.025057 242.697552 
L 83.502178 230.488215 
L 83.061818 229.581529 
L 83.061818 229.581529 
" style="fill:none;stroke:#ec7014;stroke-linecap:square;stroke-width:1.5;"/>
   </g>
   <g id="line2d_15">
    <path clip-path="url(#p0b34c0c8e1)" d="M 448.298182 285.50931 
L 422.205049 283.741784 
L 394.179092 281.621498 
L 363.253898 279.05278 
L 329.429467 276.013142 
L 294.638623 272.666802 
L 262.288274 269.337485 
L 236.747403 266.494175 
L 216.93121 264.074641 
L 200.858076 261.894649 
L 187.647281 259.886951 
L 176.197925 257.92954 
L 165.849468 255.938707 
L 155.721192 253.75902 
L 133.04266 248.726895 
L 129.519781 248.274711 
L 126.657442 248.1229 
L 124.235463 248.206854 
L 122.033664 248.501601 
L 120.052045 248.983218 
L 118.070426 249.702998 
L 116.308986 250.564496 
L 114.327367 251.797675 
L 112.345748 253.308329 
L 110.143948 255.276841 
L 107.06143 258.369917 
L 103.538551 261.866816 
L 101.777111 263.34102 
L 100.235852 264.354779 
L 98.914772 264.95727 
L 97.813873 265.237117 
L 96.712973 265.289587 
L 95.612074 265.093145 
L 94.511174 264.628563 
L 93.410274 263.87946 
L 92.309375 262.833668 
L 91.208475 261.486225 
L 89.887396 259.484152 
L 88.346136 256.705503 
L 85.703977 251.850728 
L 85.043437 251.015103 
L 84.382898 250.559562 
L 83.942538 250.546315 
L 83.502178 250.826723 
L 83.061818 251.454548 
L 83.061818 251.454548 
" style="fill:none;stroke:#993404;stroke-linecap:square;stroke-width:1.5;"/>
   </g>
   <g id="line2d_16">
    <path clip-path="url(#p0b34c0c8e1)" d="M 448.298182 283.298857 
L 428.969935 281.724537 
L 408.675277 279.849692 
L 386.447793 277.564137 
L 362.287486 274.845433 
L 335.227941 271.567488 
L 304.302746 267.593785 
L 268.453311 262.75885 
L 236.307043 258.210657 
L 212.747792 254.66775 
L 195.133398 251.805947 
L 181.041883 249.299622 
L 169.152167 246.964167 
L 158.583531 244.665905 
L 147.794715 242.08605 
L 132.6023 238.419745 
L 128.418882 237.66403 
L 125.336363 237.310819 
L 122.694204 237.215731 
L 120.272225 237.354046 
L 118.070426 237.711855 
L 116.088806 238.252687 
L 114.107187 239.017638 
L 111.905388 240.128525 
L 109.483409 241.618911 
L 103.538551 245.440667 
L 101.997291 246.094539 
L 100.676212 246.402991 
L 99.575312 246.431875 
L 98.474413 246.210967 
L 97.593693 245.826508 
L 96.712973 245.232972 
L 95.832254 244.405877 
L 94.951534 243.31801 
L 93.850634 241.543595 
L 92.749735 239.239701 
L 91.648835 236.31441 
L 90.547935 232.649999 
L 89.447036 228.095817 
L 88.346136 222.464941 
L 87.245237 215.547733 
L 86.144337 207.182527 
L 84.603078 193.450722 
L 83.502178 184.370276 
L 83.061818 182.058646 
L 83.061818 182.058646 
" style="fill:none;stroke:#fb9a29;stroke-linecap:square;stroke-width:1.5;"/>
   </g>
   <g id="line2d_17">
    <path clip-path="url(#p0b34c0c8e1)" d="M 448.298182 286.245876 
L 424.137874 284.755927 
L 399.011154 282.987887 
L 371.951609 280.860284 
L 342.959239 278.358126 
L 311.067633 275.380593 
L 278.209614 272.092727 
L 247.756399 268.826084 
L 223.756788 266.038029 
L 204.601134 263.596134 
L 188.96836 261.384217 
L 175.537385 259.263256 
L 162.987129 257.057798 
L 138.106798 252.575472 
L 133.92338 252.12893 
L 130.620681 251.986352 
L 127.758342 252.079505 
L 125.336363 252.364005 
L 122.914384 252.879904 
L 120.712585 253.581522 
L 118.510785 254.526243 
L 116.308986 255.719922 
L 113.887007 257.298455 
L 110.804488 259.596016 
L 106.40089 262.88584 
L 104.41927 264.08179 
L 102.878011 264.769736 
L 101.556932 265.137749 
L 100.235852 265.258961 
L 99.134952 265.142309 
L 98.034053 264.801958 
L 96.933153 264.211999 
L 95.832254 263.343821 
L 94.731354 262.164891 
L 93.630454 260.637572 
L 92.529555 258.718375 
L 91.428655 256.358637 
L 90.327756 253.508808 
L 89.006676 249.391637 
L 87.465417 243.686428 
L 85.483797 236.117088 
L 84.823258 234.315018 
L 84.382898 233.634007 
L 84.162718 233.509271 
L 83.942538 233.557967 
L 83.722358 233.80309 
L 83.281998 234.972866 
L 83.061818 235.938921 
L 83.061818 235.938921 
" style="fill:none;stroke:#ec7014;stroke-linecap:square;stroke-width:1.5;"/>
   </g>
   <g id="line2d_18">
    <path clip-path="url(#p0b34c0c8e1)" d="M 448.298182 274.927132 
L 393.21268 269.901877 
L 313.96687 262.439582 
L 269.774391 258.085504 
L 243.352801 255.270802 
L 223.976967 252.991312 
L 208.784553 250.986174 
L 196.454477 249.142489 
L 186.106021 247.379748 
L 177.078644 245.620905 
L 169.152167 243.849825 
L 162.32659 242.104285 
L 156.161552 240.305922 
L 150.436874 238.403236 
L 145.152556 236.406767 
L 140.308598 234.33951 
L 135.684819 232.12909 
L 131.061041 229.677996 
L 125.556543 226.495351 
L 118.951145 222.680873 
L 116.529166 221.520943 
L 114.547547 220.8111 
L 113.006287 220.485319 
L 111.685208 220.420004 
L 110.584308 220.555059 
L 109.483409 220.897528 
L 108.382509 221.482973 
L 107.281609 222.348134 
L 106.18071 223.528947 
L 105.07981 225.057754 
L 103.978911 226.959662 
L 102.657831 229.752391 
L 101.336752 233.092496 
L 99.795492 237.607317 
L 97.593693 244.854586 
L 94.290994 255.719113 
L 92.969915 259.384171 
L 91.869015 261.912502 
L 90.768115 263.868186 
L 89.887396 264.979546 
L 89.226856 265.536975 
L 88.566316 265.855425 
L 87.905776 265.938352 
L 87.245237 265.79568 
L 86.584697 265.445936 
L 85.703977 264.712315 
L 83.281998 262.368087 
L 83.061818 262.268947 
L 83.061818 262.268947 
" style="fill:none;stroke:#cc4c02;stroke-linecap:square;stroke-width:1.5;"/>
   </g>
   <g id="line2d_19">
    <path clip-path="url(#p0b34c0c8e1)" d="M 448.298182 285.475776 
L 418.3394 283.785619 
L 386.447793 281.763338 
L 351.65695 279.331662 
L 313.96687 276.472578 
L 275.939429 273.365328 
L 244.67388 270.596739 
L 221.334808 268.319313 
L 203.500235 266.36644 
L 189.40872 264.608563 
L 177.959364 262.964329 
L 168.491627 261.390533 
L 160.34497 259.818833 
L 153.299213 258.240564 
L 147.134175 256.642731 
L 141.409497 254.932069 
L 136.125179 253.122368 
L 130.840861 251.072654 
L 124.015283 248.152191 
L 119.171325 246.169596 
L 116.529166 245.329597 
L 114.547547 244.926406 
L 112.786107 244.800892 
L 111.244848 244.912229 
L 109.703589 245.25111 
L 108.162329 245.811096 
L 106.18071 246.776936 
L 103.098191 248.306529 
L 101.777111 248.703623 
L 100.676212 248.800542 
L 99.795492 248.684043 
L 98.914772 248.36832 
L 98.034053 247.833049 
L 97.153333 247.06176 
L 96.052434 245.74569 
L 94.951534 244.018684 
L 93.850634 241.861262 
L 92.749735 239.253064 
L 91.428655 235.495501 
L 90.107576 231.011191 
L 88.786496 225.761606 
L 87.245237 218.674276 
L 84.823258 206.157884 
L 83.502178 199.980453 
L 83.061818 198.404283 
L 83.061818 198.404283 
" style="fill:none;stroke:#fb9a29;stroke-linecap:square;stroke-width:1.5;"/>
   </g>
   <g id="line2d_20">
    <path clip-path="url(#p0b34c0c8e1)" d="M 448.298182 273.035333 
L 403.843215 268.842027 
L 346.824888 263.227992 
L 295.605036 257.979779 
L 262.948813 254.424553 
L 240.270282 251.743305 
L 222.655888 249.443869 
L 208.564373 247.387759 
L 196.674657 245.432988 
L 186.546381 243.547074 
L 177.739184 241.687037 
L 169.812707 239.787873 
L 162.76695 237.877725 
L 156.161552 235.861063 
L 149.776334 233.678351 
L 143.170937 231.179361 
L 128.639062 225.555498 
L 125.996903 224.843055 
L 123.795104 224.469326 
L 122.033664 224.373069 
L 120.492405 224.480093 
L 118.951145 224.806327 
L 117.630066 225.292151 
L 116.308986 225.99665 
L 114.987907 226.945347 
L 113.666827 228.160134 
L 112.345748 229.656351 
L 110.804488 231.764098 
L 109.263229 234.246496 
L 107.281609 237.909178 
L 104.199091 244.21163 
L 101.556932 249.472543 
L 99.795492 252.508269 
L 98.474413 254.400566 
L 97.153333 255.90248 
L 96.052434 256.836229 
L 94.951534 257.481083 
L 93.850634 257.853502 
L 92.749735 257.98718 
L 91.428655 257.909148 
L 88.346136 257.57721 
L 87.465417 257.760777 
L 86.804877 258.087245 
L 86.144337 258.627081 
L 85.483797 259.427194 
L 84.823258 260.531439 
L 83.942538 262.53778 
L 83.061818 265.194825 
L 83.061818 265.194825 
" style="fill:none;stroke:#662506;stroke-linecap:square;stroke-width:1.5;"/>
   </g>
   <g id="line2d_21">
    <path clip-path="url(#p0b34c0c8e1)" d="M 448.298182 245.200536 
L 381.615732 223.944206 
L 359.388249 217.169666 
L 339.09359 211.211742 
L 319.765344 205.761835 
L 300.437097 200.540269 
L 281.108851 195.54599 
L 260.526834 190.463442 
L 238.068482 185.155428 
L 203.940595 177.358835 
L 182.142783 172.271002 
L 169.592527 169.12505 
L 160.12479 166.536444 
L 152.418493 164.210532 
L 145.813096 161.987346 
L 140.308598 159.908879 
L 135.464639 157.85071 
L 131.061041 155.734424 
L 127.317982 153.698365 
L 123.795104 151.528311 
L 120.712585 149.376587 
L 117.850246 147.116632 
L 115.208087 144.757117 
L 112.786107 142.316644 
L 110.364128 139.561371 
L 107.942149 136.44095 
L 105.52017 132.915016 
L 103.098191 128.98708 
L 97.593693 119.80617 
L 96.492793 118.480322 
L 95.612074 117.736699 
L 94.951534 117.402913 
L 94.290994 117.273354 
L 93.630454 117.33632 
L 92.529555 117.737957 
L 91.428655 118.114521 
L 90.768115 118.048694 
L 90.327756 117.776591 
L 89.887396 117.261106 
L 89.447036 116.453003 
L 88.786496 114.595612 
L 88.125956 111.851475 
L 87.465417 108.116872 
L 86.584697 101.447128 
L 85.703977 92.663259 
L 84.823258 81.540059 
L 83.942538 67.839061 
L 83.061818 51.482185 
L 83.061818 51.482185 
" style="fill:none;stroke:#000000;stroke-dasharray:5.55,2.4;stroke-dashoffset:0;stroke-width:1.5;"/>
   </g>
   <g id="line2d_22">
    <path clip-path="url(#p0b34c0c8e1)" d="M 448.298182 276.329288 
L 413.507338 272.818486 
L 370.985196 268.290587 
L 317.832519 262.398682 
L 274.177989 257.354071 
L 246.435319 253.93793 
L 226.398947 251.255669 
L 210.986352 248.978299 
L 198.436097 246.909808 
L 187.86746 244.951846 
L 178.840084 243.063347 
L 170.913607 241.186553 
L 163.867849 239.296604 
L 157.482631 237.357138 
L 151.757953 235.394314 
L 146.253455 233.270369 
L 141.189317 231.084295 
L 135.904999 228.554241 
L 129.739961 225.332759 
L 122.914384 221.785752 
L 120.272225 220.647532 
L 118.290606 220.00308 
L 116.529166 219.659755 
L 114.987907 219.601595 
L 113.666827 219.782289 
L 112.565928 220.129969 
L 111.465028 220.686798 
L 110.364128 221.481502 
L 109.263229 222.541852 
L 108.162329 223.892593 
L 106.84125 225.923083 
L 105.52017 228.414413 
L 103.978911 231.887143 
L 102.217471 236.502995 
L 99.575312 244.199338 
L 96.933153 251.721833 
L 95.391894 255.483861 
L 94.070814 258.12292 
L 92.969915 259.837379 
L 92.089195 260.873179 
L 91.208475 261.612039 
L 90.327756 262.070083 
L 89.447036 262.279612 
L 88.346136 262.273442 
L 85.924157 262.07583 
L 85.263617 262.277369 
L 84.603078 262.742856 
L 83.942538 263.565904 
L 83.281998 264.834967 
L 83.061818 265.369869 
L 83.061818 265.369869 
" style="fill:none;stroke:#993404;stroke-linecap:square;stroke-width:1.5;"/>
   </g>
   <g id="patch_3">
    <path d="M 64.8 294.768 
L 64.8 39.744 
" style="fill:none;stroke:#000000;stroke-linecap:square;stroke-linejoin:miter;stroke-width:0.8;"/>
   </g>
   <g id="patch_4">
    <path d="M 466.56 294.768 
L 466.56 39.744 
" style="fill:none;stroke:#000000;stroke-linecap:square;stroke-linejoin:miter;stroke-width:0.8;"/>
   </g>
   <g id="patch_5">
    <path d="M 64.8 294.768 
L 466.56 294.768 
" style="fill:none;stroke:#000000;stroke-linecap:square;stroke-linejoin:miter;stroke-width:0.8;"/>
   </g>
   <g id="patch_6">
    <path d="M 64.8 39.744 
L 466.56 39.744 
" style="fill:none;stroke:#000000;stroke-linecap:square;stroke-linejoin:miter;stroke-width:0.8;"/>
   </g>
   <g id="legend_1">
    <g id="patch_7">
     <path d="M 386.79 155.0265 
L 458.16 155.0265 
Q 460.56 155.0265 460.56 152.6265 
L 460.56 48.144 
Q 460.56 45.744 458.16 45.744 
L 386.79 45.744 
Q 384.39 45.744 384.39 48.144 
L 384.39 152.6265 
Q 384.39 155.0265 386.79 155.0265 
z
" style="fill:#ffffff;opacity:0.8;stroke:#cccccc;stroke-linejoin:miter;"/>
    </g>
    <g id="line2d_23">
     <path d="M 389.19 55.462125 
L 413.19 55.462125 
" style="fill:none;stroke:#000000;stroke-dasharray:5.55,2.4;stroke-dashoffset:0;stroke-width:1.5;"/>
    </g>
    <g id="line2d_24"/>
    <g id="text_15">
     <!-- 0 s -->
     <g transform="translate(422.79 59.662125)scale(0.12 -0.12)">
      <use xlink:href="#DejaVuSans-48"/>
      <use x="63.623047" xlink:href="#DejaVuSans-32"/>
      <use x="95.410156" xlink:href="#DejaVuSans-115"/>
     </g>
    </g>
    <g id="line2d_25">
     <path d="M 389.19 73.075875 
L 413.19 73.075875 
" style="fill:none;stroke:#fb9a29;stroke-linecap:square;stroke-width:1.5;"/>
    </g>
    <g id="line2d_26"/>
    <g id="text_16">
     <!-- 60 s -->
     <g transform="translate(422.79 77.275875)scale(0.12 -0.12)">
      <use xlink:href="#DejaVuSans-54"/>
      <use x="63.623047" xlink:href="#DejaVuSans-48"/>
      <use x="127.246094" xlink:href="#DejaVuSans-32"/>
      <use x="159.033203" xlink:href="#DejaVuSans-115"/>
     </g>
    </g>
    <g id="line2d_27">
     <path d="M 389.19 90.689625 
L 413.19 90.689625 
" style="fill:none;stroke:#ec7014;stroke-linecap:square;stroke-width:1.5;"/>
    </g>
    <g id="line2d_28"/>
    <g id="text_17">
     <!-- 90 s -->
     <g transform="translate(422.79 94.889625)scale(0.12 -0.12)">
      <defs>
       <path d="M 10.984375 1.515625 
L 10.984375 10.5 
Q 14.703125 8.734375 18.5 7.8125 
Q 22.3125 6.890625 25.984375 6.890625 
Q 35.75 6.890625 40.890625 13.453125 
Q 46.046875 20.015625 46.78125 33.40625 
Q 43.953125 29.203125 39.59375 26.953125 
Q 35.25 24.703125 29.984375 24.703125 
Q 19.046875 24.703125 12.671875 31.3125 
Q 6.296875 37.9375 6.296875 49.421875 
Q 6.296875 60.640625 12.9375 67.421875 
Q 19.578125 74.21875 30.609375 74.21875 
Q 43.265625 74.21875 49.921875 64.515625 
Q 56.59375 54.828125 56.59375 36.375 
Q 56.59375 19.140625 48.40625 8.859375 
Q 40.234375 -1.421875 26.421875 -1.421875 
Q 22.703125 -1.421875 18.890625 -0.6875 
Q 15.09375 0.046875 10.984375 1.515625 
z
M 30.609375 32.421875 
Q 37.25 32.421875 41.125 36.953125 
Q 45.015625 41.5 45.015625 49.421875 
Q 45.015625 57.28125 41.125 61.84375 
Q 37.25 66.40625 30.609375 66.40625 
Q 23.96875 66.40625 20.09375 61.84375 
Q 16.21875 57.28125 16.21875 49.421875 
Q 16.21875 41.5 20.09375 36.953125 
Q 23.96875 32.421875 30.609375 32.421875 
z
" id="DejaVuSans-57"/>
      </defs>
      <use xlink:href="#DejaVuSans-57"/>
      <use x="63.623047" xlink:href="#DejaVuSans-48"/>
      <use x="127.246094" xlink:href="#DejaVuSans-32"/>
      <use x="159.033203" xlink:href="#DejaVuSans-115"/>
     </g>
    </g>
    <g id="line2d_29">
     <path d="M 389.19 108.303375 
L 413.19 108.303375 
" style="fill:none;stroke:#cc4c02;stroke-linecap:square;stroke-width:1.5;"/>
    </g>
    <g id="line2d_30"/>
    <g id="text_18">
     <!-- 120 s -->
     <g transform="translate(422.79 112.503375)scale(0.12 -0.12)">
      <use xlink:href="#DejaVuSans-49"/>
      <use x="63.623047" xlink:href="#DejaVuSans-50"/>
      <use x="127.246094" xlink:href="#DejaVuSans-48"/>
      <use x="190.869141" xlink:href="#DejaVuSans-32"/>
      <use x="222.65625" xlink:href="#DejaVuSans-115"/>
     </g>
    </g>
    <g id="line2d_31">
     <path d="M 389.19 125.917125 
L 413.19 125.917125 
" style="fill:none;stroke:#993404;stroke-linecap:square;stroke-width:1.5;"/>
    </g>
    <g id="line2d_32"/>
    <g id="text_19">
     <!-- 150 s -->
     <g transform="translate(422.79 130.117125)scale(0.12 -0.12)">
      <use xlink:href="#DejaVuSans-49"/>
      <use x="63.623047" xlink:href="#DejaVuSans-53"/>
      <use x="127.246094" xlink:href="#DejaVuSans-48"/>
      <use x="190.869141" xlink:href="#DejaVuSans-32"/>
      <use x="222.65625" xlink:href="#DejaVuSans-115"/>
     </g>
    </g>
    <g id="line2d_33">
     <path d="M 389.19 143.530875 
L 413.19 143.530875 
" style="fill:none;stroke:#662506;stroke-linecap:square;stroke-width:1.5;"/>
    </g>
    <g id="line2d_34"/>
    <g id="text_20">
     <!-- 180 s -->
     <g transform="translate(422.79 147.730875)scale(0.12 -0.12)">
      <use xlink:href="#DejaVuSans-49"/>
      <use x="63.623047" xlink:href="#DejaVuSans-56"/>
      <use x="127.246094" xlink:href="#DejaVuSans-48"/>
      <use x="190.869141" xlink:href="#DejaVuSans-32"/>
      <use x="222.65625" xlink:href="#DejaVuSans-115"/>
     </g>
    </g>
   </g>
  </g>
 </g>
 <defs>
  <clipPath id="p0b34c0c8e1">
   <rect height="255.024" width="401.76" x="64.8" y="39.744"/>
  </clipPath>
 </defs>
</svg>
