<?xml version="1.0" encoding="utf-8" standalone="no"?>
<!DOCTYPE svg PUBLIC "-//W3C//DTD SVG 1.1//EN"
  "http://www.w3.org/Graphics/SVG/1.1/DTD/svg11.dtd">
<svg xmlns:xlink="http://www.w3.org/1999/xlink" width="518.4pt" height="331.2pt" viewBox="0 0 518.4 331.2" xmlns="http://www.w3.org/2000/svg" version="1.1">
 <metadata>
  <rdf:RDF xmlns:dc="http://purl.org/dc/elements/1.1/" xmlns:cc="http://creativecommons.org/ns#" xmlns:rdf="http://www.w3.org/1999/02/22-rdf-syntax-ns#">
   <cc:Work>
    <dc:type rdf:resource="http://purl.org/dc/dcmitype/StillImage"/>
    <dc:date>2023-02-14T13:35:59.360492</dc:date>
    <dc:format>image/svg+xml</dc:format>
    <dc:creator>
     <cc:Agent>
      <dc:title>Matplotlib v3.6.3, https://matplotlib.org/</dc:title>
     </cc:Agent>
    </dc:creator>
   </cc:Work>
  </rdf:RDF>
 </metadata>
 <defs>
  <style type="text/css">*{stroke-linejoin: round; stroke-linecap: butt}</style>
 </defs>
 <g id="figure_1">
  <g id="patch_1">
   <path d="M 0 331.2 
L 518.4 331.2 
L 518.4 0 
L 0 0 
z
" style="fill: #ffffff"/>
  </g>
  <g id="axes_1">
   <g id="patch_2">
    <path d="M 64.8 294.768 
L 466.56 294.768 
L 466.56 39.744 
L 64.8 39.744 
z
" style="fill: #ffffff"/>
   </g>
   <g id="matplotlib.axis_1">
    <g id="xtick_1">
     <g id="line2d_1">
      <defs>
       <path id="m9022fc655b" d="M 0 0 
L 0 3.5 
" style="stroke: #000000; stroke-width: 0.8"/>
      </defs>
      <g>
       <use xlink:href="#m9022fc655b" x="85.173387" y="294.768" style="stroke: #000000; stroke-width: 0.8"/>
      </g>
     </g>
     <g id="text_1">
      <!-- −0.004 -->
      <g transform="translate(62.968699 310.886125) scale(0.12 -0.12)">
       <defs>
        <path id="DejaVuSans-2212" d="M 678 2272 
L 4684 2272 
L 4684 1741 
L 678 1741 
L 678 2272 
z
" transform="scale(0.015625)"/>
        <path id="DejaVuSans-30" d="M 2034 4250 
Q 1547 4250 1301 3770 
Q 1056 3291 1056 2328 
Q 1056 1369 1301 889 
Q 1547 409 2034 409 
Q 2525 409 2770 889 
Q 3016 1369 3016 2328 
Q 3016 3291 2770 3770 
Q 2525 4250 2034 4250 
z
M 2034 4750 
Q 2819 4750 3233 4129 
Q 3647 3509 3647 2328 
Q 3647 1150 3233 529 
Q 2819 -91 2034 -91 
Q 1250 -91 836 529 
Q 422 1150 422 2328 
Q 422 3509 836 4129 
Q 1250 4750 2034 4750 
z
" transform="scale(0.015625)"/>
        <path id="DejaVuSans-2e" d="M 684 794 
L 1344 794 
L 1344 0 
L 684 0 
L 684 794 
z
" transform="scale(0.015625)"/>
        <path id="DejaVuSans-34" d="M 2419 4116 
L 825 1625 
L 2419 1625 
L 2419 4116 
z
M 2253 4666 
L 3047 4666 
L 3047 1625 
L 3713 1625 
L 3713 1100 
L 3047 1100 
L 3047 0 
L 2419 0 
L 2419 1100 
L 313 1100 
L 313 1709 
L 2253 4666 
z
" transform="scale(0.015625)"/>
       </defs>
       <use xlink:href="#DejaVuSans-2212"/>
       <use xlink:href="#DejaVuSans-30" x="83.789062"/>
       <use xlink:href="#DejaVuSans-2e" x="147.412109"/>
       <use xlink:href="#DejaVuSans-30" x="179.199219"/>
       <use xlink:href="#DejaVuSans-30" x="242.822266"/>
       <use xlink:href="#DejaVuSans-34" x="306.445312"/>
      </g>
     </g>
    </g>
    <g id="xtick_2">
     <g id="line2d_2">
      <g>
       <use xlink:href="#m9022fc655b" x="141.181673" y="294.768" style="stroke: #000000; stroke-width: 0.8"/>
      </g>
     </g>
     <g id="text_2">
      <!-- −0.003 -->
      <g transform="translate(118.976985 310.886125) scale(0.12 -0.12)">
       <defs>
        <path id="DejaVuSans-33" d="M 2597 2516 
Q 3050 2419 3304 2112 
Q 3559 1806 3559 1356 
Q 3559 666 3084 287 
Q 2609 -91 1734 -91 
Q 1441 -91 1130 -33 
Q 819 25 488 141 
L 488 750 
Q 750 597 1062 519 
Q 1375 441 1716 441 
Q 2309 441 2620 675 
Q 2931 909 2931 1356 
Q 2931 1769 2642 2001 
Q 2353 2234 1838 2234 
L 1294 2234 
L 1294 2753 
L 1863 2753 
Q 2328 2753 2575 2939 
Q 2822 3125 2822 3475 
Q 2822 3834 2567 4026 
Q 2313 4219 1838 4219 
Q 1578 4219 1281 4162 
Q 984 4106 628 3988 
L 628 4550 
Q 988 4650 1302 4700 
Q 1616 4750 1894 4750 
Q 2613 4750 3031 4423 
Q 3450 4097 3450 3541 
Q 3450 3153 3228 2886 
Q 3006 2619 2597 2516 
z
" transform="scale(0.015625)"/>
       </defs>
       <use xlink:href="#DejaVuSans-2212"/>
       <use xlink:href="#DejaVuSans-30" x="83.789062"/>
       <use xlink:href="#DejaVuSans-2e" x="147.412109"/>
       <use xlink:href="#DejaVuSans-30" x="179.199219"/>
       <use xlink:href="#DejaVuSans-30" x="242.822266"/>
       <use xlink:href="#DejaVuSans-33" x="306.445312"/>
      </g>
     </g>
    </g>
    <g id="xtick_3">
     <g id="line2d_3">
      <g>
       <use xlink:href="#m9022fc655b" x="197.189959" y="294.768" style="stroke: #000000; stroke-width: 0.8"/>
      </g>
     </g>
     <g id="text_3">
      <!-- −0.002 -->
      <g transform="translate(174.985272 310.886125) scale(0.12 -0.12)">
       <defs>
        <path id="DejaVuSans-32" d="M 1228 531 
L 3431 531 
L 3431 0 
L 469 0 
L 469 531 
Q 828 903 1448 1529 
Q 2069 2156 2228 2338 
Q 2531 2678 2651 2914 
Q 2772 3150 2772 3378 
Q 2772 3750 2511 3984 
Q 2250 4219 1831 4219 
Q 1534 4219 1204 4116 
Q 875 4013 500 3803 
L 500 4441 
Q 881 4594 1212 4672 
Q 1544 4750 1819 4750 
Q 2544 4750 2975 4387 
Q 3406 4025 3406 3419 
Q 3406 3131 3298 2873 
Q 3191 2616 2906 2266 
Q 2828 2175 2409 1742 
Q 1991 1309 1228 531 
z
" transform="scale(0.015625)"/>
       </defs>
       <use xlink:href="#DejaVuSans-2212"/>
       <use xlink:href="#DejaVuSans-30" x="83.789062"/>
       <use xlink:href="#DejaVuSans-2e" x="147.412109"/>
       <use xlink:href="#DejaVuSans-30" x="179.199219"/>
       <use xlink:href="#DejaVuSans-30" x="242.822266"/>
       <use xlink:href="#DejaVuSans-32" x="306.445312"/>
      </g>
     </g>
    </g>
    <g id="xtick_4">
     <g id="line2d_4">
      <g>
       <use xlink:href="#m9022fc655b" x="253.198245" y="294.768" style="stroke: #000000; stroke-width: 0.8"/>
      </g>
     </g>
     <g id="text_4">
      <!-- −0.001 -->
      <g transform="translate(230.993558 310.886125) scale(0.12 -0.12)">
       <defs>
        <path id="DejaVuSans-31" d="M 794 531 
L 1825 531 
L 1825 4091 
L 703 3866 
L 703 4441 
L 1819 4666 
L 2450 4666 
L 2450 531 
L 3481 531 
L 3481 0 
L 794 0 
L 794 531 
z
" transform="scale(0.015625)"/>
       </defs>
       <use xlink:href="#DejaVuSans-2212"/>
       <use xlink:href="#DejaVuSans-30" x="83.789062"/>
       <use xlink:href="#DejaVuSans-2e" x="147.412109"/>
       <use xlink:href="#DejaVuSans-30" x="179.199219"/>
       <use xlink:href="#DejaVuSans-30" x="242.822266"/>
       <use xlink:href="#DejaVuSans-31" x="306.445312"/>
      </g>
     </g>
    </g>
    <g id="xtick_5">
     <g id="line2d_5">
      <g>
       <use xlink:href="#m9022fc655b" x="309.206532" y="294.768" style="stroke: #000000; stroke-width: 0.8"/>
      </g>
     </g>
     <g id="text_5">
      <!-- 0.000 -->
      <g transform="translate(292.029657 310.886125) scale(0.12 -0.12)">
       <use xlink:href="#DejaVuSans-30"/>
       <use xlink:href="#DejaVuSans-2e" x="63.623047"/>
       <use xlink:href="#DejaVuSans-30" x="95.410156"/>
       <use xlink:href="#DejaVuSans-30" x="159.033203"/>
       <use xlink:href="#DejaVuSans-30" x="222.65625"/>
      </g>
     </g>
    </g>
    <g id="xtick_6">
     <g id="line2d_6">
      <g>
       <use xlink:href="#m9022fc655b" x="365.214818" y="294.768" style="stroke: #000000; stroke-width: 0.8"/>
      </g>
     </g>
     <g id="text_6">
      <!-- 0.001 -->
      <g transform="translate(348.037943 310.886125) scale(0.12 -0.12)">
       <use xlink:href="#DejaVuSans-30"/>
       <use xlink:href="#DejaVuSans-2e" x="63.623047"/>
       <use xlink:href="#DejaVuSans-30" x="95.410156"/>
       <use xlink:href="#DejaVuSans-30" x="159.033203"/>
       <use xlink:href="#DejaVuSans-31" x="222.65625"/>
      </g>
     </g>
    </g>
    <g id="xtick_7">
     <g id="line2d_7">
      <g>
       <use xlink:href="#m9022fc655b" x="421.223104" y="294.768" style="stroke: #000000; stroke-width: 0.8"/>
      </g>
     </g>
     <g id="text_7">
      <!-- 0.002 -->
      <g transform="translate(404.046229 310.886125) scale(0.12 -0.12)">
       <use xlink:href="#DejaVuSans-30"/>
       <use xlink:href="#DejaVuSans-2e" x="63.623047"/>
       <use xlink:href="#DejaVuSans-30" x="95.410156"/>
       <use xlink:href="#DejaVuSans-30" x="159.033203"/>
       <use xlink:href="#DejaVuSans-32" x="222.65625"/>
      </g>
     </g>
    </g>
    <g id="text_8">
     <!-- Voltage [V] -->
     <g transform="translate(226.945938 328.019563) scale(0.14 -0.14)">
      <defs>
       <path id="DejaVuSans-56" d="M 1831 0 
L 50 4666 
L 709 4666 
L 2188 738 
L 3669 4666 
L 4325 4666 
L 2547 0 
L 1831 0 
z
" transform="scale(0.015625)"/>
       <path id="DejaVuSans-6f" d="M 1959 3097 
Q 1497 3097 1228 2736 
Q 959 2375 959 1747 
Q 959 1119 1226 758 
Q 1494 397 1959 397 
Q 2419 397 2687 759 
Q 2956 1122 2956 1747 
Q 2956 2369 2687 2733 
Q 2419 3097 1959 3097 
z
M 1959 3584 
Q 2709 3584 3137 3096 
Q 3566 2609 3566 1747 
Q 3566 888 3137 398 
Q 2709 -91 1959 -91 
Q 1206 -91 779 398 
Q 353 888 353 1747 
Q 353 2609 779 3096 
Q 1206 3584 1959 3584 
z
" transform="scale(0.015625)"/>
       <path id="DejaVuSans-6c" d="M 603 4863 
L 1178 4863 
L 1178 0 
L 603 0 
L 603 4863 
z
" transform="scale(0.015625)"/>
       <path id="DejaVuSans-74" d="M 1172 4494 
L 1172 3500 
L 2356 3500 
L 2356 3053 
L 1172 3053 
L 1172 1153 
Q 1172 725 1289 603 
Q 1406 481 1766 481 
L 2356 481 
L 2356 0 
L 1766 0 
Q 1100 0 847 248 
Q 594 497 594 1153 
L 594 3053 
L 172 3053 
L 172 3500 
L 594 3500 
L 594 4494 
L 1172 4494 
z
" transform="scale(0.015625)"/>
       <path id="DejaVuSans-61" d="M 2194 1759 
Q 1497 1759 1228 1600 
Q 959 1441 959 1056 
Q 959 750 1161 570 
Q 1363 391 1709 391 
Q 2188 391 2477 730 
Q 2766 1069 2766 1631 
L 2766 1759 
L 2194 1759 
z
M 3341 1997 
L 3341 0 
L 2766 0 
L 2766 531 
Q 2569 213 2275 61 
Q 1981 -91 1556 -91 
Q 1019 -91 701 211 
Q 384 513 384 1019 
Q 384 1609 779 1909 
Q 1175 2209 1959 2209 
L 2766 2209 
L 2766 2266 
Q 2766 2663 2505 2880 
Q 2244 3097 1772 3097 
Q 1472 3097 1187 3025 
Q 903 2953 641 2809 
L 641 3341 
Q 956 3463 1253 3523 
Q 1550 3584 1831 3584 
Q 2591 3584 2966 3190 
Q 3341 2797 3341 1997 
z
" transform="scale(0.015625)"/>
       <path id="DejaVuSans-67" d="M 2906 1791 
Q 2906 2416 2648 2759 
Q 2391 3103 1925 3103 
Q 1463 3103 1205 2759 
Q 947 2416 947 1791 
Q 947 1169 1205 825 
Q 1463 481 1925 481 
Q 2391 481 2648 825 
Q 2906 1169 2906 1791 
z
M 3481 434 
Q 3481 -459 3084 -895 
Q 2688 -1331 1869 -1331 
Q 1566 -1331 1297 -1286 
Q 1028 -1241 775 -1147 
L 775 -588 
Q 1028 -725 1275 -790 
Q 1522 -856 1778 -856 
Q 2344 -856 2625 -561 
Q 2906 -266 2906 331 
L 2906 616 
Q 2728 306 2450 153 
Q 2172 0 1784 0 
Q 1141 0 747 490 
Q 353 981 353 1791 
Q 353 2603 747 3093 
Q 1141 3584 1784 3584 
Q 2172 3584 2450 3431 
Q 2728 3278 2906 2969 
L 2906 3500 
L 3481 3500 
L 3481 434 
z
" transform="scale(0.015625)"/>
       <path id="DejaVuSans-65" d="M 3597 1894 
L 3597 1613 
L 953 1613 
Q 991 1019 1311 708 
Q 1631 397 2203 397 
Q 2534 397 2845 478 
Q 3156 559 3463 722 
L 3463 178 
Q 3153 47 2828 -22 
Q 2503 -91 2169 -91 
Q 1331 -91 842 396 
Q 353 884 353 1716 
Q 353 2575 817 3079 
Q 1281 3584 2069 3584 
Q 2775 3584 3186 3129 
Q 3597 2675 3597 1894 
z
M 3022 2063 
Q 3016 2534 2758 2815 
Q 2500 3097 2075 3097 
Q 1594 3097 1305 2825 
Q 1016 2553 972 2059 
L 3022 2063 
z
" transform="scale(0.015625)"/>
       <path id="DejaVuSans-20" transform="scale(0.015625)"/>
       <path id="DejaVuSans-5b" d="M 550 4863 
L 1875 4863 
L 1875 4416 
L 1125 4416 
L 1125 -397 
L 1875 -397 
L 1875 -844 
L 550 -844 
L 550 4863 
z
" transform="scale(0.015625)"/>
       <path id="DejaVuSans-5d" d="M 1947 4863 
L 1947 -844 
L 622 -844 
L 622 -397 
L 1369 -397 
L 1369 4416 
L 622 4416 
L 622 4863 
L 1947 4863 
z
" transform="scale(0.015625)"/>
      </defs>
      <use xlink:href="#DejaVuSans-56"/>
      <use xlink:href="#DejaVuSans-6f" x="60.658203"/>
      <use xlink:href="#DejaVuSans-6c" x="121.839844"/>
      <use xlink:href="#DejaVuSans-74" x="149.623047"/>
      <use xlink:href="#DejaVuSans-61" x="188.832031"/>
      <use xlink:href="#DejaVuSans-67" x="250.111328"/>
      <use xlink:href="#DejaVuSans-65" x="313.587891"/>
      <use xlink:href="#DejaVuSans-20" x="375.111328"/>
      <use xlink:href="#DejaVuSans-5b" x="406.898438"/>
      <use xlink:href="#DejaVuSans-56" x="445.912109"/>
      <use xlink:href="#DejaVuSans-5d" x="514.320312"/>
     </g>
    </g>
   </g>
   <g id="matplotlib.axis_2">
    <g id="ytick_1">
     <g id="line2d_8">
      <defs>
       <path id="m96e8f9395e" d="M 0 0 
L -3.5 0 
" style="stroke: #000000; stroke-width: 0.8"/>
      </defs>
      <g>
       <use xlink:href="#m96e8f9395e" x="64.8" y="283.176" style="stroke: #000000; stroke-width: 0.8"/>
      </g>
     </g>
     <g id="text_9">
      <!-- −2.0 -->
      <g transform="translate(28.660625 287.735062) scale(0.12 -0.12)">
       <use xlink:href="#DejaVuSans-2212"/>
       <use xlink:href="#DejaVuSans-32" x="83.789062"/>
       <use xlink:href="#DejaVuSans-2e" x="147.412109"/>
       <use xlink:href="#DejaVuSans-30" x="179.199219"/>
      </g>
     </g>
    </g>
    <g id="ytick_2">
     <g id="line2d_9">
      <g>
       <use xlink:href="#m96e8f9395e" x="64.8" y="254.196" style="stroke: #000000; stroke-width: 0.8"/>
      </g>
     </g>
     <g id="text_10">
      <!-- −1.5 -->
      <g transform="translate(28.660625 258.755063) scale(0.12 -0.12)">
       <defs>
        <path id="DejaVuSans-35" d="M 691 4666 
L 3169 4666 
L 3169 4134 
L 1269 4134 
L 1269 2991 
Q 1406 3038 1543 3061 
Q 1681 3084 1819 3084 
Q 2600 3084 3056 2656 
Q 3513 2228 3513 1497 
Q 3513 744 3044 326 
Q 2575 -91 1722 -91 
Q 1428 -91 1123 -41 
Q 819 9 494 109 
L 494 744 
Q 775 591 1075 516 
Q 1375 441 1709 441 
Q 2250 441 2565 725 
Q 2881 1009 2881 1497 
Q 2881 1984 2565 2268 
Q 2250 2553 1709 2553 
Q 1456 2553 1204 2497 
Q 953 2441 691 2322 
L 691 4666 
z
" transform="scale(0.015625)"/>
       </defs>
       <use xlink:href="#DejaVuSans-2212"/>
       <use xlink:href="#DejaVuSans-31" x="83.789062"/>
       <use xlink:href="#DejaVuSans-2e" x="147.412109"/>
       <use xlink:href="#DejaVuSans-35" x="179.199219"/>
      </g>
     </g>
    </g>
    <g id="ytick_3">
     <g id="line2d_10">
      <g>
       <use xlink:href="#m96e8f9395e" x="64.8" y="225.216" style="stroke: #000000; stroke-width: 0.8"/>
      </g>
     </g>
     <g id="text_11">
      <!-- −1.0 -->
      <g transform="translate(28.660625 229.775062) scale(0.12 -0.12)">
       <use xlink:href="#DejaVuSans-2212"/>
       <use xlink:href="#DejaVuSans-31" x="83.789062"/>
       <use xlink:href="#DejaVuSans-2e" x="147.412109"/>
       <use xlink:href="#DejaVuSans-30" x="179.199219"/>
      </g>
     </g>
    </g>
    <g id="ytick_4">
     <g id="line2d_11">
      <g>
       <use xlink:href="#m96e8f9395e" x="64.8" y="196.236" style="stroke: #000000; stroke-width: 0.8"/>
      </g>
     </g>
     <g id="text_12">
      <!-- −0.5 -->
      <g transform="translate(28.660625 200.795063) scale(0.12 -0.12)">
       <use xlink:href="#DejaVuSans-2212"/>
       <use xlink:href="#DejaVuSans-30" x="83.789062"/>
       <use xlink:href="#DejaVuSans-2e" x="147.412109"/>
       <use xlink:href="#DejaVuSans-35" x="179.199219"/>
      </g>
     </g>
    </g>
    <g id="ytick_5">
     <g id="line2d_12">
      <g>
       <use xlink:href="#m96e8f9395e" x="64.8" y="167.256" style="stroke: #000000; stroke-width: 0.8"/>
      </g>
     </g>
     <g id="text_13">
      <!-- 0.0 -->
      <g transform="translate(38.71625 171.815062) scale(0.12 -0.12)">
       <use xlink:href="#DejaVuSans-30"/>
       <use xlink:href="#DejaVuSans-2e" x="63.623047"/>
       <use xlink:href="#DejaVuSans-30" x="95.410156"/>
      </g>
     </g>
    </g>
    <g id="ytick_6">
     <g id="line2d_13">
      <g>
       <use xlink:href="#m96e8f9395e" x="64.8" y="138.276" style="stroke: #000000; stroke-width: 0.8"/>
      </g>
     </g>
     <g id="text_14">
      <!-- 0.5 -->
      <g transform="translate(38.71625 142.835062) scale(0.12 -0.12)">
       <use xlink:href="#DejaVuSans-30"/>
       <use xlink:href="#DejaVuSans-2e" x="63.623047"/>
       <use xlink:href="#DejaVuSans-35" x="95.410156"/>
      </g>
     </g>
    </g>
    <g id="ytick_7">
     <g id="line2d_14">
      <g>
       <use xlink:href="#m96e8f9395e" x="64.8" y="109.296" style="stroke: #000000; stroke-width: 0.8"/>
      </g>
     </g>
     <g id="text_15">
      <!-- 1.0 -->
      <g transform="translate(38.71625 113.855062) scale(0.12 -0.12)">
       <use xlink:href="#DejaVuSans-31"/>
       <use xlink:href="#DejaVuSans-2e" x="63.623047"/>
       <use xlink:href="#DejaVuSans-30" x="95.410156"/>
      </g>
     </g>
    </g>
    <g id="ytick_8">
     <g id="line2d_15">
      <g>
       <use xlink:href="#m96e8f9395e" x="64.8" y="80.316" style="stroke: #000000; stroke-width: 0.8"/>
      </g>
     </g>
     <g id="text_16">
      <!-- 1.5 -->
      <g transform="translate(38.71625 84.875062) scale(0.12 -0.12)">
       <use xlink:href="#DejaVuSans-31"/>
       <use xlink:href="#DejaVuSans-2e" x="63.623047"/>
       <use xlink:href="#DejaVuSans-35" x="95.410156"/>
      </g>
     </g>
    </g>
    <g id="ytick_9">
     <g id="line2d_16">
      <g>
       <use xlink:href="#m96e8f9395e" x="64.8" y="51.336" style="stroke: #000000; stroke-width: 0.8"/>
      </g>
     </g>
     <g id="text_17">
      <!-- 2.0 -->
      <g transform="translate(38.71625 55.895062) scale(0.12 -0.12)">
       <use xlink:href="#DejaVuSans-32"/>
       <use xlink:href="#DejaVuSans-2e" x="63.623047"/>
       <use xlink:href="#DejaVuSans-30" x="95.410156"/>
      </g>
     </g>
    </g>
    <g id="text_18">
     <!-- Current [mA] -->
     <g transform="translate(21.749062 212.836937) rotate(-90) scale(0.14 -0.14)">
      <defs>
       <path id="DejaVuSans-43" d="M 4122 4306 
L 4122 3641 
Q 3803 3938 3442 4084 
Q 3081 4231 2675 4231 
Q 1875 4231 1450 3742 
Q 1025 3253 1025 2328 
Q 1025 1406 1450 917 
Q 1875 428 2675 428 
Q 3081 428 3442 575 
Q 3803 722 4122 1019 
L 4122 359 
Q 3791 134 3420 21 
Q 3050 -91 2638 -91 
Q 1578 -91 968 557 
Q 359 1206 359 2328 
Q 359 3453 968 4101 
Q 1578 4750 2638 4750 
Q 3056 4750 3426 4639 
Q 3797 4528 4122 4306 
z
" transform="scale(0.015625)"/>
       <path id="DejaVuSans-75" d="M 544 1381 
L 544 3500 
L 1119 3500 
L 1119 1403 
Q 1119 906 1312 657 
Q 1506 409 1894 409 
Q 2359 409 2629 706 
Q 2900 1003 2900 1516 
L 2900 3500 
L 3475 3500 
L 3475 0 
L 2900 0 
L 2900 538 
Q 2691 219 2414 64 
Q 2138 -91 1772 -91 
Q 1169 -91 856 284 
Q 544 659 544 1381 
z
M 1991 3584 
L 1991 3584 
z
" transform="scale(0.015625)"/>
       <path id="DejaVuSans-72" d="M 2631 2963 
Q 2534 3019 2420 3045 
Q 2306 3072 2169 3072 
Q 1681 3072 1420 2755 
Q 1159 2438 1159 1844 
L 1159 0 
L 581 0 
L 581 3500 
L 1159 3500 
L 1159 2956 
Q 1341 3275 1631 3429 
Q 1922 3584 2338 3584 
Q 2397 3584 2469 3576 
Q 2541 3569 2628 3553 
L 2631 2963 
z
" transform="scale(0.015625)"/>
       <path id="DejaVuSans-6e" d="M 3513 2113 
L 3513 0 
L 2938 0 
L 2938 2094 
Q 2938 2591 2744 2837 
Q 2550 3084 2163 3084 
Q 1697 3084 1428 2787 
Q 1159 2491 1159 1978 
L 1159 0 
L 581 0 
L 581 3500 
L 1159 3500 
L 1159 2956 
Q 1366 3272 1645 3428 
Q 1925 3584 2291 3584 
Q 2894 3584 3203 3211 
Q 3513 2838 3513 2113 
z
" transform="scale(0.015625)"/>
       <path id="DejaVuSans-6d" d="M 3328 2828 
Q 3544 3216 3844 3400 
Q 4144 3584 4550 3584 
Q 5097 3584 5394 3201 
Q 5691 2819 5691 2113 
L 5691 0 
L 5113 0 
L 5113 2094 
Q 5113 2597 4934 2840 
Q 4756 3084 4391 3084 
Q 3944 3084 3684 2787 
Q 3425 2491 3425 1978 
L 3425 0 
L 2847 0 
L 2847 2094 
Q 2847 2600 2669 2842 
Q 2491 3084 2119 3084 
Q 1678 3084 1418 2786 
Q 1159 2488 1159 1978 
L 1159 0 
L 581 0 
L 581 3500 
L 1159 3500 
L 1159 2956 
Q 1356 3278 1631 3431 
Q 1906 3584 2284 3584 
Q 2666 3584 2933 3390 
Q 3200 3197 3328 2828 
z
" transform="scale(0.015625)"/>
       <path id="DejaVuSans-41" d="M 2188 4044 
L 1331 1722 
L 3047 1722 
L 2188 4044 
z
M 1831 4666 
L 2547 4666 
L 4325 0 
L 3669 0 
L 3244 1197 
L 1141 1197 
L 716 0 
L 50 0 
L 1831 4666 
z
" transform="scale(0.015625)"/>
      </defs>
      <use xlink:href="#DejaVuSans-43"/>
      <use xlink:href="#DejaVuSans-75" x="69.824219"/>
      <use xlink:href="#DejaVuSans-72" x="133.203125"/>
      <use xlink:href="#DejaVuSans-72" x="172.566406"/>
      <use xlink:href="#DejaVuSans-65" x="211.429688"/>
      <use xlink:href="#DejaVuSans-6e" x="272.953125"/>
      <use xlink:href="#DejaVuSans-74" x="336.332031"/>
      <use xlink:href="#DejaVuSans-20" x="375.541016"/>
      <use xlink:href="#DejaVuSans-5b" x="407.328125"/>
      <use xlink:href="#DejaVuSans-6d" x="446.341797"/>
      <use xlink:href="#DejaVuSans-41" x="543.753906"/>
      <use xlink:href="#DejaVuSans-5d" x="612.162109"/>
     </g>
    </g>
   </g>
   <g id="line2d_17">
    <path d="M 303.595067 167.256 
L 302.799973 166.0968 
L 302.970339 164.9376 
L 304.106126 163.7784 
L 304.6741 162.6192 
L 304.901228 161.46 
L 308.195059 159.1416 
L 313.079133 156.8232 
L 315.010021 155.664 
L 318.19025 153.3456 
L 321.143443 152.1864 
L 309.387647 151.0272 
L 302.288892 149.868 
L 301.323421 148.7088 
L 301.096291 147.5496 
L 300.130814 146.3904 
L 299.733279 145.2312 
L 298.086327 144.072 
L 298.65424 142.9128 
L 297.859208 141.7536 
L 295.189971 140.5944 
L 295.473961 139.4352 
L 294.224589 138.276 
L 293.599856 137.1168 
L 293.372715 135.9576 
L 291.839325 134.7984 
L 292.066501 133.6392 
L 291.441829 132.48 
L 289.510904 131.3208 
L 289.794877 130.1616 
L 289.681304 129.0024 
L 290.589949 127.8432 
L 292.57761 126.684 
L 293.713402 125.5248 
L 298.540694 124.3656 
L 299.051748 123.2064 
L 301.891306 122.0472 
L 308.649424 118.5696 
L 310.921073 117.4104 
L 316.20265 115.092 
L 317.395223 113.9328 
L 320.234798 112.7736 
L 322.563203 111.6144 
L 325.289255 110.4552 
L 328.526293 109.296 
L 329.94603 108.1368 
L 331.876888 106.9776 
L 336.7609 104.6592 
L 338.918967 103.5 
L 342.667125 102.3408 
L 343.689394 101.1816 
L 346.699436 100.0224 
L 349.084527 98.8632 
L 352.946348 96.5448 
L 356.126706 95.3856 
L 358.398161 94.2264 
L 362.94152 93.0672 
L 361.91919 91.908 
L 365.383515 90.7488 
L 368.166511 89.5896 
L 371.971097 87.2712 
L 377.423168 84.9528 
L 381.171467 83.7936 
L 382.420843 82.6344 
L 387.077484 80.316 
L 389.974121 79.1568 
L 392.415914 77.9976 
L 394.290063 76.8384 
L 399.912231 74.52 
L 401.672796 73.3608 
L 404.569208 72.2016 
L 405.761681 71.0424 
L 408.998736 69.8832 
L 411.55445 68.724 
L 413.769297 67.5648 
L 416.552293 66.4056 
L 418.823709 65.2464 
L 420.413616 64.0872 
L 423.934969 62.928 
L 425.922535 61.7688 
L 431.544759 59.4504 
L 433.589286 58.2912 
L 436.76966 57.132 
L 438.927603 55.9728 
L 440.063396 54.8136 
L 445.856165 52.4952 
L 448.298182 51.336 
L 446.083278 52.4952 
L 444.37945 53.6544 
L 440.915226 54.8136 
L 438.813963 55.9728 
L 435.917494 57.132 
L 431.601664 59.4504 
L 428.535098 60.6096 
L 426.660893 61.7688 
L 424.048386 62.928 
L 421.947179 64.0872 
L 418.937406 65.2464 
L 416.608805 66.4056 
L 415.472901 67.5648 
L 410.24828 69.8832 
L 407.181659 71.0424 
L 404.682737 72.2016 
L 401.899965 73.3608 
L 399.457892 74.52 
L 397.640647 75.6792 
L 394.573913 76.8384 
L 392.813405 77.9976 
L 388.043067 80.316 
L 384.919541 81.4752 
L 382.931863 82.6344 
L 381.62575 83.7936 
L 377.025621 84.9528 
L 375.321793 86.112 
L 373.334171 87.2712 
L 370.551511 88.4304 
L 368.279703 89.5896 
L 366.97359 90.7488 
L 363.906996 91.908 
L 361.748964 93.0672 
L 358.966102 94.2264 
L 356.694524 95.3856 
L 353.57097 96.5448 
L 351.64019 97.704 
L 348.402934 98.8632 
L 346.699285 100.0224 
L 344.427639 101.1816 
L 341.815284 102.3408 
L 339.770797 103.5 
L 338.01026 104.6592 
L 332.444773 106.9776 
L 330.002767 108.1368 
L 328.299034 109.296 
L 323.812591 111.6144 
L 320.859436 112.7736 
L 318.360655 113.9328 
L 316.600135 115.092 
L 313.703819 116.2512 
L 311.261797 117.4104 
L 307.286447 119.7288 
L 304.560469 120.888 
L 302.175263 122.0472 
L 300.641918 123.2064 
L 297.234458 124.3656 
L 295.47395 125.5248 
L 292.009675 126.684 
L 291.271413 127.8432 
L 288.204701 129.0024 
L 289.794855 130.1616 
L 290.760309 131.3208 
L 290.192368 132.48 
L 291.668965 133.6392 
L 291.952899 134.7984 
L 293.429485 135.9576 
L 294.110965 137.1168 
L 293.88379 138.276 
L 295.133206 139.4352 
L 295.701108 140.5944 
L 296.780141 141.7536 
L 296.609725 144.072 
L 300.301186 147.5496 
L 301.436978 149.868 
L 302.516006 151.0272 
L 303.765416 152.1864 
L 304.162973 153.3456 
L 305.071602 154.5048 
L 305.582709 155.664 
L 306.945693 156.8232 
L 308.422282 159.1416 
L 308.479038 160.3008 
L 307.627207 161.46 
L 305.98026 162.6192 
L 304.617256 163.7784 
L 304.901287 164.9376 
L 304.674048 166.0968 
L 303.254324 168.4152 
L 304.503678 169.5744 
L 304.560443 170.7336 
L 302.97039 171.8928 
L 302.629579 173.052 
L 301.209809 174.2112 
L 300.073994 175.3704 
L 298.313469 176.5296 
L 294.054145 178.848 
L 292.464019 180.0072 
L 290.022025 181.1664 
L 288.545489 182.3256 
L 286.61457 183.4848 
L 283.491072 184.644 
L 280.367585 186.9624 
L 274.5749 189.2808 
L 273.439097 190.44 
L 270.940298 191.5992 
L 268.100757 192.7584 
L 261.910379 196.236 
L 258.673044 197.3952 
L 257.480336 198.5544 
L 255.549294 199.7136 
L 245.666867 204.3504 
L 244.587755 205.5096 
L 241.861608 206.6688 
L 238.567481 207.828 
L 236.352465 208.9872 
L 234.591789 210.1464 
L 229.593833 212.4648 
L 227.833157 213.624 
L 224.879784 214.7832 
L 222.948674 215.9424 
L 220.62013 217.1016 
L 218.689076 218.2608 
L 216.246891 219.42 
L 213.293518 220.5792 
L 212.157614 221.7384 
L 209.317769 222.8976 
L 206.989225 224.0568 
L 204.376662 225.216 
L 203.183966 226.3752 
L 200.06016 227.5344 
L 197.561182 228.6936 
L 194.607865 229.8528 
L 192.619963 231.012 
L 190.23457 232.1712 
L 188.587478 233.3304 
L 185.009389 234.4896 
L 183.646315 235.6488 
L 180.579246 236.808 
L 178.591568 237.9672 
L 175.638251 239.1264 
L 173.479971 240.2856 
L 170.753824 241.4448 
L 168.822714 242.604 
L 167.232415 243.7632 
L 163.086402 244.9224 
L 161.609743 246.0816 
L 158.485937 247.2408 
L 150.932211 250.7184 
L 148.773988 251.8776 
L 147.013368 253.0368 
L 144.173579 254.196 
L 142.810394 255.3552 
L 138.664492 256.5144 
L 136.960328 257.6736 
L 130.031543 261.1512 
L 127.021266 262.3104 
L 125.317438 263.4696 
L 119.240483 265.788 
L 117.650183 266.9472 
L 114.980772 268.1064 
L 112.879398 269.2656 
L 107.370031 271.584 
L 105.666258 272.7432 
L 100.100267 275.0616 
L 97.828627 276.2208 
L 95.045519 277.38 
L 93.057673 278.5392 
L 87.775756 280.8576 
L 86.469362 282.0168 
L 83.061818 283.176 
L 88.116454 280.8576 
L 90.274677 279.6984 
L 95.15916 277.38 
L 96.522402 276.2208 
L 99.418646 275.0616 
L 102.769734 273.9024 
L 106.802219 271.584 
L 109.982705 270.4248 
L 111.686701 269.2656 
L 114.469473 268.1064 
L 116.060108 266.9472 
L 121.852989 264.6288 
L 123.954588 263.4696 
L 126.851001 262.3104 
L 131.337824 259.992 
L 133.268822 258.8328 
L 136.847024 257.6736 
L 141.333791 255.3552 
L 143.946186 254.196 
L 146.274898 253.0368 
L 148.035687 251.8776 
L 151.273022 250.7184 
L 153.999169 249.5592 
L 155.986959 248.4 
L 158.202031 247.2408 
L 163.540741 244.9224 
L 166.550906 243.7632 
L 166.778244 242.604 
L 170.46975 241.4448 
L 173.479971 240.2856 
L 175.52461 239.1264 
L 177.966627 237.9672 
L 183.987126 235.6488 
L 185.066237 234.4896 
L 188.133195 233.3304 
L 188.530854 232.1712 
L 195.175845 229.8528 
L 196.027787 228.6936 
L 201.7641 226.3752 
L 203.808682 225.216 
L 205.285453 224.0568 
L 208.409147 222.8976 
L 210.567314 221.7384 
L 213.35031 220.5792 
L 215.622118 219.42 
L 218.916301 218.2608 
L 219.938565 217.1016 
L 222.891938 215.9424 
L 225.163746 214.7832 
L 226.86763 213.624 
L 231.524831 211.3056 
L 234.307827 210.1464 
L 236.750068 208.9872 
L 238.79465 207.828 
L 241.691231 206.6688 
L 243.338267 205.5096 
L 245.439698 204.3504 
L 250.324124 202.032 
L 253.391076 200.8728 
L 254.697369 199.7136 
L 257.480342 198.5544 
L 260.604087 197.3952 
L 261.910379 196.236 
L 265.431586 193.9176 
L 267.873593 192.7584 
L 271.281036 191.5992 
L 272.700807 190.44 
L 275.710731 189.2808 
L 277.414453 188.1216 
L 279.402125 186.9624 
L 282.071295 185.8032 
L 283.945383 184.644 
L 288.431865 182.3256 
L 291.157839 181.1664 
L 292.236844 180.0072 
L 293.940599 178.848 
L 298.199862 176.5296 
L 299.222108 175.3704 
L 300.869043 174.2112 
L 301.834475 173.052 
L 303.027093 171.8928 
L 302.856743 170.7336 
L 303.027109 169.5744 
L 302.743103 168.4152 
L 302.743103 168.4152 
" clip-path="url(#p9c7274a78c)" style="fill: none; stroke: #000000; stroke-width: 1.5; stroke-linecap: square"/>
   </g>
   <g id="patch_3">
    <path d="M 64.8 294.768 
L 64.8 39.744 
" style="fill: none; stroke: #000000; stroke-width: 0.8; stroke-linejoin: miter; stroke-linecap: square"/>
   </g>
   <g id="patch_4">
    <path d="M 466.56 294.768 
L 466.56 39.744 
" style="fill: none; stroke: #000000; stroke-width: 0.8; stroke-linejoin: miter; stroke-linecap: square"/>
   </g>
   <g id="patch_5">
    <path d="M 64.8 294.768 
L 466.56 294.768 
" style="fill: none; stroke: #000000; stroke-width: 0.8; stroke-linejoin: miter; stroke-linecap: square"/>
   </g>
   <g id="patch_6">
    <path d="M 64.8 39.744 
L 466.56 39.744 
" style="fill: none; stroke: #000000; stroke-width: 0.8; stroke-linejoin: miter; stroke-linecap: square"/>
   </g>
   <g id="legend_1">
    <g id="patch_7">
     <path d="M 73.2 66.95775 
L 157.6125 66.95775 
Q 160.0125 66.95775 160.0125 64.55775 
L 160.0125 48.144 
Q 160.0125 45.744 157.6125 45.744 
L 73.2 45.744 
Q 70.8 45.744 70.8 48.144 
L 70.8 64.55775 
Q 70.8 66.95775 73.2 66.95775 
z
" style="fill: #ffffff; opacity: 0.8; stroke: #cccccc; stroke-linejoin: miter"/>
    </g>
    <g id="line2d_18">
     <path d="M 75.6 55.462125 
L 87.6 55.462125 
L 99.6 55.462125 
" style="fill: none; stroke: #000000; stroke-width: 1.5; stroke-linecap: square"/>
    </g>
    <g id="text_19">
     <!-- 100 um -->
     <g transform="translate(109.2 59.662125) scale(0.12 -0.12)">
      <use xlink:href="#DejaVuSans-31"/>
      <use xlink:href="#DejaVuSans-30" x="63.623047"/>
      <use xlink:href="#DejaVuSans-30" x="127.246094"/>
      <use xlink:href="#DejaVuSans-20" x="190.869141"/>
      <use xlink:href="#DejaVuSans-75" x="222.65625"/>
      <use xlink:href="#DejaVuSans-6d" x="286.035156"/>
     </g>
    </g>
   </g>
  </g>
 </g>
 <defs>
  <clipPath id="p9c7274a78c">
   <rect x="64.8" y="39.744" width="401.76" height="255.024"/>
  </clipPath>
 </defs>
</svg>
