<?xml version="1.0" encoding="utf-8" standalone="no"?>
<!DOCTYPE svg PUBLIC "-//W3C//DTD SVG 1.1//EN"
  "http://www.w3.org/Graphics/SVG/1.1/DTD/svg11.dtd">
<svg xmlns:xlink="http://www.w3.org/1999/xlink" width="518.4pt" height="331.2pt" viewBox="0 0 518.4 331.2" xmlns="http://www.w3.org/2000/svg" version="1.1">
 <metadata>
  <rdf:RDF xmlns:dc="http://purl.org/dc/elements/1.1/" xmlns:cc="http://creativecommons.org/ns#" xmlns:rdf="http://www.w3.org/1999/02/22-rdf-syntax-ns#">
   <cc:Work>
    <dc:type rdf:resource="http://purl.org/dc/dcmitype/StillImage"/>
    <dc:date>2023-02-14T13:55:58.943786</dc:date>
    <dc:format>image/svg+xml</dc:format>
    <dc:creator>
     <cc:Agent>
      <dc:title>Matplotlib v3.6.3, https://matplotlib.org/</dc:title>
     </cc:Agent>
    </dc:creator>
   </cc:Work>
  </rdf:RDF>
 </metadata>
 <defs>
  <style type="text/css">*{stroke-linejoin: round; stroke-linecap: butt}</style>
 </defs>
 <g id="figure_1">
  <g id="patch_1">
   <path d="M 0 331.2 
L 518.4 331.2 
L 518.4 0 
L 0 0 
z
" style="fill: #ffffff"/>
  </g>
  <g id="axes_1">
   <g id="patch_2">
    <path d="M 64.8 294.768 
L 466.56 294.768 
L 466.56 39.744 
L 64.8 39.744 
z
" style="fill: #ffffff"/>
   </g>
   <g id="matplotlib.axis_1">
    <g id="xtick_1">
     <g id="line2d_1">
      <defs>
       <path id="ma21aa337f8" d="M 0 0 
L 0 3.5 
" style="stroke: #000000; stroke-width: 0.8"/>
      </defs>
      <g>
       <use xlink:href="#ma21aa337f8" x="111.139728" y="294.768" style="stroke: #000000; stroke-width: 0.8"/>
      </g>
     </g>
     <g id="text_1">
      <!-- 400 -->
      <g transform="translate(99.687228 310.886125) scale(0.12 -0.12)">
       <defs>
        <path id="DejaVuSans-34" d="M 2419 4116 
L 825 1625 
L 2419 1625 
L 2419 4116 
z
M 2253 4666 
L 3047 4666 
L 3047 1625 
L 3713 1625 
L 3713 1100 
L 3047 1100 
L 3047 0 
L 2419 0 
L 2419 1100 
L 313 1100 
L 313 1709 
L 2253 4666 
z
" transform="scale(0.015625)"/>
        <path id="DejaVuSans-30" d="M 2034 4250 
Q 1547 4250 1301 3770 
Q 1056 3291 1056 2328 
Q 1056 1369 1301 889 
Q 1547 409 2034 409 
Q 2525 409 2770 889 
Q 3016 1369 3016 2328 
Q 3016 3291 2770 3770 
Q 2525 4250 2034 4250 
z
M 2034 4750 
Q 2819 4750 3233 4129 
Q 3647 3509 3647 2328 
Q 3647 1150 3233 529 
Q 2819 -91 2034 -91 
Q 1250 -91 836 529 
Q 422 1150 422 2328 
Q 422 3509 836 4129 
Q 1250 4750 2034 4750 
z
" transform="scale(0.015625)"/>
       </defs>
       <use xlink:href="#DejaVuSans-34"/>
       <use xlink:href="#DejaVuSans-30" x="63.623047"/>
       <use xlink:href="#DejaVuSans-30" x="127.246094"/>
      </g>
     </g>
    </g>
    <g id="xtick_2">
     <g id="line2d_2">
      <g>
       <use xlink:href="#ma21aa337f8" x="167.37238" y="294.768" style="stroke: #000000; stroke-width: 0.8"/>
      </g>
     </g>
     <g id="text_2">
      <!-- 600 -->
      <g transform="translate(155.91988 310.886125) scale(0.12 -0.12)">
       <defs>
        <path id="DejaVuSans-36" d="M 2113 2584 
Q 1688 2584 1439 2293 
Q 1191 2003 1191 1497 
Q 1191 994 1439 701 
Q 1688 409 2113 409 
Q 2538 409 2786 701 
Q 3034 994 3034 1497 
Q 3034 2003 2786 2293 
Q 2538 2584 2113 2584 
z
M 3366 4563 
L 3366 3988 
Q 3128 4100 2886 4159 
Q 2644 4219 2406 4219 
Q 1781 4219 1451 3797 
Q 1122 3375 1075 2522 
Q 1259 2794 1537 2939 
Q 1816 3084 2150 3084 
Q 2853 3084 3261 2657 
Q 3669 2231 3669 1497 
Q 3669 778 3244 343 
Q 2819 -91 2113 -91 
Q 1303 -91 875 529 
Q 447 1150 447 2328 
Q 447 3434 972 4092 
Q 1497 4750 2381 4750 
Q 2619 4750 2861 4703 
Q 3103 4656 3366 4563 
z
" transform="scale(0.015625)"/>
       </defs>
       <use xlink:href="#DejaVuSans-36"/>
       <use xlink:href="#DejaVuSans-30" x="63.623047"/>
       <use xlink:href="#DejaVuSans-30" x="127.246094"/>
      </g>
     </g>
    </g>
    <g id="xtick_3">
     <g id="line2d_3">
      <g>
       <use xlink:href="#ma21aa337f8" x="223.605032" y="294.768" style="stroke: #000000; stroke-width: 0.8"/>
      </g>
     </g>
     <g id="text_3">
      <!-- 800 -->
      <g transform="translate(212.152532 310.886125) scale(0.12 -0.12)">
       <defs>
        <path id="DejaVuSans-38" d="M 2034 2216 
Q 1584 2216 1326 1975 
Q 1069 1734 1069 1313 
Q 1069 891 1326 650 
Q 1584 409 2034 409 
Q 2484 409 2743 651 
Q 3003 894 3003 1313 
Q 3003 1734 2745 1975 
Q 2488 2216 2034 2216 
z
M 1403 2484 
Q 997 2584 770 2862 
Q 544 3141 544 3541 
Q 544 4100 942 4425 
Q 1341 4750 2034 4750 
Q 2731 4750 3128 4425 
Q 3525 4100 3525 3541 
Q 3525 3141 3298 2862 
Q 3072 2584 2669 2484 
Q 3125 2378 3379 2068 
Q 3634 1759 3634 1313 
Q 3634 634 3220 271 
Q 2806 -91 2034 -91 
Q 1263 -91 848 271 
Q 434 634 434 1313 
Q 434 1759 690 2068 
Q 947 2378 1403 2484 
z
M 1172 3481 
Q 1172 3119 1398 2916 
Q 1625 2713 2034 2713 
Q 2441 2713 2670 2916 
Q 2900 3119 2900 3481 
Q 2900 3844 2670 4047 
Q 2441 4250 2034 4250 
Q 1625 4250 1398 4047 
Q 1172 3844 1172 3481 
z
" transform="scale(0.015625)"/>
       </defs>
       <use xlink:href="#DejaVuSans-38"/>
       <use xlink:href="#DejaVuSans-30" x="63.623047"/>
       <use xlink:href="#DejaVuSans-30" x="127.246094"/>
      </g>
     </g>
    </g>
    <g id="xtick_4">
     <g id="line2d_4">
      <g>
       <use xlink:href="#ma21aa337f8" x="279.837684" y="294.768" style="stroke: #000000; stroke-width: 0.8"/>
      </g>
     </g>
     <g id="text_4">
      <!-- 1000 -->
      <g transform="translate(264.567684 310.886125) scale(0.12 -0.12)">
       <defs>
        <path id="DejaVuSans-31" d="M 794 531 
L 1825 531 
L 1825 4091 
L 703 3866 
L 703 4441 
L 1819 4666 
L 2450 4666 
L 2450 531 
L 3481 531 
L 3481 0 
L 794 0 
L 794 531 
z
" transform="scale(0.015625)"/>
       </defs>
       <use xlink:href="#DejaVuSans-31"/>
       <use xlink:href="#DejaVuSans-30" x="63.623047"/>
       <use xlink:href="#DejaVuSans-30" x="127.246094"/>
       <use xlink:href="#DejaVuSans-30" x="190.869141"/>
      </g>
     </g>
    </g>
    <g id="xtick_5">
     <g id="line2d_5">
      <g>
       <use xlink:href="#ma21aa337f8" x="336.070335" y="294.768" style="stroke: #000000; stroke-width: 0.8"/>
      </g>
     </g>
     <g id="text_5">
      <!-- 1200 -->
      <g transform="translate(320.800335 310.886125) scale(0.12 -0.12)">
       <defs>
        <path id="DejaVuSans-32" d="M 1228 531 
L 3431 531 
L 3431 0 
L 469 0 
L 469 531 
Q 828 903 1448 1529 
Q 2069 2156 2228 2338 
Q 2531 2678 2651 2914 
Q 2772 3150 2772 3378 
Q 2772 3750 2511 3984 
Q 2250 4219 1831 4219 
Q 1534 4219 1204 4116 
Q 875 4013 500 3803 
L 500 4441 
Q 881 4594 1212 4672 
Q 1544 4750 1819 4750 
Q 2544 4750 2975 4387 
Q 3406 4025 3406 3419 
Q 3406 3131 3298 2873 
Q 3191 2616 2906 2266 
Q 2828 2175 2409 1742 
Q 1991 1309 1228 531 
z
" transform="scale(0.015625)"/>
       </defs>
       <use xlink:href="#DejaVuSans-31"/>
       <use xlink:href="#DejaVuSans-32" x="63.623047"/>
       <use xlink:href="#DejaVuSans-30" x="127.246094"/>
       <use xlink:href="#DejaVuSans-30" x="190.869141"/>
      </g>
     </g>
    </g>
    <g id="xtick_6">
     <g id="line2d_6">
      <g>
       <use xlink:href="#ma21aa337f8" x="392.302987" y="294.768" style="stroke: #000000; stroke-width: 0.8"/>
      </g>
     </g>
     <g id="text_6">
      <!-- 1400 -->
      <g transform="translate(377.032987 310.886125) scale(0.12 -0.12)">
       <use xlink:href="#DejaVuSans-31"/>
       <use xlink:href="#DejaVuSans-34" x="63.623047"/>
       <use xlink:href="#DejaVuSans-30" x="127.246094"/>
       <use xlink:href="#DejaVuSans-30" x="190.869141"/>
      </g>
     </g>
    </g>
    <g id="xtick_7">
     <g id="line2d_7">
      <g>
       <use xlink:href="#ma21aa337f8" x="448.535639" y="294.768" style="stroke: #000000; stroke-width: 0.8"/>
      </g>
     </g>
     <g id="text_7">
      <!-- 1600 -->
      <g transform="translate(433.265639 310.886125) scale(0.12 -0.12)">
       <use xlink:href="#DejaVuSans-31"/>
       <use xlink:href="#DejaVuSans-36" x="63.623047"/>
       <use xlink:href="#DejaVuSans-30" x="127.246094"/>
       <use xlink:href="#DejaVuSans-30" x="190.869141"/>
      </g>
     </g>
    </g>
    <g id="text_8">
     <!-- Wavelengths [nm] -->
     <g transform="translate(201.564375 328.019563) scale(0.14 -0.14)">
      <defs>
       <path id="DejaVuSans-57" d="M 213 4666 
L 850 4666 
L 1831 722 
L 2809 4666 
L 3519 4666 
L 4500 722 
L 5478 4666 
L 6119 4666 
L 4947 0 
L 4153 0 
L 3169 4050 
L 2175 0 
L 1381 0 
L 213 4666 
z
" transform="scale(0.015625)"/>
       <path id="DejaVuSans-61" d="M 2194 1759 
Q 1497 1759 1228 1600 
Q 959 1441 959 1056 
Q 959 750 1161 570 
Q 1363 391 1709 391 
Q 2188 391 2477 730 
Q 2766 1069 2766 1631 
L 2766 1759 
L 2194 1759 
z
M 3341 1997 
L 3341 0 
L 2766 0 
L 2766 531 
Q 2569 213 2275 61 
Q 1981 -91 1556 -91 
Q 1019 -91 701 211 
Q 384 513 384 1019 
Q 384 1609 779 1909 
Q 1175 2209 1959 2209 
L 2766 2209 
L 2766 2266 
Q 2766 2663 2505 2880 
Q 2244 3097 1772 3097 
Q 1472 3097 1187 3025 
Q 903 2953 641 2809 
L 641 3341 
Q 956 3463 1253 3523 
Q 1550 3584 1831 3584 
Q 2591 3584 2966 3190 
Q 3341 2797 3341 1997 
z
" transform="scale(0.015625)"/>
       <path id="DejaVuSans-76" d="M 191 3500 
L 800 3500 
L 1894 563 
L 2988 3500 
L 3597 3500 
L 2284 0 
L 1503 0 
L 191 3500 
z
" transform="scale(0.015625)"/>
       <path id="DejaVuSans-65" d="M 3597 1894 
L 3597 1613 
L 953 1613 
Q 991 1019 1311 708 
Q 1631 397 2203 397 
Q 2534 397 2845 478 
Q 3156 559 3463 722 
L 3463 178 
Q 3153 47 2828 -22 
Q 2503 -91 2169 -91 
Q 1331 -91 842 396 
Q 353 884 353 1716 
Q 353 2575 817 3079 
Q 1281 3584 2069 3584 
Q 2775 3584 3186 3129 
Q 3597 2675 3597 1894 
z
M 3022 2063 
Q 3016 2534 2758 2815 
Q 2500 3097 2075 3097 
Q 1594 3097 1305 2825 
Q 1016 2553 972 2059 
L 3022 2063 
z
" transform="scale(0.015625)"/>
       <path id="DejaVuSans-6c" d="M 603 4863 
L 1178 4863 
L 1178 0 
L 603 0 
L 603 4863 
z
" transform="scale(0.015625)"/>
       <path id="DejaVuSans-6e" d="M 3513 2113 
L 3513 0 
L 2938 0 
L 2938 2094 
Q 2938 2591 2744 2837 
Q 2550 3084 2163 3084 
Q 1697 3084 1428 2787 
Q 1159 2491 1159 1978 
L 1159 0 
L 581 0 
L 581 3500 
L 1159 3500 
L 1159 2956 
Q 1366 3272 1645 3428 
Q 1925 3584 2291 3584 
Q 2894 3584 3203 3211 
Q 3513 2838 3513 2113 
z
" transform="scale(0.015625)"/>
       <path id="DejaVuSans-67" d="M 2906 1791 
Q 2906 2416 2648 2759 
Q 2391 3103 1925 3103 
Q 1463 3103 1205 2759 
Q 947 2416 947 1791 
Q 947 1169 1205 825 
Q 1463 481 1925 481 
Q 2391 481 2648 825 
Q 2906 1169 2906 1791 
z
M 3481 434 
Q 3481 -459 3084 -895 
Q 2688 -1331 1869 -1331 
Q 1566 -1331 1297 -1286 
Q 1028 -1241 775 -1147 
L 775 -588 
Q 1028 -725 1275 -790 
Q 1522 -856 1778 -856 
Q 2344 -856 2625 -561 
Q 2906 -266 2906 331 
L 2906 616 
Q 2728 306 2450 153 
Q 2172 0 1784 0 
Q 1141 0 747 490 
Q 353 981 353 1791 
Q 353 2603 747 3093 
Q 1141 3584 1784 3584 
Q 2172 3584 2450 3431 
Q 2728 3278 2906 2969 
L 2906 3500 
L 3481 3500 
L 3481 434 
z
" transform="scale(0.015625)"/>
       <path id="DejaVuSans-74" d="M 1172 4494 
L 1172 3500 
L 2356 3500 
L 2356 3053 
L 1172 3053 
L 1172 1153 
Q 1172 725 1289 603 
Q 1406 481 1766 481 
L 2356 481 
L 2356 0 
L 1766 0 
Q 1100 0 847 248 
Q 594 497 594 1153 
L 594 3053 
L 172 3053 
L 172 3500 
L 594 3500 
L 594 4494 
L 1172 4494 
z
" transform="scale(0.015625)"/>
       <path id="DejaVuSans-68" d="M 3513 2113 
L 3513 0 
L 2938 0 
L 2938 2094 
Q 2938 2591 2744 2837 
Q 2550 3084 2163 3084 
Q 1697 3084 1428 2787 
Q 1159 2491 1159 1978 
L 1159 0 
L 581 0 
L 581 4863 
L 1159 4863 
L 1159 2956 
Q 1366 3272 1645 3428 
Q 1925 3584 2291 3584 
Q 2894 3584 3203 3211 
Q 3513 2838 3513 2113 
z
" transform="scale(0.015625)"/>
       <path id="DejaVuSans-73" d="M 2834 3397 
L 2834 2853 
Q 2591 2978 2328 3040 
Q 2066 3103 1784 3103 
Q 1356 3103 1142 2972 
Q 928 2841 928 2578 
Q 928 2378 1081 2264 
Q 1234 2150 1697 2047 
L 1894 2003 
Q 2506 1872 2764 1633 
Q 3022 1394 3022 966 
Q 3022 478 2636 193 
Q 2250 -91 1575 -91 
Q 1294 -91 989 -36 
Q 684 19 347 128 
L 347 722 
Q 666 556 975 473 
Q 1284 391 1588 391 
Q 1994 391 2212 530 
Q 2431 669 2431 922 
Q 2431 1156 2273 1281 
Q 2116 1406 1581 1522 
L 1381 1569 
Q 847 1681 609 1914 
Q 372 2147 372 2553 
Q 372 3047 722 3315 
Q 1072 3584 1716 3584 
Q 2034 3584 2315 3537 
Q 2597 3491 2834 3397 
z
" transform="scale(0.015625)"/>
       <path id="DejaVuSans-20" transform="scale(0.015625)"/>
       <path id="DejaVuSans-5b" d="M 550 4863 
L 1875 4863 
L 1875 4416 
L 1125 4416 
L 1125 -397 
L 1875 -397 
L 1875 -844 
L 550 -844 
L 550 4863 
z
" transform="scale(0.015625)"/>
       <path id="DejaVuSans-6d" d="M 3328 2828 
Q 3544 3216 3844 3400 
Q 4144 3584 4550 3584 
Q 5097 3584 5394 3201 
Q 5691 2819 5691 2113 
L 5691 0 
L 5113 0 
L 5113 2094 
Q 5113 2597 4934 2840 
Q 4756 3084 4391 3084 
Q 3944 3084 3684 2787 
Q 3425 2491 3425 1978 
L 3425 0 
L 2847 0 
L 2847 2094 
Q 2847 2600 2669 2842 
Q 2491 3084 2119 3084 
Q 1678 3084 1418 2786 
Q 1159 2488 1159 1978 
L 1159 0 
L 581 0 
L 581 3500 
L 1159 3500 
L 1159 2956 
Q 1356 3278 1631 3431 
Q 1906 3584 2284 3584 
Q 2666 3584 2933 3390 
Q 3200 3197 3328 2828 
z
" transform="scale(0.015625)"/>
       <path id="DejaVuSans-5d" d="M 1947 4863 
L 1947 -844 
L 622 -844 
L 622 -397 
L 1369 -397 
L 1369 4416 
L 622 4416 
L 622 4863 
L 1947 4863 
z
" transform="scale(0.015625)"/>
      </defs>
      <use xlink:href="#DejaVuSans-57"/>
      <use xlink:href="#DejaVuSans-61" x="92.501953"/>
      <use xlink:href="#DejaVuSans-76" x="153.78125"/>
      <use xlink:href="#DejaVuSans-65" x="212.960938"/>
      <use xlink:href="#DejaVuSans-6c" x="274.484375"/>
      <use xlink:href="#DejaVuSans-65" x="302.267578"/>
      <use xlink:href="#DejaVuSans-6e" x="363.791016"/>
      <use xlink:href="#DejaVuSans-67" x="427.169922"/>
      <use xlink:href="#DejaVuSans-74" x="490.646484"/>
      <use xlink:href="#DejaVuSans-68" x="529.855469"/>
      <use xlink:href="#DejaVuSans-73" x="593.234375"/>
      <use xlink:href="#DejaVuSans-20" x="645.333984"/>
      <use xlink:href="#DejaVuSans-5b" x="677.121094"/>
      <use xlink:href="#DejaVuSans-6e" x="716.134766"/>
      <use xlink:href="#DejaVuSans-6d" x="779.513672"/>
      <use xlink:href="#DejaVuSans-5d" x="876.925781"/>
     </g>
    </g>
   </g>
   <g id="matplotlib.axis_2">
    <g id="ytick_1">
     <g id="line2d_8">
      <defs>
       <path id="mbe8f4df3c9" d="M 0 0 
L -3.5 0 
" style="stroke: #000000; stroke-width: 0.8"/>
      </defs>
      <g>
       <use xlink:href="#mbe8f4df3c9" x="64.8" y="294.768" style="stroke: #000000; stroke-width: 0.8"/>
      </g>
     </g>
     <g id="text_9">
      <!-- 0 -->
      <g transform="translate(50.165 299.327063) scale(0.12 -0.12)">
       <use xlink:href="#DejaVuSans-30"/>
      </g>
     </g>
    </g>
    <g id="ytick_2">
     <g id="line2d_9">
      <g>
       <use xlink:href="#mbe8f4df3c9" x="64.8" y="262.785939" style="stroke: #000000; stroke-width: 0.8"/>
      </g>
     </g>
     <g id="text_10">
      <!-- 5 -->
      <g transform="translate(50.165 267.345002) scale(0.12 -0.12)">
       <defs>
        <path id="DejaVuSans-35" d="M 691 4666 
L 3169 4666 
L 3169 4134 
L 1269 4134 
L 1269 2991 
Q 1406 3038 1543 3061 
Q 1681 3084 1819 3084 
Q 2600 3084 3056 2656 
Q 3513 2228 3513 1497 
Q 3513 744 3044 326 
Q 2575 -91 1722 -91 
Q 1428 -91 1123 -41 
Q 819 9 494 109 
L 494 744 
Q 775 591 1075 516 
Q 1375 441 1709 441 
Q 2250 441 2565 725 
Q 2881 1009 2881 1497 
Q 2881 1984 2565 2268 
Q 2250 2553 1709 2553 
Q 1456 2553 1204 2497 
Q 953 2441 691 2322 
L 691 4666 
z
" transform="scale(0.015625)"/>
       </defs>
       <use xlink:href="#DejaVuSans-35"/>
      </g>
     </g>
    </g>
    <g id="ytick_3">
     <g id="line2d_10">
      <g>
       <use xlink:href="#mbe8f4df3c9" x="64.8" y="230.803879" style="stroke: #000000; stroke-width: 0.8"/>
      </g>
     </g>
     <g id="text_11">
      <!-- 10 -->
      <g transform="translate(42.53 235.362941) scale(0.12 -0.12)">
       <use xlink:href="#DejaVuSans-31"/>
       <use xlink:href="#DejaVuSans-30" x="63.623047"/>
      </g>
     </g>
    </g>
    <g id="ytick_4">
     <g id="line2d_11">
      <g>
       <use xlink:href="#mbe8f4df3c9" x="64.8" y="198.821818" style="stroke: #000000; stroke-width: 0.8"/>
      </g>
     </g>
     <g id="text_12">
      <!-- 15 -->
      <g transform="translate(42.53 203.380881) scale(0.12 -0.12)">
       <use xlink:href="#DejaVuSans-31"/>
       <use xlink:href="#DejaVuSans-35" x="63.623047"/>
      </g>
     </g>
    </g>
    <g id="ytick_5">
     <g id="line2d_12">
      <g>
       <use xlink:href="#mbe8f4df3c9" x="64.8" y="166.839758" style="stroke: #000000; stroke-width: 0.8"/>
      </g>
     </g>
     <g id="text_13">
      <!-- 20 -->
      <g transform="translate(42.53 171.39882) scale(0.12 -0.12)">
       <use xlink:href="#DejaVuSans-32"/>
       <use xlink:href="#DejaVuSans-30" x="63.623047"/>
      </g>
     </g>
    </g>
    <g id="ytick_6">
     <g id="line2d_13">
      <g>
       <use xlink:href="#mbe8f4df3c9" x="64.8" y="134.857697" style="stroke: #000000; stroke-width: 0.8"/>
      </g>
     </g>
     <g id="text_14">
      <!-- 25 -->
      <g transform="translate(42.53 139.41676) scale(0.12 -0.12)">
       <use xlink:href="#DejaVuSans-32"/>
       <use xlink:href="#DejaVuSans-35" x="63.623047"/>
      </g>
     </g>
    </g>
    <g id="ytick_7">
     <g id="line2d_14">
      <g>
       <use xlink:href="#mbe8f4df3c9" x="64.8" y="102.875636" style="stroke: #000000; stroke-width: 0.8"/>
      </g>
     </g>
     <g id="text_15">
      <!-- 30 -->
      <g transform="translate(42.53 107.434699) scale(0.12 -0.12)">
       <defs>
        <path id="DejaVuSans-33" d="M 2597 2516 
Q 3050 2419 3304 2112 
Q 3559 1806 3559 1356 
Q 3559 666 3084 287 
Q 2609 -91 1734 -91 
Q 1441 -91 1130 -33 
Q 819 25 488 141 
L 488 750 
Q 750 597 1062 519 
Q 1375 441 1716 441 
Q 2309 441 2620 675 
Q 2931 909 2931 1356 
Q 2931 1769 2642 2001 
Q 2353 2234 1838 2234 
L 1294 2234 
L 1294 2753 
L 1863 2753 
Q 2328 2753 2575 2939 
Q 2822 3125 2822 3475 
Q 2822 3834 2567 4026 
Q 2313 4219 1838 4219 
Q 1578 4219 1281 4162 
Q 984 4106 628 3988 
L 628 4550 
Q 988 4650 1302 4700 
Q 1616 4750 1894 4750 
Q 2613 4750 3031 4423 
Q 3450 4097 3450 3541 
Q 3450 3153 3228 2886 
Q 3006 2619 2597 2516 
z
" transform="scale(0.015625)"/>
       </defs>
       <use xlink:href="#DejaVuSans-33"/>
       <use xlink:href="#DejaVuSans-30" x="63.623047"/>
      </g>
     </g>
    </g>
    <g id="ytick_8">
     <g id="line2d_15">
      <g>
       <use xlink:href="#mbe8f4df3c9" x="64.8" y="70.893576" style="stroke: #000000; stroke-width: 0.8"/>
      </g>
     </g>
     <g id="text_16">
      <!-- 35 -->
      <g transform="translate(42.53 75.452638) scale(0.12 -0.12)">
       <use xlink:href="#DejaVuSans-33"/>
       <use xlink:href="#DejaVuSans-35" x="63.623047"/>
      </g>
     </g>
    </g>
    <g id="text_17">
     <!-- Absorption [%] -->
     <g transform="translate(35.618437 219.485844) rotate(-90) scale(0.14 -0.14)">
      <defs>
       <path id="DejaVuSans-41" d="M 2188 4044 
L 1331 1722 
L 3047 1722 
L 2188 4044 
z
M 1831 4666 
L 2547 4666 
L 4325 0 
L 3669 0 
L 3244 1197 
L 1141 1197 
L 716 0 
L 50 0 
L 1831 4666 
z
" transform="scale(0.015625)"/>
       <path id="DejaVuSans-62" d="M 3116 1747 
Q 3116 2381 2855 2742 
Q 2594 3103 2138 3103 
Q 1681 3103 1420 2742 
Q 1159 2381 1159 1747 
Q 1159 1113 1420 752 
Q 1681 391 2138 391 
Q 2594 391 2855 752 
Q 3116 1113 3116 1747 
z
M 1159 2969 
Q 1341 3281 1617 3432 
Q 1894 3584 2278 3584 
Q 2916 3584 3314 3078 
Q 3713 2572 3713 1747 
Q 3713 922 3314 415 
Q 2916 -91 2278 -91 
Q 1894 -91 1617 61 
Q 1341 213 1159 525 
L 1159 0 
L 581 0 
L 581 4863 
L 1159 4863 
L 1159 2969 
z
" transform="scale(0.015625)"/>
       <path id="DejaVuSans-6f" d="M 1959 3097 
Q 1497 3097 1228 2736 
Q 959 2375 959 1747 
Q 959 1119 1226 758 
Q 1494 397 1959 397 
Q 2419 397 2687 759 
Q 2956 1122 2956 1747 
Q 2956 2369 2687 2733 
Q 2419 3097 1959 3097 
z
M 1959 3584 
Q 2709 3584 3137 3096 
Q 3566 2609 3566 1747 
Q 3566 888 3137 398 
Q 2709 -91 1959 -91 
Q 1206 -91 779 398 
Q 353 888 353 1747 
Q 353 2609 779 3096 
Q 1206 3584 1959 3584 
z
" transform="scale(0.015625)"/>
       <path id="DejaVuSans-72" d="M 2631 2963 
Q 2534 3019 2420 3045 
Q 2306 3072 2169 3072 
Q 1681 3072 1420 2755 
Q 1159 2438 1159 1844 
L 1159 0 
L 581 0 
L 581 3500 
L 1159 3500 
L 1159 2956 
Q 1341 3275 1631 3429 
Q 1922 3584 2338 3584 
Q 2397 3584 2469 3576 
Q 2541 3569 2628 3553 
L 2631 2963 
z
" transform="scale(0.015625)"/>
       <path id="DejaVuSans-70" d="M 1159 525 
L 1159 -1331 
L 581 -1331 
L 581 3500 
L 1159 3500 
L 1159 2969 
Q 1341 3281 1617 3432 
Q 1894 3584 2278 3584 
Q 2916 3584 3314 3078 
Q 3713 2572 3713 1747 
Q 3713 922 3314 415 
Q 2916 -91 2278 -91 
Q 1894 -91 1617 61 
Q 1341 213 1159 525 
z
M 3116 1747 
Q 3116 2381 2855 2742 
Q 2594 3103 2138 3103 
Q 1681 3103 1420 2742 
Q 1159 2381 1159 1747 
Q 1159 1113 1420 752 
Q 1681 391 2138 391 
Q 2594 391 2855 752 
Q 3116 1113 3116 1747 
z
" transform="scale(0.015625)"/>
       <path id="DejaVuSans-69" d="M 603 3500 
L 1178 3500 
L 1178 0 
L 603 0 
L 603 3500 
z
M 603 4863 
L 1178 4863 
L 1178 4134 
L 603 4134 
L 603 4863 
z
" transform="scale(0.015625)"/>
       <path id="DejaVuSans-25" d="M 4653 2053 
Q 4381 2053 4226 1822 
Q 4072 1591 4072 1178 
Q 4072 772 4226 539 
Q 4381 306 4653 306 
Q 4919 306 5073 539 
Q 5228 772 5228 1178 
Q 5228 1588 5073 1820 
Q 4919 2053 4653 2053 
z
M 4653 2450 
Q 5147 2450 5437 2106 
Q 5728 1763 5728 1178 
Q 5728 594 5436 251 
Q 5144 -91 4653 -91 
Q 4153 -91 3862 251 
Q 3572 594 3572 1178 
Q 3572 1766 3864 2108 
Q 4156 2450 4653 2450 
z
M 1428 4353 
Q 1159 4353 1004 4120 
Q 850 3888 850 3481 
Q 850 3069 1003 2837 
Q 1156 2606 1428 2606 
Q 1700 2606 1854 2837 
Q 2009 3069 2009 3481 
Q 2009 3884 1853 4118 
Q 1697 4353 1428 4353 
z
M 4250 4750 
L 4750 4750 
L 1831 -91 
L 1331 -91 
L 4250 4750 
z
M 1428 4750 
Q 1922 4750 2215 4408 
Q 2509 4066 2509 3481 
Q 2509 2891 2217 2550 
Q 1925 2209 1428 2209 
Q 931 2209 642 2551 
Q 353 2894 353 3481 
Q 353 4063 643 4406 
Q 934 4750 1428 4750 
z
" transform="scale(0.015625)"/>
      </defs>
      <use xlink:href="#DejaVuSans-41"/>
      <use xlink:href="#DejaVuSans-62" x="68.408203"/>
      <use xlink:href="#DejaVuSans-73" x="131.884766"/>
      <use xlink:href="#DejaVuSans-6f" x="183.984375"/>
      <use xlink:href="#DejaVuSans-72" x="245.166016"/>
      <use xlink:href="#DejaVuSans-70" x="286.279297"/>
      <use xlink:href="#DejaVuSans-74" x="349.755859"/>
      <use xlink:href="#DejaVuSans-69" x="388.964844"/>
      <use xlink:href="#DejaVuSans-6f" x="416.748047"/>
      <use xlink:href="#DejaVuSans-6e" x="477.929688"/>
      <use xlink:href="#DejaVuSans-20" x="541.308594"/>
      <use xlink:href="#DejaVuSans-5b" x="573.095703"/>
      <use xlink:href="#DejaVuSans-25" x="612.109375"/>
      <use xlink:href="#DejaVuSans-5d" x="707.128906"/>
     </g>
    </g>
   </g>
   <g id="line2d_16">
    <path d="M 448.298182 285.55713 
L 392.246267 286.731831 
L 349.724125 287.414178 
L 315.899694 287.743478 
L 288.840149 287.791266 
L 266.691872 287.611577 
L 248.637119 287.247823 
L 233.664884 286.731046 
L 221.114629 286.084951 
L 210.325812 285.314377 
L 201.078256 284.438799 
L 192.931599 283.447701 
L 185.885841 282.372592 
L 179.720803 281.217701 
L 174.216305 279.971888 
L 169.152167 278.601125 
L 164.528389 277.115631 
L 160.34497 275.534282 
L 156.601912 273.886286 
L 153.079033 272.09232 
L 149.776334 270.154153 
L 146.693815 268.078645 
L 143.831476 265.878957 
L 141.189317 263.57563 
L 138.547158 260.967207 
L 136.125179 258.266303 
L 133.7032 255.224406 
L 131.281221 251.792708 
L 129.079422 248.289713 
L 126.877622 244.377826 
L 124.675823 240.014693 
L 122.474024 235.162026 
L 120.272225 229.792026 
L 117.850246 223.279484 
L 115.208087 215.49949 
L 111.685208 204.32893 
L 107.281609 190.386415 
L 105.29999 184.812166 
L 103.758731 181.059266 
L 102.437651 178.355577 
L 101.116572 176.184325 
L 100.015672 174.796741 
L 98.914772 173.779505 
L 97.813873 173.092663 
L 96.712973 172.666954 
L 94.731354 172.218378 
L 93.410274 171.794558 
L 92.529555 171.268599 
L 91.648835 170.413953 
L 90.988295 169.478693 
L 90.327756 168.223329 
L 89.667216 166.580764 
L 88.786496 163.661275 
L 87.905776 159.733003 
L 87.025057 154.588422 
L 86.144337 148.009108 
L 85.263617 139.782563 
L 84.162718 126.92896 
L 83.061818 111.151947 
L 83.061818 111.151947 
" clip-path="url(#p63e3405b0e)" style="fill: none; stroke: #cc4c02; stroke-width: 1.5; stroke-linecap: square"/>
   </g>
   <g id="line2d_17">
    <path d="M 448.298182 285.978872 
L 381.615732 287.471828 
L 334.261528 288.324946 
L 298.504273 288.760639 
L 270.214751 288.889519 
L 248.196759 288.77571 
L 230.362185 288.467649 
L 215.83031 287.999184 
L 203.940595 287.401102 
L 194.032498 286.69057 
L 185.445481 285.856187 
L 178.179544 284.933058 
L 171.794326 283.901072 
L 166.289828 282.793335 
L 161.44587 281.602671 
L 157.042272 280.297298 
L 153.079033 278.894705 
L 149.556154 277.423682 
L 146.253455 275.810031 
L 143.170937 274.055874 
L 140.308598 272.169313 
L 137.666439 270.165866 
L 135.244459 268.069653 
L 132.82248 265.684109 
L 130.400501 262.963919 
L 128.198702 260.158451 
L 125.996903 256.995042 
L 123.795104 253.434319 
L 121.593304 249.442197 
L 119.391505 244.997772 
L 116.969526 239.593029 
L 114.107187 232.60561 
L 107.06143 215.035143 
L 105.29999 211.438028 
L 103.978911 209.179664 
L 102.657831 207.354779 
L 101.556932 206.176753 
L 100.456032 205.294667 
L 99.355132 204.66696 
L 97.813873 204.077466 
L 95.612074 203.261953 
L 94.731354 202.707685 
L 93.850634 201.876578 
L 92.969915 200.650447 
L 92.089195 198.892861 
L 91.208475 196.44512 
L 90.327756 193.121047 
L 89.447036 188.701002 
L 88.566316 182.92629 
L 87.685597 175.496795 
L 86.804877 166.077752 
L 85.924157 154.327087 
L 85.043437 139.962992 
L 83.942538 118.238199 
L 83.061818 98.354378 
L 83.061818 98.354378 
" clip-path="url(#p63e3405b0e)" style="fill: none; stroke: #ec7014; stroke-width: 1.5; stroke-linecap: square"/>
   </g>
   <g id="line2d_18">
    <path d="M 448.298182 285.273034 
L 396.111917 286.444385 
L 354.556187 287.166007 
L 321.698168 287.528086 
L 294.638623 287.612641 
L 272.19637 287.461149 
L 254.141617 287.123033 
L 238.949202 286.621946 
L 226.178767 285.984158 
L 215.389951 285.231946 
L 205.922214 284.353332 
L 197.775557 283.379629 
L 190.50962 282.288449 
L 184.124402 281.105921 
L 178.399724 279.819501 
L 173.335586 278.458169 
L 168.711807 276.988807 
L 164.528389 275.432122 
L 160.56515 273.716541 
L 157.042272 271.95641 
L 153.739573 270.068355 
L 150.657054 268.063119 
L 147.574535 265.785051 
L 144.712196 263.387986 
L 142.070037 260.90045 
L 139.427878 258.115336 
L 136.785719 254.998548 
L 134.14356 251.516981 
L 131.501401 247.642428 
L 128.859242 243.357897 
L 125.996903 238.258851 
L 122.914384 232.295347 
L 117.630066 221.458343 
L 114.327367 214.957789 
L 112.125568 211.122169 
L 110.364128 208.508492 
L 108.822869 206.635892 
L 107.501789 205.376036 
L 106.18071 204.449557 
L 105.07981 203.928995 
L 103.978911 203.622063 
L 102.657831 203.497775 
L 101.116572 203.598781 
L 97.813873 203.928326 
L 96.712973 203.761797 
L 95.832254 203.401882 
L 94.951534 202.764737 
L 94.070814 201.770222 
L 93.190095 200.326663 
L 92.309375 198.328719 
L 91.428655 195.655162 
L 90.547935 192.167132 
L 89.667216 187.707907 
L 88.786496 182.106253 
L 87.905776 175.186909 
L 86.804877 164.452492 
L 85.703977 151.276638 
L 84.382898 132.66488 
L 83.061818 112.940434 
L 83.061818 112.940434 
" clip-path="url(#p63e3405b0e)" style="fill: none; stroke: #993404; stroke-width: 1.5; stroke-linecap: square"/>
   </g>
   <g id="line2d_19">
    <path d="M 448.298182 281.464527 
L 398.044741 283.46407 
L 354.556187 284.982807 
L 318.798931 286.022304 
L 289.806562 286.656957 
L 265.590973 286.970863 
L 245.99496 287.008346 
L 229.921825 286.824215 
L 216.49085 286.453703 
L 205.261674 285.927508 
L 195.793938 285.269591 
L 187.647281 284.488709 
L 180.601523 283.5986 
L 174.436485 282.604866 
L 168.931987 281.498527 
L 164.088029 280.307654 
L 159.684431 279.003984 
L 155.721192 277.608667 
L 151.978133 276.05533 
L 148.675435 274.456241 
L 145.592916 272.734313 
L 142.510397 270.752294 
L 139.648058 268.641191 
L 137.005899 266.427126 
L 134.36374 263.925571 
L 131.721581 261.105301 
L 129.079422 257.939769 
L 126.437263 254.413857 
L 123.574924 250.196219 
L 120.272225 244.895672 
L 112.786107 232.659247 
L 110.804488 229.950493 
L 109.263229 228.18337 
L 107.942149 226.957972 
L 106.62107 226.03055 
L 105.52017 225.496404 
L 104.41927 225.178485 
L 103.318371 225.065167 
L 101.997291 225.165637 
L 100.456032 225.524895 
L 97.153333 226.413806 
L 96.052434 226.426459 
L 95.171714 226.193188 
L 94.511174 225.820705 
L 93.850634 225.230725 
L 93.190095 224.371068 
L 92.529555 223.178918 
L 91.869015 221.577659 
L 91.208475 219.472629 
L 90.547935 216.745475 
L 89.887396 213.246636 
L 89.226856 208.785452 
L 88.566316 203.117436 
L 87.905776 195.928577 
L 87.245237 186.817818 
L 86.584697 175.282035 
L 85.703977 155.071103 
L 84.823258 127.92122 
L 83.942538 92.905312 
L 83.061818 51.682318 
L 83.061818 51.682318 
" clip-path="url(#p63e3405b0e)" style="fill: none; stroke: #fb9a29; stroke-width: 1.5; stroke-linecap: square"/>
   </g>
   <g id="line2d_20">
    <path d="M 448.298182 284.070207 
L 393.21268 285.576179 
L 349.724125 286.552398 
L 315.899694 287.100708 
L 288.840149 287.328215 
L 266.471692 287.297457 
L 248.416939 287.05515 
L 233.444704 286.637587 
L 220.894449 286.07084 
L 210.325812 285.379242 
L 201.078256 284.554025 
L 193.151779 283.627482 
L 186.106021 282.579959 
L 179.940983 281.439662 
L 174.436485 280.196862 
L 169.592527 278.883865 
L 165.188929 277.470796 
L 161.00551 275.892908 
L 157.262451 274.247374 
L 153.739573 272.458938 
L 150.436874 270.534648 
L 147.354355 268.488118 
L 144.271836 266.164524 
L 141.409497 263.726922 
L 138.547158 260.989958 
L 135.684819 257.928144 
L 132.82248 254.524888 
L 129.960141 250.780936 
L 126.657442 246.079433 
L 121.813484 238.727659 
L 117.850246 232.858549 
L 115.648446 229.950373 
L 113.887007 227.937828 
L 112.345748 226.471788 
L 110.804488 225.326614 
L 109.483409 224.623321 
L 108.162329 224.185292 
L 106.84125 224.007086 
L 105.52017 224.068315 
L 103.978911 224.392295 
L 101.997291 225.066564 
L 99.355132 225.954196 
L 98.254233 226.124433 
L 97.373513 226.089117 
L 96.492793 225.84093 
L 95.612074 225.313062 
L 94.951534 224.6858 
L 94.290994 223.815847 
L 93.630454 222.65569 
L 92.749735 220.558539 
L 91.869015 217.679316 
L 90.988295 213.807406 
L 90.107576 208.672778 
L 89.226856 201.931459 
L 88.346136 193.155317 
L 87.465417 181.840136 
L 86.584697 167.464144 
L 85.703977 149.660079 
L 84.603078 122.936548 
L 83.061818 83.776337 
L 83.061818 83.776337 
" clip-path="url(#p63e3405b0e)" style="fill: none; stroke: #ec7014; stroke-width: 1.5; stroke-linecap: square"/>
   </g>
   <g id="line2d_21">
    <path d="M 448.298182 288.887667 
L 394.179092 289.540792 
L 350.690538 289.850344 
L 315.899694 289.882514 
L 287.873737 289.691154 
L 265.150613 289.316254 
L 246.875679 288.798596 
L 231.683265 288.151373 
L 219.133009 287.402934 
L 208.344193 286.541956 
L 199.096636 285.583465 
L 191.170159 284.543029 
L 184.344582 283.432779 
L 178.179544 282.208005 
L 172.675046 280.88577 
L 167.831088 279.495744 
L 163.427489 278.001499 
L 159.464251 276.424184 
L 155.941372 274.79581 
L 152.638673 273.034785 
L 149.556154 271.145093 
L 146.693815 269.136042 
L 144.051656 267.02341 
L 141.409497 264.61751 
L 138.987518 262.108575 
L 136.565539 259.257823 
L 134.36374 256.319258 
L 132.161941 252.995172 
L 130.180321 249.622306 
L 128.198702 245.833929 
L 126.217083 241.570501 
L 124.235463 236.765856 
L 122.253844 231.348538 
L 120.272225 225.244951 
L 118.290606 218.385486 
L 116.308986 210.715249 
L 114.107187 201.215932 
L 111.685208 189.650588 
L 108.382509 172.567478 
L 105.07981 155.681884 
L 103.318371 147.808805 
L 101.997291 142.880535 
L 100.896392 139.609731 
L 100.015672 137.627745 
L 99.355132 136.54281 
L 98.694593 135.81675 
L 98.034053 135.4555 
L 97.593693 135.416838 
L 97.153333 135.537202 
L 96.492793 136.006169 
L 95.832254 136.801245 
L 94.951534 138.314114 
L 93.850634 140.790632 
L 92.089195 145.48932 
L 90.547935 149.422908 
L 89.667216 151.165414 
L 89.006676 152.061351 
L 88.566316 152.407137 
L 88.125956 152.515445 
L 87.685597 152.354254 
L 87.245237 151.890976 
L 86.804877 151.092885 
L 86.144337 149.198038 
L 85.483797 146.378076 
L 84.823258 142.556111 
L 83.942538 135.858455 
L 83.061818 127.501567 
L 83.061818 127.501567 
" clip-path="url(#p63e3405b0e)" style="fill: none; stroke: #cc4c02; stroke-width: 1.5; stroke-linecap: square"/>
   </g>
   <g id="line2d_22">
    <path d="M 448.298182 286.62667 
L 371.951609 288.387479 
L 318.798931 289.401607 
L 280.142438 289.928765 
L 250.398558 290.1184 
L 227.940206 290.04707 
L 210.545992 289.779592 
L 196.674657 289.351602 
L 185.665661 288.800335 
L 176.638285 288.137498 
L 169.152167 287.377603 
L 162.76695 286.515614 
L 157.262451 285.553482 
L 152.418493 284.478689 
L 148.235075 283.321293 
L 144.492016 282.049806 
L 141.189317 280.689867 
L 138.326978 279.283396 
L 135.684819 277.752223 
L 133.26284 276.108937 
L 130.840861 274.188 
L 128.639062 272.153154 
L 126.437263 269.79217 
L 124.455643 267.342519 
L 122.474024 264.541345 
L 120.492405 261.34949 
L 118.510785 257.739737 
L 116.308986 253.23962 
L 113.666827 247.26865 
L 108.602689 235.647132 
L 107.06143 232.709679 
L 105.74035 230.637428 
L 104.63945 229.269897 
L 103.538551 228.231508 
L 102.437651 227.488877 
L 101.116572 226.889003 
L 98.034053 225.650206 
L 97.153333 225.000189 
L 96.272613 224.061417 
L 95.391894 222.739361 
L 94.511174 220.932286 
L 93.630454 218.528375 
L 92.749735 215.401653 
L 91.869015 211.4068 
L 90.988295 206.372971 
L 90.107576 200.097001 
L 89.226856 192.336851 
L 88.346136 182.807236 
L 87.465417 171.181471 
L 86.364517 153.165578 
L 85.263617 130.700284 
L 84.162718 103.530521 
L 83.061818 72.370736 
L 83.061818 72.370736 
" clip-path="url(#p63e3405b0e)" style="fill: none; stroke: #fb9a29; stroke-width: 1.5; stroke-linecap: square"/>
   </g>
   <g id="line2d_23">
    <path d="M 448.298182 287.787712 
L 398.044741 288.470424 
L 357.455424 288.807592 
L 324.597405 288.865043 
L 298.504273 288.702281 
L 276.379789 288.348001 
L 258.325035 287.842981 
L 243.132621 287.201039 
L 230.362185 286.444965 
L 219.353189 285.573549 
L 209.885453 284.603342 
L 201.738795 283.550729 
L 194.472858 282.389154 
L 188.08764 281.144641 
L 182.362962 279.802166 
L 177.298824 278.390139 
L 172.675046 276.872402 
L 168.491627 275.268512 
L 164.748569 273.607901 
L 161.22569 271.810936 
L 157.922991 269.880292 
L 154.840472 267.823458 
L 151.978133 265.653798 
L 149.335974 263.3915 
L 146.693815 260.839436 
L 144.271836 258.205922 
L 141.849857 255.248488 
L 139.427878 251.919866 
L 137.226079 248.527172 
L 135.024279 244.740289 
L 132.82248 240.513264 
L 130.620681 235.800134 
L 128.418882 230.559074 
L 126.217083 224.759192 
L 123.795104 217.723519 
L 121.152944 209.313353 
L 117.850246 197.993982 
L 113.006287 181.380799 
L 111.024668 175.411039 
L 109.483409 171.436414 
L 108.162329 168.622618 
L 107.06143 166.752965 
L 105.96053 165.342958 
L 105.07981 164.550228 
L 104.199091 164.047781 
L 103.318371 163.817784 
L 102.437651 163.832069 
L 101.556932 164.052311 
L 100.235852 164.66175 
L 97.153333 166.295005 
L 96.272613 166.49295 
L 95.391894 166.430389 
L 94.731354 166.165694 
L 94.070814 165.67858 
L 93.410274 164.938081 
L 92.749735 163.915015 
L 91.869015 162.065966 
L 90.988295 159.615711 
L 90.107576 156.530503 
L 89.006676 151.774827 
L 87.685597 144.867604 
L 85.263617 130.418867 
L 83.942538 123.370674 
L 83.061818 119.930623 
L 83.061818 119.930623 
" clip-path="url(#p63e3405b0e)" style="fill: none; stroke: #662506; stroke-width: 1.5; stroke-linecap: square"/>
   </g>
   <g id="line2d_24">
    <path d="M 448.298182 281.494116 
L 409.641689 283.586984 
L 370.985196 285.459572 
L 332.328704 287.108759 
L 295.605036 288.451007 
L 262.288274 289.447425 
L 233.664884 290.087137 
L 210.105632 290.399142 
L 191.610519 290.432917 
L 177.078644 290.24782 
L 165.629288 289.888224 
L 156.601912 289.392534 
L 149.335974 288.783249 
L 143.391116 288.07611 
L 138.326978 287.25861 
L 134.14356 286.372518 
L 130.400501 285.35603 
L 127.097802 284.220692 
L 124.235463 282.99434 
L 121.813484 281.72564 
L 119.611685 280.335148 
L 117.630066 278.838379 
L 115.648446 277.04705 
L 113.887007 275.142916 
L 112.345748 273.17555 
L 110.804488 270.859514 
L 109.263229 268.111587 
L 107.942149 265.332179 
L 106.62107 262.072596 
L 105.29999 258.228414 
L 103.978911 253.672834 
L 102.657831 248.256281 
L 101.336752 241.812167 
L 100.015672 234.176292 
L 98.694593 225.232736 
L 97.153333 213.189366 
L 92.969915 178.862734 
L 92.089195 173.766967 
L 91.208475 170.040871 
L 90.547935 168.058108 
L 89.667216 166.100458 
L 88.786496 164.173221 
L 88.125956 162.104039 
L 87.465417 158.905932 
L 86.804877 153.970706 
L 86.144337 146.606714 
L 85.483797 136.009154 
L 84.823258 121.22913 
L 84.162718 101.175338 
L 83.502178 74.729954 
L 83.061818 53.142949 
L 83.061818 53.142949 
" clip-path="url(#p63e3405b0e)" style="fill: none; stroke-dasharray: 5.55,2.4; stroke-dashoffset: 0; stroke: #000000; stroke-width: 1.5"/>
   </g>
   <g id="line2d_25">
    <path d="M 448.298182 286.828802 
L 397.078329 287.798972 
L 355.522599 288.372488 
L 321.698168 288.625944 
L 294.638623 288.62077 
L 271.75601 288.399995 
L 253.260897 288.007165 
L 237.848302 287.466526 
L 224.857687 286.796199 
L 213.848691 286.013382 
L 204.380955 285.124246 
L 196.234297 284.144371 
L 188.96836 283.04865 
L 182.583142 281.86075 
L 177.078644 280.619866 
L 172.014506 279.253755 
L 167.390728 277.771224 
L 163.207309 276.189637 
L 159.464251 274.536795 
L 155.941372 272.731378 
L 152.858853 270.912357 
L 149.996514 268.984687 
L 147.134175 266.78462 
L 144.492016 264.468141 
L 142.070037 262.061431 
L 139.648058 259.337815 
L 137.446259 256.542306 
L 135.244459 253.394377 
L 133.04266 249.83992 
L 131.061041 246.242259 
L 129.079422 242.214536 
L 127.097802 237.701482 
L 125.116183 232.64479 
L 123.134564 226.986278 
L 121.152944 220.673554 
L 118.951145 212.847731 
L 116.749346 204.162396 
L 114.327367 193.708688 
L 110.364128 175.412329 
L 107.501789 162.697872 
L 105.74035 155.909078 
L 104.41927 151.67134 
L 103.318371 148.843694 
L 102.437651 147.102622 
L 101.556932 145.856353 
L 100.896392 145.25492 
L 100.235852 144.938608 
L 99.575312 144.900303 
L 98.914772 145.126421 
L 98.254233 145.59676 
L 97.373513 146.556572 
L 96.272613 148.173902 
L 92.309375 154.536019 
L 91.648835 155.104545 
L 90.988295 155.36907 
L 90.547935 155.346178 
L 90.107576 155.143271 
L 89.667216 154.743509 
L 89.006676 153.740815 
L 88.346136 152.214549 
L 87.685597 150.132162 
L 86.804877 146.472904 
L 85.924157 141.862397 
L 84.603078 133.649509 
L 83.061818 124.08689 
L 83.061818 124.08689 
" clip-path="url(#p63e3405b0e)" style="fill: none; stroke: #993404; stroke-width: 1.5; stroke-linecap: square"/>
   </g>
   <g id="patch_3">
    <path d="M 64.8 294.768 
L 64.8 39.744 
" style="fill: none; stroke: #000000; stroke-width: 0.8; stroke-linejoin: miter; stroke-linecap: square"/>
   </g>
   <g id="patch_4">
    <path d="M 466.56 294.768 
L 466.56 39.744 
" style="fill: none; stroke: #000000; stroke-width: 0.8; stroke-linejoin: miter; stroke-linecap: square"/>
   </g>
   <g id="patch_5">
    <path d="M 64.8 294.768 
L 466.56 294.768 
" style="fill: none; stroke: #000000; stroke-width: 0.8; stroke-linejoin: miter; stroke-linecap: square"/>
   </g>
   <g id="patch_6">
    <path d="M 64.8 39.744 
L 466.56 39.744 
" style="fill: none; stroke: #000000; stroke-width: 0.8; stroke-linejoin: miter; stroke-linecap: square"/>
   </g>
   <g id="legend_1">
    <g id="patch_7">
     <path d="M 386.79 155.0265 
L 458.16 155.0265 
Q 460.56 155.0265 460.56 152.6265 
L 460.56 48.144 
Q 460.56 45.744 458.16 45.744 
L 386.79 45.744 
Q 384.39 45.744 384.39 48.144 
L 384.39 152.6265 
Q 384.39 155.0265 386.79 155.0265 
z
" style="fill: #ffffff; opacity: 0.8; stroke: #cccccc; stroke-linejoin: miter"/>
    </g>
    <g id="line2d_26">
     <path d="M 389.19 55.462125 
L 401.19 55.462125 
L 413.19 55.462125 
" style="fill: none; stroke-dasharray: 5.55,2.4; stroke-dashoffset: 0; stroke: #000000; stroke-width: 1.5"/>
    </g>
    <g id="text_18">
     <!-- 0 s -->
     <g transform="translate(422.79 59.662125) scale(0.12 -0.12)">
      <use xlink:href="#DejaVuSans-30"/>
      <use xlink:href="#DejaVuSans-20" x="63.623047"/>
      <use xlink:href="#DejaVuSans-73" x="95.410156"/>
     </g>
    </g>
    <g id="line2d_27">
     <path d="M 389.19 73.075875 
L 401.19 73.075875 
L 413.19 73.075875 
" style="fill: none; stroke: #fb9a29; stroke-width: 1.5; stroke-linecap: square"/>
    </g>
    <g id="text_19">
     <!-- 60 s -->
     <g transform="translate(422.79 77.275875) scale(0.12 -0.12)">
      <use xlink:href="#DejaVuSans-36"/>
      <use xlink:href="#DejaVuSans-30" x="63.623047"/>
      <use xlink:href="#DejaVuSans-20" x="127.246094"/>
      <use xlink:href="#DejaVuSans-73" x="159.033203"/>
     </g>
    </g>
    <g id="line2d_28">
     <path d="M 389.19 90.689625 
L 401.19 90.689625 
L 413.19 90.689625 
" style="fill: none; stroke: #ec7014; stroke-width: 1.5; stroke-linecap: square"/>
    </g>
    <g id="text_20">
     <!-- 90 s -->
     <g transform="translate(422.79 94.889625) scale(0.12 -0.12)">
      <defs>
       <path id="DejaVuSans-39" d="M 703 97 
L 703 672 
Q 941 559 1184 500 
Q 1428 441 1663 441 
Q 2288 441 2617 861 
Q 2947 1281 2994 2138 
Q 2813 1869 2534 1725 
Q 2256 1581 1919 1581 
Q 1219 1581 811 2004 
Q 403 2428 403 3163 
Q 403 3881 828 4315 
Q 1253 4750 1959 4750 
Q 2769 4750 3195 4129 
Q 3622 3509 3622 2328 
Q 3622 1225 3098 567 
Q 2575 -91 1691 -91 
Q 1453 -91 1209 -44 
Q 966 3 703 97 
z
M 1959 2075 
Q 2384 2075 2632 2365 
Q 2881 2656 2881 3163 
Q 2881 3666 2632 3958 
Q 2384 4250 1959 4250 
Q 1534 4250 1286 3958 
Q 1038 3666 1038 3163 
Q 1038 2656 1286 2365 
Q 1534 2075 1959 2075 
z
" transform="scale(0.015625)"/>
      </defs>
      <use xlink:href="#DejaVuSans-39"/>
      <use xlink:href="#DejaVuSans-30" x="63.623047"/>
      <use xlink:href="#DejaVuSans-20" x="127.246094"/>
      <use xlink:href="#DejaVuSans-73" x="159.033203"/>
     </g>
    </g>
    <g id="line2d_29">
     <path d="M 389.19 108.303375 
L 401.19 108.303375 
L 413.19 108.303375 
" style="fill: none; stroke: #cc4c02; stroke-width: 1.5; stroke-linecap: square"/>
    </g>
    <g id="text_21">
     <!-- 120 s -->
     <g transform="translate(422.79 112.503375) scale(0.12 -0.12)">
      <use xlink:href="#DejaVuSans-31"/>
      <use xlink:href="#DejaVuSans-32" x="63.623047"/>
      <use xlink:href="#DejaVuSans-30" x="127.246094"/>
      <use xlink:href="#DejaVuSans-20" x="190.869141"/>
      <use xlink:href="#DejaVuSans-73" x="222.65625"/>
     </g>
    </g>
    <g id="line2d_30">
     <path d="M 389.19 125.917125 
L 401.19 125.917125 
L 413.19 125.917125 
" style="fill: none; stroke: #993404; stroke-width: 1.5; stroke-linecap: square"/>
    </g>
    <g id="text_22">
     <!-- 150 s -->
     <g transform="translate(422.79 130.117125) scale(0.12 -0.12)">
      <use xlink:href="#DejaVuSans-31"/>
      <use xlink:href="#DejaVuSans-35" x="63.623047"/>
      <use xlink:href="#DejaVuSans-30" x="127.246094"/>
      <use xlink:href="#DejaVuSans-20" x="190.869141"/>
      <use xlink:href="#DejaVuSans-73" x="222.65625"/>
     </g>
    </g>
    <g id="line2d_31">
     <path d="M 389.19 143.530875 
L 401.19 143.530875 
L 413.19 143.530875 
" style="fill: none; stroke: #662506; stroke-width: 1.5; stroke-linecap: square"/>
    </g>
    <g id="text_23">
     <!-- 180 s -->
     <g transform="translate(422.79 147.730875) scale(0.12 -0.12)">
      <use xlink:href="#DejaVuSans-31"/>
      <use xlink:href="#DejaVuSans-38" x="63.623047"/>
      <use xlink:href="#DejaVuSans-30" x="127.246094"/>
      <use xlink:href="#DejaVuSans-20" x="190.869141"/>
      <use xlink:href="#DejaVuSans-73" x="222.65625"/>
     </g>
    </g>
   </g>
  </g>
 </g>
 <defs>
  <clipPath id="p63e3405b0e">
   <rect x="64.8" y="39.744" width="401.76" height="255.024"/>
  </clipPath>
 </defs>
</svg>
