<?xml version="1.0" encoding="utf-8" standalone="no"?>
<!DOCTYPE svg PUBLIC "-//W3C//DTD SVG 1.1//EN"
  "http://www.w3.org/Graphics/SVG/1.1/DTD/svg11.dtd">
<svg xmlns:xlink="http://www.w3.org/1999/xlink" width="518.4pt" height="414.72pt" viewBox="0 0 518.4 414.72" xmlns="http://www.w3.org/2000/svg" version="1.1">
 <metadata>
  <rdf:RDF xmlns:dc="http://purl.org/dc/elements/1.1/" xmlns:cc="http://creativecommons.org/ns#" xmlns:rdf="http://www.w3.org/1999/02/22-rdf-syntax-ns#">
   <cc:Work>
    <dc:type rdf:resource="http://purl.org/dc/dcmitype/StillImage"/>
    <dc:date>2023-02-14T13:41:50.883906</dc:date>
    <dc:format>image/svg+xml</dc:format>
    <dc:creator>
     <cc:Agent>
      <dc:title>Matplotlib v3.6.3, https://matplotlib.org/</dc:title>
     </cc:Agent>
    </dc:creator>
   </cc:Work>
  </rdf:RDF>
 </metadata>
 <defs>
  <style type="text/css">*{stroke-linejoin: round; stroke-linecap: butt}</style>
 </defs>
 <g id="figure_1">
  <g id="patch_1">
   <path d="M 0 414.72 
L 518.4 414.72 
L 518.4 0 
L 0 0 
z
" style="fill: #ffffff"/>
  </g>
  <g id="axes_1">
   <g id="patch_2">
    <path d="M 64.8 369.1008 
L 466.56 369.1008 
L 466.56 49.7664 
L 64.8 49.7664 
z
" style="fill: #ffffff"/>
   </g>
   <g id="matplotlib.axis_1">
    <g id="xtick_1">
     <g id="line2d_1">
      <defs>
       <path id="m93ae17f6f3" d="M 0 0 
L 0 3.5 
" style="stroke: #000000; stroke-width: 0.8"/>
      </defs>
      <g>
       <use xlink:href="#m93ae17f6f3" x="83.061818" y="369.1008" style="stroke: #000000; stroke-width: 0.8"/>
      </g>
     </g>
     <g id="text_1">
      <!-- 0 -->
      <g transform="translate(79.244318 385.218925) scale(0.12 -0.12)">
       <defs>
        <path id="DejaVuSans-30" d="M 2034 4250 
Q 1547 4250 1301 3770 
Q 1056 3291 1056 2328 
Q 1056 1369 1301 889 
Q 1547 409 2034 409 
Q 2525 409 2770 889 
Q 3016 1369 3016 2328 
Q 3016 3291 2770 3770 
Q 2525 4250 2034 4250 
z
M 2034 4750 
Q 2819 4750 3233 4129 
Q 3647 3509 3647 2328 
Q 3647 1150 3233 529 
Q 2819 -91 2034 -91 
Q 1250 -91 836 529 
Q 422 1150 422 2328 
Q 422 3509 836 4129 
Q 1250 4750 2034 4750 
z
" transform="scale(0.015625)"/>
       </defs>
       <use xlink:href="#DejaVuSans-30"/>
      </g>
     </g>
    </g>
    <g id="xtick_2">
     <g id="line2d_2">
      <g>
       <use xlink:href="#m93ae17f6f3" x="135.981356" y="369.1008" style="stroke: #000000; stroke-width: 0.8"/>
      </g>
     </g>
     <g id="text_2">
      <!-- 50 -->
      <g transform="translate(128.346356 385.218925) scale(0.12 -0.12)">
       <defs>
        <path id="DejaVuSans-35" d="M 691 4666 
L 3169 4666 
L 3169 4134 
L 1269 4134 
L 1269 2991 
Q 1406 3038 1543 3061 
Q 1681 3084 1819 3084 
Q 2600 3084 3056 2656 
Q 3513 2228 3513 1497 
Q 3513 744 3044 326 
Q 2575 -91 1722 -91 
Q 1428 -91 1123 -41 
Q 819 9 494 109 
L 494 744 
Q 775 591 1075 516 
Q 1375 441 1709 441 
Q 2250 441 2565 725 
Q 2881 1009 2881 1497 
Q 2881 1984 2565 2268 
Q 2250 2553 1709 2553 
Q 1456 2553 1204 2497 
Q 953 2441 691 2322 
L 691 4666 
z
" transform="scale(0.015625)"/>
       </defs>
       <use xlink:href="#DejaVuSans-35"/>
       <use xlink:href="#DejaVuSans-30" x="63.623047"/>
      </g>
     </g>
    </g>
    <g id="xtick_3">
     <g id="line2d_3">
      <g>
       <use xlink:href="#m93ae17f6f3" x="188.900894" y="369.1008" style="stroke: #000000; stroke-width: 0.8"/>
      </g>
     </g>
     <g id="text_3">
      <!-- 100 -->
      <g transform="translate(177.448394 385.218925) scale(0.12 -0.12)">
       <defs>
        <path id="DejaVuSans-31" d="M 794 531 
L 1825 531 
L 1825 4091 
L 703 3866 
L 703 4441 
L 1819 4666 
L 2450 4666 
L 2450 531 
L 3481 531 
L 3481 0 
L 794 0 
L 794 531 
z
" transform="scale(0.015625)"/>
       </defs>
       <use xlink:href="#DejaVuSans-31"/>
       <use xlink:href="#DejaVuSans-30" x="63.623047"/>
       <use xlink:href="#DejaVuSans-30" x="127.246094"/>
      </g>
     </g>
    </g>
    <g id="xtick_4">
     <g id="line2d_4">
      <g>
       <use xlink:href="#m93ae17f6f3" x="241.820432" y="369.1008" style="stroke: #000000; stroke-width: 0.8"/>
      </g>
     </g>
     <g id="text_4">
      <!-- 150 -->
      <g transform="translate(230.367932 385.218925) scale(0.12 -0.12)">
       <use xlink:href="#DejaVuSans-31"/>
       <use xlink:href="#DejaVuSans-35" x="63.623047"/>
       <use xlink:href="#DejaVuSans-30" x="127.246094"/>
      </g>
     </g>
    </g>
    <g id="xtick_5">
     <g id="line2d_5">
      <g>
       <use xlink:href="#m93ae17f6f3" x="294.739971" y="369.1008" style="stroke: #000000; stroke-width: 0.8"/>
      </g>
     </g>
     <g id="text_5">
      <!-- 200 -->
      <g transform="translate(283.287471 385.218925) scale(0.12 -0.12)">
       <defs>
        <path id="DejaVuSans-32" d="M 1228 531 
L 3431 531 
L 3431 0 
L 469 0 
L 469 531 
Q 828 903 1448 1529 
Q 2069 2156 2228 2338 
Q 2531 2678 2651 2914 
Q 2772 3150 2772 3378 
Q 2772 3750 2511 3984 
Q 2250 4219 1831 4219 
Q 1534 4219 1204 4116 
Q 875 4013 500 3803 
L 500 4441 
Q 881 4594 1212 4672 
Q 1544 4750 1819 4750 
Q 2544 4750 2975 4387 
Q 3406 4025 3406 3419 
Q 3406 3131 3298 2873 
Q 3191 2616 2906 2266 
Q 2828 2175 2409 1742 
Q 1991 1309 1228 531 
z
" transform="scale(0.015625)"/>
       </defs>
       <use xlink:href="#DejaVuSans-32"/>
       <use xlink:href="#DejaVuSans-30" x="63.623047"/>
       <use xlink:href="#DejaVuSans-30" x="127.246094"/>
      </g>
     </g>
    </g>
    <g id="xtick_6">
     <g id="line2d_6">
      <g>
       <use xlink:href="#m93ae17f6f3" x="347.659509" y="369.1008" style="stroke: #000000; stroke-width: 0.8"/>
      </g>
     </g>
     <g id="text_6">
      <!-- 250 -->
      <g transform="translate(336.207009 385.218925) scale(0.12 -0.12)">
       <use xlink:href="#DejaVuSans-32"/>
       <use xlink:href="#DejaVuSans-35" x="63.623047"/>
       <use xlink:href="#DejaVuSans-30" x="127.246094"/>
      </g>
     </g>
    </g>
    <g id="xtick_7">
     <g id="line2d_7">
      <g>
       <use xlink:href="#m93ae17f6f3" x="400.579047" y="369.1008" style="stroke: #000000; stroke-width: 0.8"/>
      </g>
     </g>
     <g id="text_7">
      <!-- 300 -->
      <g transform="translate(389.126547 385.218925) scale(0.12 -0.12)">
       <defs>
        <path id="DejaVuSans-33" d="M 2597 2516 
Q 3050 2419 3304 2112 
Q 3559 1806 3559 1356 
Q 3559 666 3084 287 
Q 2609 -91 1734 -91 
Q 1441 -91 1130 -33 
Q 819 25 488 141 
L 488 750 
Q 750 597 1062 519 
Q 1375 441 1716 441 
Q 2309 441 2620 675 
Q 2931 909 2931 1356 
Q 2931 1769 2642 2001 
Q 2353 2234 1838 2234 
L 1294 2234 
L 1294 2753 
L 1863 2753 
Q 2328 2753 2575 2939 
Q 2822 3125 2822 3475 
Q 2822 3834 2567 4026 
Q 2313 4219 1838 4219 
Q 1578 4219 1281 4162 
Q 984 4106 628 3988 
L 628 4550 
Q 988 4650 1302 4700 
Q 1616 4750 1894 4750 
Q 2613 4750 3031 4423 
Q 3450 4097 3450 3541 
Q 3450 3153 3228 2886 
Q 3006 2619 2597 2516 
z
" transform="scale(0.015625)"/>
       </defs>
       <use xlink:href="#DejaVuSans-33"/>
       <use xlink:href="#DejaVuSans-30" x="63.623047"/>
       <use xlink:href="#DejaVuSans-30" x="127.246094"/>
      </g>
     </g>
    </g>
    <g id="xtick_8">
     <g id="line2d_8">
      <g>
       <use xlink:href="#m93ae17f6f3" x="453.498585" y="369.1008" style="stroke: #000000; stroke-width: 0.8"/>
      </g>
     </g>
     <g id="text_8">
      <!-- 350 -->
      <g transform="translate(442.046085 385.218925) scale(0.12 -0.12)">
       <use xlink:href="#DejaVuSans-33"/>
       <use xlink:href="#DejaVuSans-35" x="63.623047"/>
       <use xlink:href="#DejaVuSans-30" x="127.246094"/>
      </g>
     </g>
    </g>
    <g id="text_9">
     <!-- Position [nm] -->
     <g transform="translate(219.48875 402.352362) scale(0.14 -0.14)">
      <defs>
       <path id="DejaVuSans-50" d="M 1259 4147 
L 1259 2394 
L 2053 2394 
Q 2494 2394 2734 2622 
Q 2975 2850 2975 3272 
Q 2975 3691 2734 3919 
Q 2494 4147 2053 4147 
L 1259 4147 
z
M 628 4666 
L 2053 4666 
Q 2838 4666 3239 4311 
Q 3641 3956 3641 3272 
Q 3641 2581 3239 2228 
Q 2838 1875 2053 1875 
L 1259 1875 
L 1259 0 
L 628 0 
L 628 4666 
z
" transform="scale(0.015625)"/>
       <path id="DejaVuSans-6f" d="M 1959 3097 
Q 1497 3097 1228 2736 
Q 959 2375 959 1747 
Q 959 1119 1226 758 
Q 1494 397 1959 397 
Q 2419 397 2687 759 
Q 2956 1122 2956 1747 
Q 2956 2369 2687 2733 
Q 2419 3097 1959 3097 
z
M 1959 3584 
Q 2709 3584 3137 3096 
Q 3566 2609 3566 1747 
Q 3566 888 3137 398 
Q 2709 -91 1959 -91 
Q 1206 -91 779 398 
Q 353 888 353 1747 
Q 353 2609 779 3096 
Q 1206 3584 1959 3584 
z
" transform="scale(0.015625)"/>
       <path id="DejaVuSans-73" d="M 2834 3397 
L 2834 2853 
Q 2591 2978 2328 3040 
Q 2066 3103 1784 3103 
Q 1356 3103 1142 2972 
Q 928 2841 928 2578 
Q 928 2378 1081 2264 
Q 1234 2150 1697 2047 
L 1894 2003 
Q 2506 1872 2764 1633 
Q 3022 1394 3022 966 
Q 3022 478 2636 193 
Q 2250 -91 1575 -91 
Q 1294 -91 989 -36 
Q 684 19 347 128 
L 347 722 
Q 666 556 975 473 
Q 1284 391 1588 391 
Q 1994 391 2212 530 
Q 2431 669 2431 922 
Q 2431 1156 2273 1281 
Q 2116 1406 1581 1522 
L 1381 1569 
Q 847 1681 609 1914 
Q 372 2147 372 2553 
Q 372 3047 722 3315 
Q 1072 3584 1716 3584 
Q 2034 3584 2315 3537 
Q 2597 3491 2834 3397 
z
" transform="scale(0.015625)"/>
       <path id="DejaVuSans-69" d="M 603 3500 
L 1178 3500 
L 1178 0 
L 603 0 
L 603 3500 
z
M 603 4863 
L 1178 4863 
L 1178 4134 
L 603 4134 
L 603 4863 
z
" transform="scale(0.015625)"/>
       <path id="DejaVuSans-74" d="M 1172 4494 
L 1172 3500 
L 2356 3500 
L 2356 3053 
L 1172 3053 
L 1172 1153 
Q 1172 725 1289 603 
Q 1406 481 1766 481 
L 2356 481 
L 2356 0 
L 1766 0 
Q 1100 0 847 248 
Q 594 497 594 1153 
L 594 3053 
L 172 3053 
L 172 3500 
L 594 3500 
L 594 4494 
L 1172 4494 
z
" transform="scale(0.015625)"/>
       <path id="DejaVuSans-6e" d="M 3513 2113 
L 3513 0 
L 2938 0 
L 2938 2094 
Q 2938 2591 2744 2837 
Q 2550 3084 2163 3084 
Q 1697 3084 1428 2787 
Q 1159 2491 1159 1978 
L 1159 0 
L 581 0 
L 581 3500 
L 1159 3500 
L 1159 2956 
Q 1366 3272 1645 3428 
Q 1925 3584 2291 3584 
Q 2894 3584 3203 3211 
Q 3513 2838 3513 2113 
z
" transform="scale(0.015625)"/>
       <path id="DejaVuSans-20" transform="scale(0.015625)"/>
       <path id="DejaVuSans-5b" d="M 550 4863 
L 1875 4863 
L 1875 4416 
L 1125 4416 
L 1125 -397 
L 1875 -397 
L 1875 -844 
L 550 -844 
L 550 4863 
z
" transform="scale(0.015625)"/>
       <path id="DejaVuSans-6d" d="M 3328 2828 
Q 3544 3216 3844 3400 
Q 4144 3584 4550 3584 
Q 5097 3584 5394 3201 
Q 5691 2819 5691 2113 
L 5691 0 
L 5113 0 
L 5113 2094 
Q 5113 2597 4934 2840 
Q 4756 3084 4391 3084 
Q 3944 3084 3684 2787 
Q 3425 2491 3425 1978 
L 3425 0 
L 2847 0 
L 2847 2094 
Q 2847 2600 2669 2842 
Q 2491 3084 2119 3084 
Q 1678 3084 1418 2786 
Q 1159 2488 1159 1978 
L 1159 0 
L 581 0 
L 581 3500 
L 1159 3500 
L 1159 2956 
Q 1356 3278 1631 3431 
Q 1906 3584 2284 3584 
Q 2666 3584 2933 3390 
Q 3200 3197 3328 2828 
z
" transform="scale(0.015625)"/>
       <path id="DejaVuSans-5d" d="M 1947 4863 
L 1947 -844 
L 622 -844 
L 622 -397 
L 1369 -397 
L 1369 4416 
L 622 4416 
L 622 4863 
L 1947 4863 
z
" transform="scale(0.015625)"/>
      </defs>
      <use xlink:href="#DejaVuSans-50"/>
      <use xlink:href="#DejaVuSans-6f" x="56.677734"/>
      <use xlink:href="#DejaVuSans-73" x="117.859375"/>
      <use xlink:href="#DejaVuSans-69" x="169.958984"/>
      <use xlink:href="#DejaVuSans-74" x="197.742188"/>
      <use xlink:href="#DejaVuSans-69" x="236.951172"/>
      <use xlink:href="#DejaVuSans-6f" x="264.734375"/>
      <use xlink:href="#DejaVuSans-6e" x="325.916016"/>
      <use xlink:href="#DejaVuSans-20" x="389.294922"/>
      <use xlink:href="#DejaVuSans-5b" x="421.082031"/>
      <use xlink:href="#DejaVuSans-6e" x="460.095703"/>
      <use xlink:href="#DejaVuSans-6d" x="523.474609"/>
      <use xlink:href="#DejaVuSans-5d" x="620.886719"/>
     </g>
    </g>
   </g>
   <g id="matplotlib.axis_2">
    <g id="ytick_1">
     <g id="line2d_9">
      <defs>
       <path id="m9517f89dba" d="M 0 0 
L -3.5 0 
" style="stroke: #000000; stroke-width: 0.8"/>
      </defs>
      <g>
       <use xlink:href="#m9517f89dba" x="64.8" y="354.855252" style="stroke: #000000; stroke-width: 0.8"/>
      </g>
     </g>
     <g id="text_10">
      <!-- 0.00 -->
      <g transform="translate(31.08125 359.414315) scale(0.12 -0.12)">
       <defs>
        <path id="DejaVuSans-2e" d="M 684 794 
L 1344 794 
L 1344 0 
L 684 0 
L 684 794 
z
" transform="scale(0.015625)"/>
       </defs>
       <use xlink:href="#DejaVuSans-30"/>
       <use xlink:href="#DejaVuSans-2e" x="63.623047"/>
       <use xlink:href="#DejaVuSans-30" x="95.410156"/>
       <use xlink:href="#DejaVuSans-30" x="159.033203"/>
      </g>
     </g>
    </g>
    <g id="ytick_2">
     <g id="line2d_10">
      <g>
       <use xlink:href="#m9517f89dba" x="64.8" y="311.35365" style="stroke: #000000; stroke-width: 0.8"/>
      </g>
     </g>
     <g id="text_11">
      <!-- 0.25 -->
      <g transform="translate(31.08125 315.912712) scale(0.12 -0.12)">
       <use xlink:href="#DejaVuSans-30"/>
       <use xlink:href="#DejaVuSans-2e" x="63.623047"/>
       <use xlink:href="#DejaVuSans-32" x="95.410156"/>
       <use xlink:href="#DejaVuSans-35" x="159.033203"/>
      </g>
     </g>
    </g>
    <g id="ytick_3">
     <g id="line2d_11">
      <g>
       <use xlink:href="#m9517f89dba" x="64.8" y="267.852047" style="stroke: #000000; stroke-width: 0.8"/>
      </g>
     </g>
     <g id="text_12">
      <!-- 0.50 -->
      <g transform="translate(31.08125 272.41111) scale(0.12 -0.12)">
       <use xlink:href="#DejaVuSans-30"/>
       <use xlink:href="#DejaVuSans-2e" x="63.623047"/>
       <use xlink:href="#DejaVuSans-35" x="95.410156"/>
       <use xlink:href="#DejaVuSans-30" x="159.033203"/>
      </g>
     </g>
    </g>
    <g id="ytick_4">
     <g id="line2d_12">
      <g>
       <use xlink:href="#m9517f89dba" x="64.8" y="224.350445" style="stroke: #000000; stroke-width: 0.8"/>
      </g>
     </g>
     <g id="text_13">
      <!-- 0.75 -->
      <g transform="translate(31.08125 228.909507) scale(0.12 -0.12)">
       <defs>
        <path id="DejaVuSans-37" d="M 525 4666 
L 3525 4666 
L 3525 4397 
L 1831 0 
L 1172 0 
L 2766 4134 
L 525 4134 
L 525 4666 
z
" transform="scale(0.015625)"/>
       </defs>
       <use xlink:href="#DejaVuSans-30"/>
       <use xlink:href="#DejaVuSans-2e" x="63.623047"/>
       <use xlink:href="#DejaVuSans-37" x="95.410156"/>
       <use xlink:href="#DejaVuSans-35" x="159.033203"/>
      </g>
     </g>
    </g>
    <g id="ytick_5">
     <g id="line2d_13">
      <g>
       <use xlink:href="#m9517f89dba" x="64.8" y="180.848842" style="stroke: #000000; stroke-width: 0.8"/>
      </g>
     </g>
     <g id="text_14">
      <!-- 1.00 -->
      <g transform="translate(31.08125 185.407905) scale(0.12 -0.12)">
       <use xlink:href="#DejaVuSans-31"/>
       <use xlink:href="#DejaVuSans-2e" x="63.623047"/>
       <use xlink:href="#DejaVuSans-30" x="95.410156"/>
       <use xlink:href="#DejaVuSans-30" x="159.033203"/>
      </g>
     </g>
    </g>
    <g id="ytick_6">
     <g id="line2d_14">
      <g>
       <use xlink:href="#m9517f89dba" x="64.8" y="137.34724" style="stroke: #000000; stroke-width: 0.8"/>
      </g>
     </g>
     <g id="text_15">
      <!-- 1.25 -->
      <g transform="translate(31.08125 141.906302) scale(0.12 -0.12)">
       <use xlink:href="#DejaVuSans-31"/>
       <use xlink:href="#DejaVuSans-2e" x="63.623047"/>
       <use xlink:href="#DejaVuSans-32" x="95.410156"/>
       <use xlink:href="#DejaVuSans-35" x="159.033203"/>
      </g>
     </g>
    </g>
    <g id="ytick_7">
     <g id="line2d_15">
      <g>
       <use xlink:href="#m9517f89dba" x="64.8" y="93.845637" style="stroke: #000000; stroke-width: 0.8"/>
      </g>
     </g>
     <g id="text_16">
      <!-- 1.50 -->
      <g transform="translate(31.08125 98.4047) scale(0.12 -0.12)">
       <use xlink:href="#DejaVuSans-31"/>
       <use xlink:href="#DejaVuSans-2e" x="63.623047"/>
       <use xlink:href="#DejaVuSans-35" x="95.410156"/>
       <use xlink:href="#DejaVuSans-30" x="159.033203"/>
      </g>
     </g>
    </g>
    <g id="ytick_8">
     <g id="line2d_16">
      <g>
       <use xlink:href="#m9517f89dba" x="64.8" y="50.344035" style="stroke: #000000; stroke-width: 0.8"/>
      </g>
     </g>
     <g id="text_17">
      <!-- 1.75 -->
      <g transform="translate(31.08125 54.903097) scale(0.12 -0.12)">
       <use xlink:href="#DejaVuSans-31"/>
       <use xlink:href="#DejaVuSans-2e" x="63.623047"/>
       <use xlink:href="#DejaVuSans-37" x="95.410156"/>
       <use xlink:href="#DejaVuSans-35" x="159.033203"/>
      </g>
     </g>
    </g>
    <g id="text_18">
     <!-- Intensity [counts] -->
     <g transform="translate(24.169687 270.983287) rotate(-90) scale(0.14 -0.14)">
      <defs>
       <path id="DejaVuSans-49" d="M 628 4666 
L 1259 4666 
L 1259 0 
L 628 0 
L 628 4666 
z
" transform="scale(0.015625)"/>
       <path id="DejaVuSans-65" d="M 3597 1894 
L 3597 1613 
L 953 1613 
Q 991 1019 1311 708 
Q 1631 397 2203 397 
Q 2534 397 2845 478 
Q 3156 559 3463 722 
L 3463 178 
Q 3153 47 2828 -22 
Q 2503 -91 2169 -91 
Q 1331 -91 842 396 
Q 353 884 353 1716 
Q 353 2575 817 3079 
Q 1281 3584 2069 3584 
Q 2775 3584 3186 3129 
Q 3597 2675 3597 1894 
z
M 3022 2063 
Q 3016 2534 2758 2815 
Q 2500 3097 2075 3097 
Q 1594 3097 1305 2825 
Q 1016 2553 972 2059 
L 3022 2063 
z
" transform="scale(0.015625)"/>
       <path id="DejaVuSans-79" d="M 2059 -325 
Q 1816 -950 1584 -1140 
Q 1353 -1331 966 -1331 
L 506 -1331 
L 506 -850 
L 844 -850 
Q 1081 -850 1212 -737 
Q 1344 -625 1503 -206 
L 1606 56 
L 191 3500 
L 800 3500 
L 1894 763 
L 2988 3500 
L 3597 3500 
L 2059 -325 
z
" transform="scale(0.015625)"/>
       <path id="DejaVuSans-63" d="M 3122 3366 
L 3122 2828 
Q 2878 2963 2633 3030 
Q 2388 3097 2138 3097 
Q 1578 3097 1268 2742 
Q 959 2388 959 1747 
Q 959 1106 1268 751 
Q 1578 397 2138 397 
Q 2388 397 2633 464 
Q 2878 531 3122 666 
L 3122 134 
Q 2881 22 2623 -34 
Q 2366 -91 2075 -91 
Q 1284 -91 818 406 
Q 353 903 353 1747 
Q 353 2603 823 3093 
Q 1294 3584 2113 3584 
Q 2378 3584 2631 3529 
Q 2884 3475 3122 3366 
z
" transform="scale(0.015625)"/>
       <path id="DejaVuSans-75" d="M 544 1381 
L 544 3500 
L 1119 3500 
L 1119 1403 
Q 1119 906 1312 657 
Q 1506 409 1894 409 
Q 2359 409 2629 706 
Q 2900 1003 2900 1516 
L 2900 3500 
L 3475 3500 
L 3475 0 
L 2900 0 
L 2900 538 
Q 2691 219 2414 64 
Q 2138 -91 1772 -91 
Q 1169 -91 856 284 
Q 544 659 544 1381 
z
M 1991 3584 
L 1991 3584 
z
" transform="scale(0.015625)"/>
      </defs>
      <use xlink:href="#DejaVuSans-49"/>
      <use xlink:href="#DejaVuSans-6e" x="29.492188"/>
      <use xlink:href="#DejaVuSans-74" x="92.871094"/>
      <use xlink:href="#DejaVuSans-65" x="132.080078"/>
      <use xlink:href="#DejaVuSans-6e" x="193.603516"/>
      <use xlink:href="#DejaVuSans-73" x="256.982422"/>
      <use xlink:href="#DejaVuSans-69" x="309.082031"/>
      <use xlink:href="#DejaVuSans-74" x="336.865234"/>
      <use xlink:href="#DejaVuSans-79" x="376.074219"/>
      <use xlink:href="#DejaVuSans-20" x="435.253906"/>
      <use xlink:href="#DejaVuSans-5b" x="467.041016"/>
      <use xlink:href="#DejaVuSans-63" x="506.054688"/>
      <use xlink:href="#DejaVuSans-6f" x="561.035156"/>
      <use xlink:href="#DejaVuSans-75" x="622.216797"/>
      <use xlink:href="#DejaVuSans-6e" x="685.595703"/>
      <use xlink:href="#DejaVuSans-74" x="748.974609"/>
      <use xlink:href="#DejaVuSans-73" x="788.183594"/>
      <use xlink:href="#DejaVuSans-5d" x="840.283203"/>
     </g>
    </g>
   </g>
   <g id="line2d_17">
    <path d="M 83.061818 352.195693 
L 83.88628 352.083769 
L 84.710741 352.713035 
L 85.535202 352.933151 
L 86.359663 352.969529 
L 87.184125 353.251559 
L 88.008586 353.294653 
L 88.833047 353.159395 
L 89.657509 353.150631 
L 90.48197 353.53901 
L 91.306432 353.794438 
L 93.779813 353.346379 
L 94.604279 353.567496 
L 95.428744 353.389977 
L 97.077664 352.737474 
L 98.726584 352.381081 
L 99.551049 352.043274 
L 100.375503 352.113609 
L 101.199969 352.519026 
L 102.024434 353.194047 
L 102.848889 353.492465 
L 104.497808 352.904733 
L 105.322274 352.962247 
L 106.971194 352.659152 
L 108.620124 353.398466 
L 109.444579 353.540674 
L 110.269044 353.464757 
L 111.917964 353.813424 
L 113.566884 352.865919 
L 115.215814 353.005823 
L 116.040269 352.920478 
L 117.689189 354.016992 
L 118.513654 354.004571 
L 120.162574 353.805493 
L 120.987039 353.751525 
L 122.635959 353.367486 
L 123.460424 352.92992 
L 124.284889 352.623625 
L 125.933809 353.891519 
L 126.758264 353.922191 
L 127.582729 353.632135 
L 128.407194 353.605022 
L 129.231649 353.296241 
L 130.056114 352.821721 
L 131.705034 353.210563 
L 133.353965 353.714493 
L 134.178419 352.903595 
L 135.002885 351.445062 
L 135.827339 350.543147 
L 136.651804 350.255027 
L 137.47627 351.072826 
L 138.300724 351.583627 
L 139.12519 351.31801 
L 139.949655 351.518857 
L 140.774109 351.885022 
L 141.598575 352.033782 
L 142.42304 351.837889 
L 144.07196 350.468008 
L 144.896425 350.287513 
L 145.72088 349.98293 
L 146.545345 350.116913 
L 147.3698 350.755139 
L 148.194265 350.637158 
L 149.01873 350.275454 
L 149.843185 350.438439 
L 150.66765 351.185215 
L 152.31657 352.22171 
L 153.141035 352.530607 
L 153.9655 352.103663 
L 154.789955 351.529871 
L 156.438875 351.507529 
L 157.26334 351.097819 
L 158.087805 350.905289 
L 160.56118 352.074513 
L 161.385645 352.627271 
L 162.2101 353.024007 
L 163.034576 352.551044 
L 163.85903 351.505674 
L 164.683495 351.136716 
L 166.332415 351.317937 
L 168.805801 352.758952 
L 169.630255 352.917264 
L 170.45472 352.46403 
L 172.928106 351.520696 
L 173.752571 351.375803 
L 174.577025 351.479704 
L 175.401491 351.797714 
L 176.225945 352.349971 
L 177.050411 352.585384 
L 177.874876 352.311835 
L 178.69933 352.288759 
L 179.523796 352.45581 
L 180.34825 352.303131 
L 181.172716 351.532673 
L 181.997181 351.219602 
L 182.821646 351.848488 
L 183.646101 352.253494 
L 184.470566 351.815974 
L 185.295021 351.113714 
L 186.943951 349.991632 
L 187.768406 349.966142 
L 188.592871 350.991626 
L 189.417283 351.676324 
L 190.24177 351.954329 
L 191.066256 352.35723 
L 191.890742 352.062319 
L 192.715229 351.431683 
L 193.539609 351.306592 
L 194.364096 351.961012 
L 195.188582 352.281917 
L 196.837449 351.248637 
L 197.661936 351.67355 
L 198.486422 351.87466 
L 199.310908 351.66537 
L 201.784262 351.82867 
L 202.608748 351.680347 
L 203.433129 351.029509 
L 204.257615 350.810487 
L 205.082102 351.229688 
L 205.906588 351.889376 
L 206.731074 351.333663 
L 207.555455 350.203908 
L 208.379941 350.323436 
L 210.028914 352.248386 
L 210.853295 352.692721 
L 211.677781 352.632157 
L 212.502267 352.424223 
L 214.151134 352.399681 
L 214.975621 352.630906 
L 215.800107 352.555831 
L 217.448974 351.106373 
L 218.273461 350.784518 
L 219.097947 351.410621 
L 219.922433 352.219391 
L 220.746814 351.836222 
L 221.5713 350.949217 
L 222.395787 351.029316 
L 224.044654 352.525545 
L 224.86914 352.824256 
L 226.518113 351.801346 
L 227.342599 351.848075 
L 228.16698 351.71929 
L 228.991466 351.841134 
L 230.640439 352.963789 
L 232.289306 353.466077 
L 233.113793 353.182803 
L 233.938279 352.313283 
L 234.76266 351.777597 
L 235.587146 351.982114 
L 236.411632 352.367651 
L 237.236119 352.180433 
L 238.060499 351.410898 
L 239.709472 350.597548 
L 240.533958 349.815992 
L 241.358339 349.431281 
L 242.182825 348.507869 
L 243.007312 347.818297 
L 243.831798 348.081327 
L 244.656285 348.869313 
L 245.480665 349.495928 
L 246.305152 349.056118 
L 247.129638 348.263573 
L 247.954124 348.400608 
L 248.778505 347.960267 
L 250.427478 345.39901 
L 251.251964 345.085984 
L 252.076345 343.990057 
L 252.900831 341.101542 
L 253.725318 339.296822 
L 254.549804 339.32664 
L 255.374185 338.348042 
L 256.198671 334.853494 
L 257.023157 332.164712 
L 257.847644 332.012804 
L 258.67213 332.289614 
L 259.496511 330.230056 
L 260.320997 327.850501 
L 261.145484 328.159537 
L 261.96997 328.964647 
L 262.794351 330.145785 
L 263.618837 333.073513 
L 264.443323 335.414804 
L 265.26781 335.695006 
L 266.09219 336.094229 
L 266.916677 336.861493 
L 267.741163 334.791443 
L 268.565649 331.075519 
L 269.39003 328.925113 
L 270.214516 327.95273 
L 271.039003 328.317848 
L 271.863489 328.33109 
L 272.687976 325.654593 
L 273.512356 321.917875 
L 274.336843 318.925591 
L 275.985815 314.707414 
L 277.634682 312.567118 
L 278.459169 310.390837 
L 279.283655 309.495835 
L 280.108036 310.199622 
L 281.757009 313.165735 
L 282.581495 313.275046 
L 283.405876 312.148563 
L 284.230362 312.883566 
L 285.054848 313.976448 
L 285.879335 313.309795 
L 286.703821 312.459669 
L 287.528202 314.332657 
L 288.352688 314.452512 
L 290.001661 307.905295 
L 290.826042 306.608912 
L 291.650528 306.611018 
L 292.475014 307.024944 
L 293.299501 308.173804 
L 294.123881 308.533058 
L 294.948368 307.288721 
L 296.59734 305.517388 
L 297.421721 306.136589 
L 298.246207 306.908795 
L 299.070694 305.400073 
L 299.89518 304.315282 
L 300.719667 304.230802 
L 301.544047 303.661487 
L 302.368534 304.444134 
L 303.19302 306.504717 
L 304.017506 307.429457 
L 304.841887 307.637517 
L 305.666373 307.108989 
L 306.49086 306.382913 
L 307.315346 306.687198 
L 308.139727 305.547839 
L 308.964213 304.942157 
L 309.7887 305.840726 
L 310.613186 306.311762 
L 312.262053 310.614453 
L 313.086539 309.303384 
L 313.911026 307.097053 
L 314.735512 309.807777 
L 315.559893 315.244938 
L 316.384379 317.9384 
L 317.208866 316.908682 
L 318.033352 313.408004 
L 319.682219 300.813577 
L 320.506705 301.750775 
L 321.331192 306.60585 
L 322.155572 310.417391 
L 322.980059 312.631518 
L 323.804545 312.313017 
L 324.629032 312.500474 
L 325.453412 312.064849 
L 326.277898 310.7345 
L 327.102385 309.914269 
L 327.926871 308.257206 
L 328.751358 308.029101 
L 331.224711 316.009452 
L 332.049197 318.261252 
L 332.873578 317.005082 
L 333.698064 314.986851 
L 335.347037 316.45811 
L 336.171418 316.474432 
L 336.995904 316.996434 
L 338.644877 323.306202 
L 339.469258 322.490304 
L 340.293744 319.299966 
L 341.11823 316.725924 
L 341.942717 316.573285 
L 342.767097 317.41438 
L 343.591584 317.743565 
L 344.41607 318.913741 
L 345.240557 320.808549 
L 346.889424 322.690776 
L 348.538396 326.768547 
L 349.362883 326.614534 
L 350.187263 325.365411 
L 351.836236 323.495678 
L 352.660723 324.270476 
L 353.485103 325.425583 
L 355.134076 324.268719 
L 355.958562 324.433886 
L 356.782943 322.380244 
L 357.607429 321.565947 
L 358.431916 324.541717 
L 359.256402 326.188166 
L 360.080783 326.061837 
L 361.729755 327.303895 
L 362.554242 327.617107 
L 363.378728 326.927972 
L 364.203109 325.035199 
L 365.027595 325.562491 
L 365.852082 326.904098 
L 366.676568 326.113778 
L 367.500949 326.268209 
L 368.325435 327.80385 
L 369.149921 327.285851 
L 369.974408 325.953396 
L 370.798788 326.845197 
L 371.623275 326.96105 
L 372.447761 325.814992 
L 373.272248 327.651682 
L 374.096628 330.465696 
L 374.921115 330.799649 
L 376.570087 327.477884 
L 377.394468 327.471968 
L 378.218954 327.257314 
L 379.043441 328.562222 
L 379.867927 331.238476 
L 380.692308 332.166382 
L 381.516794 330.986445 
L 382.34128 330.199379 
L 383.165767 330.797004 
L 383.990147 330.344796 
L 384.814634 328.220735 
L 385.63912 328.359227 
L 386.463607 330.473109 
L 388.112474 332.267236 
L 388.93696 333.914016 
L 389.761446 334.212941 
L 391.410419 331.879202 
L 392.2348 332.115381 
L 393.883773 336.425015 
L 394.708259 337.144271 
L 395.53264 337.420871 
L 396.357126 335.633408 
L 397.181612 333.169477 
L 398.006099 333.281781 
L 398.830479 334.541465 
L 399.654966 335.148348 
L 400.479452 335.145111 
L 401.303939 335.584616 
L 402.952806 334.333128 
L 403.777292 334.811837 
L 404.601778 334.287799 
L 405.426159 333.188322 
L 406.250645 333.007877 
L 407.899618 333.792333 
L 408.723999 334.425664 
L 409.548485 335.522531 
L 410.372971 337.340567 
L 411.197458 338.407364 
L 412.021838 337.625966 
L 412.846325 336.029638 
L 413.670811 335.127241 
L 414.495298 335.386823 
L 416.144165 332.754315 
L 416.968651 333.333391 
L 417.793137 334.237894 
L 418.617624 335.383221 
L 419.44211 336.788532 
L 420.266491 336.954447 
L 421.090977 335.985875 
L 421.915464 335.586739 
L 422.73995 334.995727 
L 423.564331 334.219188 
L 424.388817 335.488548 
L 426.86217 337.894475 
L 427.686657 336.731127 
L 428.511143 335.862714 
L 430.16001 337.425987 
L 430.984497 339.126369 
L 431.808983 341.52799 
L 432.633469 341.781648 
L 434.282336 337.276568 
L 435.106823 336.540608 
L 435.931309 338.468021 
L 436.75569 341.06171 
L 437.580176 341.772326 
L 438.404662 341.924792 
L 439.229149 342.249996 
L 440.053529 342.235698 
L 440.878016 342.557803 
L 442.526989 344.83376 
L 443.351475 345.277633 
L 445.000342 345.571537 
L 445.824828 347.120001 
L 447.473695 351.184824 
L 448.298182 351.922221 
L 448.298182 351.922221 
" clip-path="url(#p7ba129f860)" style="fill: none; stroke-dasharray: 1.5,2.475; stroke-dashoffset: 0; stroke: #4477aa; stroke-width: 1.5"/>
   </g>
   <g id="line2d_18">
    <path d="M 83.061818 354.517068 
L 83.88628 353.897492 
L 84.710741 352.93399 
L 85.535202 352.408663 
L 86.359663 352.556749 
L 88.008586 353.305065 
L 90.48197 352.997483 
L 91.306432 352.546848 
L 92.130892 352.537384 
L 93.779813 353.779467 
L 94.604279 354.011394 
L 97.077664 353.793322 
L 97.902118 353.547663 
L 99.551049 353.689657 
L 100.375503 353.51276 
L 101.199969 353.20678 
L 102.848889 353.812171 
L 105.322274 353.732784 
L 106.146739 354.031023 
L 106.971194 354.097119 
L 108.620124 353.554542 
L 110.269044 353.926734 
L 111.093499 353.7804 
L 111.917964 353.510052 
L 112.742429 353.081086 
L 113.566884 352.967138 
L 114.391349 353.130296 
L 115.215814 353.470045 
L 116.864734 354.414771 
L 117.689189 354.5856 
L 120.162574 354.129498 
L 120.987039 353.751339 
L 121.811504 353.509991 
L 123.460424 353.932845 
L 124.284889 353.949516 
L 125.109344 354.125232 
L 125.933809 353.978852 
L 126.758264 353.484695 
L 127.582729 353.336431 
L 128.407194 353.632446 
L 130.056114 353.730282 
L 130.88058 354.193066 
L 131.705034 354.511361 
L 132.529499 354.234384 
L 134.178419 352.139994 
L 135.002885 351.798221 
L 135.827339 351.581605 
L 137.47627 349.775763 
L 139.12519 351.219233 
L 140.774109 351.043097 
L 142.42304 351.499579 
L 143.247495 351.470245 
L 144.07196 351.289953 
L 144.896425 351.235788 
L 145.72088 350.5973 
L 146.545345 349.771119 
L 147.3698 350.188818 
L 148.194265 351.395745 
L 149.01873 351.971947 
L 149.843185 351.247602 
L 150.66765 350.219013 
L 151.492105 350.553913 
L 152.31657 351.444133 
L 153.141035 351.69398 
L 156.438875 350.713177 
L 158.087805 351.966304 
L 158.91226 352.013484 
L 159.736725 352.242074 
L 160.56118 352.854847 
L 161.385645 352.947818 
L 162.2101 351.453825 
L 163.034576 349.450204 
L 163.85903 349.349444 
L 164.683495 350.336974 
L 166.332415 351.660211 
L 167.156881 351.575364 
L 167.981335 351.291065 
L 168.805801 351.329122 
L 170.45472 351.131821 
L 171.279175 351.258404 
L 172.103651 351.148686 
L 172.928106 350.872327 
L 173.752571 350.328056 
L 174.577025 350.067203 
L 175.401491 350.291696 
L 177.050411 349.700225 
L 177.874876 350.245781 
L 178.69933 350.657809 
L 180.34825 350.682105 
L 181.997181 351.380433 
L 182.821646 351.201274 
L 183.646101 351.164126 
L 184.470566 351.810612 
L 185.295021 352.025837 
L 186.943951 350.924677 
L 187.768406 351.087947 
L 188.592871 351.625991 
L 190.24177 350.822807 
L 191.066256 351.454678 
L 191.890742 351.923288 
L 193.539609 352.387077 
L 194.364096 352.691409 
L 195.188582 352.566031 
L 196.013069 351.950862 
L 196.837449 351.601931 
L 198.486422 351.384526 
L 200.135289 350.764939 
L 200.959775 350.83268 
L 201.784262 351.437352 
L 202.608748 351.652205 
L 203.433129 351.422361 
L 204.257615 351.703211 
L 205.906588 352.419356 
L 206.731074 352.345847 
L 207.555455 351.679828 
L 208.379941 351.363986 
L 209.204428 351.893099 
L 210.028914 351.839792 
L 210.853295 350.660762 
L 211.677781 350.602776 
L 212.502267 351.663244 
L 213.326754 351.900507 
L 214.975621 350.957749 
L 216.624594 351.70211 
L 217.448974 351.480991 
L 219.097947 350.685331 
L 219.922433 350.922744 
L 220.746814 350.609939 
L 221.5713 349.712073 
L 222.395787 349.136998 
L 223.220273 349.602531 
L 224.86914 352.004312 
L 225.693627 352.436913 
L 226.518113 352.205808 
L 227.342599 351.668441 
L 228.16698 351.377581 
L 228.991466 351.229079 
L 229.815953 350.347306 
L 230.640439 349.053339 
L 231.46482 348.570092 
L 232.289306 349.059405 
L 233.113793 349.331748 
L 234.76266 348.259936 
L 235.587146 348.065633 
L 236.411632 347.283685 
L 237.236119 347.341407 
L 238.060499 347.942444 
L 238.884986 348.386191 
L 239.709472 348.440715 
L 240.533958 347.723798 
L 241.358339 346.559524 
L 242.182825 344.82408 
L 243.007312 344.135398 
L 243.831798 344.885066 
L 244.656285 344.909112 
L 245.480665 343.499399 
L 247.129638 342.016763 
L 248.778505 338.94729 
L 249.602991 336.240708 
L 251.251964 327.954731 
L 252.900831 320.958299 
L 253.725318 315.515083 
L 254.549804 307.532382 
L 257.023157 272.198814 
L 257.847644 266.474839 
L 258.67213 268.425677 
L 259.496511 272.158706 
L 261.145484 284.17223 
L 261.96997 286.441152 
L 262.794351 284.323059 
L 263.618837 282.954794 
L 264.443323 286.741313 
L 265.26781 291.934987 
L 266.09219 295.292806 
L 266.916677 294.91509 
L 267.741163 287.427925 
L 268.565649 278.47305 
L 270.214516 264.080597 
L 271.039003 259.647645 
L 271.863489 253.330916 
L 273.512356 233.423034 
L 274.336843 228.525781 
L 275.161329 230.557949 
L 275.985815 234.741464 
L 276.810196 231.767102 
L 277.634682 230.156482 
L 279.283655 236.710659 
L 280.108036 239.15103 
L 280.932522 236.164175 
L 281.757009 229.065827 
L 282.581495 225.840827 
L 283.405876 227.769183 
L 284.230362 228.087006 
L 285.054848 228.233728 
L 285.879335 226.988486 
L 286.703821 221.68585 
L 287.528202 220.036948 
L 288.352688 226.100584 
L 289.177175 228.433505 
L 290.001661 222.723293 
L 290.826042 218.619648 
L 291.650528 217.368751 
L 292.475014 215.72533 
L 293.299501 215.38064 
L 294.123881 216.235673 
L 294.948368 221.071624 
L 295.772854 226.655577 
L 296.59734 224.892509 
L 297.421721 222.47128 
L 298.246207 222.503976 
L 299.070694 223.192032 
L 300.719667 229.510344 
L 301.544047 228.590546 
L 302.368534 224.79879 
L 303.19302 223.222674 
L 304.017506 225.420601 
L 304.841887 229.993107 
L 305.666373 229.413231 
L 306.49086 221.022572 
L 307.315346 214.410937 
L 308.139727 217.642306 
L 308.964213 224.861467 
L 309.7887 228.311266 
L 310.613186 230.766705 
L 311.437567 228.528913 
L 312.262053 223.152602 
L 313.086539 222.7772 
L 313.911026 230.450709 
L 314.735512 241.03016 
L 315.559893 243.909948 
L 316.384379 240.432674 
L 317.208866 236.170596 
L 318.857733 230.356432 
L 319.682219 229.993055 
L 320.506705 231.357404 
L 321.331192 231.185608 
L 322.155572 233.284839 
L 322.980059 237.435518 
L 323.804545 240.125901 
L 324.629032 238.798893 
L 325.453412 237.073654 
L 326.277898 237.109517 
L 327.102385 239.63482 
L 327.926871 243.153125 
L 328.751358 245.015359 
L 329.575738 248.795561 
L 330.400225 250.281176 
L 332.049197 239.387365 
L 332.873578 238.080316 
L 333.698064 237.256726 
L 334.522551 240.702419 
L 335.347037 249.113279 
L 336.171418 252.372332 
L 336.995904 252.143114 
L 337.820391 252.264779 
L 338.644877 252.961449 
L 339.469258 255.303035 
L 340.293744 255.990831 
L 341.11823 253.950779 
L 341.942717 253.234047 
L 342.767097 253.573307 
L 343.591584 253.389678 
L 344.41607 251.426416 
L 345.240557 248.730413 
L 346.064937 248.315095 
L 346.889424 250.937702 
L 347.71391 250.684644 
L 348.538396 249.029582 
L 349.362883 254.295138 
L 350.187263 260.535756 
L 351.01175 259.32093 
L 351.836236 257.346428 
L 353.485103 263.645216 
L 354.309589 262.555483 
L 355.134076 262.377336 
L 355.958562 266.185588 
L 356.782943 265.269705 
L 357.607429 260.587036 
L 358.431916 260.137786 
L 359.256402 260.640386 
L 360.080783 260.170499 
L 360.905269 261.794136 
L 361.729755 265.205462 
L 362.554242 269.918147 
L 363.378728 271.574531 
L 364.203109 271.26219 
L 365.027595 270.535104 
L 365.852082 269.611008 
L 366.676568 268.230842 
L 368.325435 267.441792 
L 369.149921 264.315976 
L 369.974408 264.461062 
L 370.798788 269.298684 
L 371.623275 269.717674 
L 372.447761 265.224272 
L 373.272248 262.750405 
L 374.096628 264.282932 
L 377.394468 276.504672 
L 378.218954 276.196194 
L 379.043441 275.174115 
L 379.867927 275.718129 
L 380.692308 273.910098 
L 381.516794 271.055871 
L 382.34128 271.315384 
L 383.165767 272.925361 
L 383.990147 275.701476 
L 384.814634 274.498901 
L 385.63912 272.937802 
L 386.463607 277.867595 
L 387.288093 279.133805 
L 388.112474 270.215942 
L 388.93696 263.777356 
L 389.761446 263.791416 
L 390.585933 267.352318 
L 391.410419 272.726349 
L 392.2348 276.221964 
L 393.059286 277.670133 
L 393.883773 277.432161 
L 394.708259 279.034291 
L 395.53264 279.387941 
L 397.181612 272.059748 
L 398.006099 270.159407 
L 398.830479 268.67689 
L 399.654966 269.56521 
L 400.479452 274.466501 
L 401.303939 277.441732 
L 402.128319 275.323273 
L 402.952806 273.724102 
L 403.777292 275.649274 
L 404.601778 276.562947 
L 405.426159 275.003589 
L 406.250645 274.702941 
L 407.075132 275.98053 
L 407.899618 279.609034 
L 408.723999 285.61932 
L 409.548485 288.200461 
L 410.372971 283.517253 
L 411.197458 280.435582 
L 412.021838 282.29397 
L 412.846325 285.577541 
L 413.670811 286.404071 
L 414.495298 283.215177 
L 416.144165 274.802751 
L 416.968651 274.751662 
L 418.617624 279.543207 
L 419.44211 285.622904 
L 420.266491 288.530081 
L 421.090977 285.821863 
L 421.915464 280.057657 
L 422.73995 277.083226 
L 423.564331 281.363297 
L 424.388817 287.530606 
L 425.213303 286.180403 
L 426.03779 282.620893 
L 426.86217 285.391684 
L 427.686657 286.793915 
L 428.511143 285.569397 
L 429.33563 289.804957 
L 430.16001 295.007174 
L 430.984497 293.790191 
L 431.808983 289.595018 
L 432.633469 288.567597 
L 433.45785 289.742297 
L 434.282336 293.132412 
L 435.106823 297.546485 
L 437.580176 313.070031 
L 438.404662 315.660065 
L 439.229149 317.087213 
L 440.053529 320.984174 
L 440.878016 326.700319 
L 441.702502 330.826829 
L 442.526989 332.210476 
L 443.351475 330.913084 
L 444.175856 331.654368 
L 445.000342 335.983126 
L 446.649315 345.642511 
L 447.473695 347.898311 
L 448.298182 347.890788 
L 448.298182 347.890788 
" clip-path="url(#p7ba129f860)" style="fill: none; stroke-dasharray: 1.5,2.475; stroke-dashoffset: 0; stroke: #ee6677; stroke-width: 1.5"/>
   </g>
   <g id="line2d_19">
    <path d="M 83.061818 353.670186 
L 83.88628 353.66077 
L 84.710741 353.537136 
L 86.359663 354.071827 
L 88.008586 354.024421 
L 88.833047 353.753011 
L 89.657509 353.35959 
L 90.48197 353.196197 
L 92.130892 353.963078 
L 92.955353 353.995642 
L 93.779813 353.786607 
L 94.604279 353.22788 
L 95.428744 352.878847 
L 96.253198 353.123854 
L 97.077664 353.22908 
L 99.551049 352.733667 
L 102.024434 352.883105 
L 102.848889 352.502726 
L 103.673354 351.984442 
L 104.497808 352.006193 
L 105.322274 352.400102 
L 106.146739 352.93964 
L 106.971194 353.127872 
L 107.795659 353.02958 
L 108.620124 353.186233 
L 109.444579 353.130361 
L 110.269044 352.790816 
L 111.093499 352.879303 
L 111.917964 353.11921 
L 113.566884 353.326074 
L 114.391349 353.446042 
L 115.215814 353.390356 
L 116.040269 352.917379 
L 116.864734 352.068096 
L 117.689189 351.63608 
L 119.338119 352.650086 
L 120.987039 352.543433 
L 122.635959 352.369388 
L 124.284889 353.346364 
L 125.109344 353.389897 
L 127.582729 352.804731 
L 128.407194 352.249774 
L 129.231649 351.512742 
L 130.056114 351.012475 
L 131.705034 350.791397 
L 132.529499 345.180454 
L 133.353965 322.36053 
L 134.178419 276.504986 
L 135.002885 224.279363 
L 135.827339 187.538118 
L 136.651804 169.529029 
L 137.47627 162.977688 
L 138.300724 160.175663 
L 139.12519 158.949439 
L 139.949655 159.554808 
L 140.774109 156.31794 
L 141.598575 149.03264 
L 142.42304 148.077693 
L 144.07196 160.029671 
L 144.896425 161.115645 
L 145.72088 158.071055 
L 146.545345 152.72001 
L 147.3698 150.219016 
L 149.01873 160.841585 
L 149.843185 157.065472 
L 150.66765 152.305005 
L 151.492105 153.816598 
L 152.31657 154.478519 
L 153.141035 151.690936 
L 153.9655 150.766962 
L 155.61442 158.855998 
L 156.438875 162.033529 
L 157.26334 162.568077 
L 158.087805 163.975789 
L 158.91226 169.170576 
L 159.736725 172.59711 
L 160.56118 168.58226 
L 161.385645 163.110455 
L 162.2101 161.673336 
L 163.034576 161.985677 
L 163.85903 160.646698 
L 164.683495 157.953427 
L 165.50795 158.045302 
L 166.332415 162.199705 
L 167.156881 163.991971 
L 167.981335 162.163512 
L 168.805801 164.652151 
L 169.630255 167.903287 
L 170.45472 166.573704 
L 171.279175 164.539743 
L 172.103651 166.46408 
L 172.928106 167.687519 
L 173.752571 163.071651 
L 174.577025 160.053684 
L 175.401491 169.875128 
L 176.225945 177.082821 
L 177.874876 165.940147 
L 178.69933 170.801538 
L 179.523796 177.548811 
L 180.34825 177.582394 
L 181.172716 177.81069 
L 181.997181 176.902551 
L 182.821646 175.555567 
L 183.646101 179.777833 
L 184.470566 186.217549 
L 185.295021 187.650457 
L 186.119486 184.690155 
L 187.768406 192.717106 
L 188.592871 186.800192 
L 190.24177 172.528204 
L 191.066256 166.360372 
L 191.890742 169.388954 
L 192.715229 176.042437 
L 195.188582 184.044957 
L 196.837449 184.800684 
L 197.661936 185.096652 
L 198.486422 180.082866 
L 199.310908 180.051197 
L 200.135289 189.554139 
L 200.959775 193.823004 
L 201.784262 195.748489 
L 203.433129 203.132834 
L 204.257615 201.228438 
L 205.082102 194.993962 
L 205.906588 193.870473 
L 206.731074 196.157543 
L 207.555455 195.563155 
L 208.379941 194.049769 
L 209.204428 197.389648 
L 210.028914 202.375349 
L 210.853295 206.635252 
L 211.677781 205.694643 
L 212.502267 205.758712 
L 213.326754 208.523204 
L 214.151134 202.010962 
L 214.975621 193.524339 
L 215.800107 195.21984 
L 216.624594 198.004064 
L 217.448974 198.005143 
L 218.273461 201.388628 
L 219.097947 203.763137 
L 219.922433 208.736832 
L 220.746814 217.355787 
L 221.5713 220.933759 
L 222.395787 215.360438 
L 223.220273 208.029305 
L 224.86914 203.32398 
L 225.693627 205.080731 
L 226.518113 211.002935 
L 227.342599 218.745246 
L 228.16698 228.052187 
L 228.991466 230.962236 
L 229.815953 230.263391 
L 230.640439 228.495504 
L 231.46482 225.359577 
L 232.289306 225.811768 
L 233.113793 225.938427 
L 233.938279 223.868238 
L 234.76266 223.604009 
L 235.587146 227.408346 
L 236.411632 233.744563 
L 237.236119 236.815359 
L 238.060499 234.388265 
L 238.884986 229.934832 
L 239.709472 227.684338 
L 240.533958 227.705532 
L 241.358339 226.876617 
L 242.182825 230.573244 
L 243.007312 235.509075 
L 243.831798 236.199881 
L 244.656285 237.427044 
L 245.480665 241.977416 
L 246.305152 245.343605 
L 247.129638 242.5887 
L 247.954124 238.746865 
L 248.778505 238.327945 
L 249.602991 240.181026 
L 250.427478 242.529538 
L 251.251964 247.188699 
L 252.900831 257.861661 
L 254.549804 271.064031 
L 255.374185 275.05466 
L 256.198671 275.463766 
L 257.023157 276.658999 
L 257.847644 279.345484 
L 258.67213 285.637973 
L 259.496511 293.412701 
L 260.320997 296.998834 
L 261.96997 302.153826 
L 262.794351 305.834201 
L 263.618837 310.693121 
L 264.443323 314.528675 
L 266.09219 326.082196 
L 266.916677 328.110989 
L 267.741163 328.019949 
L 268.565649 326.481489 
L 269.39003 324.54163 
L 270.214516 324.910106 
L 271.039003 326.802026 
L 271.863489 326.280981 
L 272.687976 324.438775 
L 273.512356 325.036139 
L 274.336843 327.832561 
L 275.161329 329.221063 
L 275.985815 328.154699 
L 276.810196 327.767483 
L 277.634682 328.548041 
L 279.283655 327.163994 
L 280.108036 328.591508 
L 280.932522 329.46368 
L 281.757009 332.220324 
L 282.581495 334.376438 
L 284.230362 330.184954 
L 285.054848 332.075551 
L 285.879335 335.521069 
L 286.703821 338.142425 
L 287.528202 338.395485 
L 288.352688 337.026921 
L 289.177175 335.442384 
L 290.001661 335.15449 
L 290.826042 335.479656 
L 291.650528 335.467093 
L 292.475014 335.987859 
L 293.299501 336.302845 
L 294.123881 337.065515 
L 294.948368 339.224368 
L 295.772854 340.288252 
L 296.59734 339.750471 
L 297.421721 339.428592 
L 298.246207 339.648444 
L 299.070694 340.243784 
L 299.89518 341.03623 
L 301.544047 341.307164 
L 302.368534 341.592637 
L 303.19302 340.822519 
L 304.017506 341.19344 
L 304.841887 343.846415 
L 305.666373 344.999446 
L 306.49086 343.710477 
L 307.315346 343.197943 
L 308.139727 343.937953 
L 308.964213 343.529314 
L 309.7887 342.770112 
L 310.613186 343.081406 
L 311.437567 344.335107 
L 312.262053 344.818328 
L 313.086539 344.550137 
L 313.911026 345.81624 
L 314.735512 346.006311 
L 315.559893 344.565343 
L 316.384379 344.129363 
L 318.033352 345.015216 
L 318.857733 345.91615 
L 319.682219 346.553448 
L 320.506705 346.300612 
L 321.331192 345.344725 
L 322.155572 344.752774 
L 322.980059 345.10193 
L 323.804545 345.584634 
L 325.453412 347.179186 
L 326.277898 347.833676 
L 327.102385 347.861578 
L 327.926871 347.037593 
L 328.751358 345.77517 
L 329.575738 345.029853 
L 330.400225 345.249195 
L 331.224711 346.664549 
L 332.049197 347.800827 
L 333.698064 348.165142 
L 334.522551 348.734088 
L 335.347037 348.976176 
L 336.171418 348.029701 
L 336.995904 347.49401 
L 337.820391 347.876041 
L 338.644877 347.932447 
L 340.293744 347.471024 
L 341.11823 347.603121 
L 341.942717 347.867156 
L 342.767097 348.337437 
L 343.591584 348.318484 
L 344.41607 347.767204 
L 345.240557 347.748152 
L 346.889424 349.159018 
L 347.71391 349.636339 
L 349.362883 349.366672 
L 351.01175 349.929809 
L 352.660723 349.450079 
L 353.485103 349.656132 
L 354.309589 349.328553 
L 355.134076 348.611086 
L 355.958562 348.344007 
L 356.782943 348.537809 
L 358.431916 349.277284 
L 360.080783 348.780977 
L 362.554242 348.435228 
L 363.378728 348.654995 
L 364.203109 349.129105 
L 365.027595 349.98708 
L 365.852082 350.137427 
L 366.676568 350.087717 
L 367.500949 350.227541 
L 369.974408 350.200135 
L 370.798788 349.886985 
L 371.623275 349.41811 
L 372.447761 348.804404 
L 373.272248 348.411993 
L 374.921115 348.58685 
L 375.745601 349.261809 
L 376.570087 350.537708 
L 377.394468 350.474345 
L 378.218954 349.452308 
L 379.043441 349.270532 
L 379.867927 349.718113 
L 380.692308 349.897799 
L 381.516794 350.764168 
L 382.34128 351.175476 
L 383.165767 350.726439 
L 383.990147 350.90653 
L 384.814634 351.319724 
L 385.63912 351.185942 
L 386.463607 350.876147 
L 387.288093 350.400994 
L 388.112474 349.700356 
L 388.93696 348.768031 
L 389.761446 348.509753 
L 390.585933 348.699487 
L 391.410419 348.286963 
L 392.2348 348.290159 
L 393.059286 349.363311 
L 393.883773 351.033642 
L 394.708259 351.59768 
L 395.53264 350.920974 
L 396.357126 350.596217 
L 398.006099 351.196858 
L 398.830479 351.357027 
L 399.654966 350.255918 
L 400.479452 348.676345 
L 401.303939 348.427259 
L 402.128319 349.397115 
L 402.952806 350.893036 
L 403.777292 351.119783 
L 404.601778 350.212777 
L 405.426159 350.237736 
L 406.250645 351.275819 
L 407.075132 351.891394 
L 407.899618 352.129546 
L 408.723999 351.890882 
L 409.548485 351.321688 
L 410.372971 351.268468 
L 411.197458 351.378655 
L 412.021838 351.296289 
L 412.846325 351.093227 
L 414.495298 351.189402 
L 415.319784 351.46011 
L 416.144165 351.035831 
L 416.968651 349.92051 
L 417.793137 349.590399 
L 418.617624 350.025997 
L 419.44211 350.173142 
L 420.266491 350.147484 
L 421.090977 349.846166 
L 421.915464 349.70357 
L 422.73995 350.454794 
L 423.564331 351.458922 
L 424.388817 352.106988 
L 425.213303 352.210438 
L 427.686657 350.477971 
L 428.511143 350.666145 
L 430.16001 351.679127 
L 430.984497 351.876842 
L 432.633469 351.788668 
L 434.282336 351.213736 
L 435.106823 351.296322 
L 435.931309 351.225231 
L 438.404662 351.578101 
L 439.229149 351.980712 
L 440.878016 353.66026 
L 441.702502 353.970327 
L 442.526989 353.862103 
L 444.175856 353.359174 
L 446.649315 353.766755 
L 447.473695 354.251861 
L 448.298182 354.540096 
L 448.298182 354.540096 
" clip-path="url(#p7ba129f860)" style="fill: none; stroke-dasharray: 5.55,2.4; stroke-dashoffset: 0; stroke: #228833; stroke-width: 1.5"/>
   </g>
   <g id="line2d_20">
    <path d="M 83.061818 352.633457 
L 83.88628 352.608342 
L 84.710741 352.825382 
L 85.535202 352.85401 
L 86.359663 352.454876 
L 87.184125 352.210487 
L 88.833047 353.313142 
L 89.657509 353.210591 
L 90.48197 352.651372 
L 91.306432 352.764511 
L 92.130892 353.318492 
L 92.955353 353.340122 
L 93.779813 352.871295 
L 94.604279 352.681011 
L 95.428744 352.959854 
L 96.253198 352.813567 
L 97.077664 351.991392 
L 97.902118 351.844068 
L 98.726584 352.63631 
L 99.551049 353.18411 
L 101.199969 353.795527 
L 102.024434 353.529155 
L 102.848889 352.490442 
L 103.673354 351.784293 
L 104.497808 352.029312 
L 106.146739 352.664518 
L 106.971194 352.776337 
L 107.795659 352.575732 
L 108.620124 352.490249 
L 109.444579 352.523895 
L 110.269044 352.326948 
L 111.093499 352.332405 
L 111.917964 352.555634 
L 113.566884 353.180588 
L 114.391349 353.13908 
L 115.215814 352.816915 
L 116.040269 352.746905 
L 116.864734 352.843848 
L 117.689189 352.733743 
L 118.513654 352.00861 
L 119.338119 351.028512 
L 120.162574 351.07028 
L 120.987039 352.080998 
L 121.811504 352.761845 
L 123.460424 353.447547 
L 124.284889 353.567888 
L 125.109344 353.405762 
L 125.933809 353.409941 
L 126.758264 353.182812 
L 127.582729 352.677212 
L 128.407194 352.515277 
L 129.231649 352.507756 
L 130.056114 352.061879 
L 131.705034 351.931264 
L 132.529499 349.766294 
L 133.353965 341.579969 
L 134.178419 325.125596 
L 135.002885 305.820107 
L 135.827339 290.446379 
L 136.651804 281.358808 
L 137.47627 280.458133 
L 139.12519 287.06808 
L 139.949655 287.457071 
L 140.774109 284.300577 
L 141.598575 282.864241 
L 143.247495 288.303804 
L 144.07196 287.744129 
L 144.896425 285.077968 
L 145.72088 281.05929 
L 146.545345 281.082764 
L 147.3698 286.289471 
L 148.194265 286.267285 
L 149.01873 283.675703 
L 149.843185 284.56197 
L 151.492105 285.214024 
L 152.31657 287.147635 
L 153.141035 288.572191 
L 153.9655 288.700295 
L 154.789955 288.041663 
L 155.61442 286.597914 
L 156.438875 284.930098 
L 157.26334 283.957176 
L 158.91226 278.702617 
L 159.736725 282.795544 
L 160.56118 288.471911 
L 161.385645 287.706909 
L 162.2101 285.393842 
L 163.034576 284.166401 
L 163.85903 281.280418 
L 164.683495 280.139249 
L 166.332415 281.773795 
L 167.156881 280.625196 
L 167.981335 278.08211 
L 168.805801 280.427369 
L 169.630255 284.692562 
L 170.45472 285.850835 
L 171.279175 286.560016 
L 172.103651 288.017528 
L 172.928106 288.452318 
L 173.752571 292.211326 
L 174.577025 292.743125 
L 175.401491 287.88149 
L 176.225945 285.489841 
L 177.050411 286.87622 
L 177.874876 285.778675 
L 178.69933 283.609041 
L 179.523796 283.355374 
L 180.34825 285.224534 
L 181.172716 288.365419 
L 181.997181 289.89243 
L 182.821646 289.720894 
L 183.646101 289.358091 
L 184.470566 288.163328 
L 185.295021 288.800644 
L 186.119486 291.863296 
L 186.943951 291.403223 
L 187.768406 286.367304 
L 188.592871 282.905324 
L 189.417283 283.805042 
L 190.24177 288.302168 
L 191.066256 293.863117 
L 191.890742 296.102057 
L 192.715229 293.422811 
L 193.539609 293.01066 
L 194.364096 295.184678 
L 195.188582 294.563406 
L 196.013069 292.752417 
L 196.837449 292.91111 
L 198.486422 296.25186 
L 199.310908 298.824422 
L 200.135289 298.786141 
L 200.959775 295.435926 
L 201.784262 290.884684 
L 202.608748 289.460459 
L 204.257615 295.311546 
L 205.082102 296.52451 
L 205.906588 298.002051 
L 206.731074 299.103477 
L 207.555455 297.161182 
L 208.379941 294.37313 
L 209.204428 294.057151 
L 210.028914 298.358903 
L 210.853295 303.80386 
L 211.677781 303.966225 
L 212.502267 297.549182 
L 213.326754 289.624008 
L 214.151134 288.810841 
L 215.800107 295.175943 
L 216.624594 298.812781 
L 217.448974 301.427437 
L 218.273461 300.63174 
L 219.097947 301.412489 
L 219.922433 305.080632 
L 220.746814 307.008396 
L 221.5713 305.881461 
L 222.395787 301.915264 
L 223.220273 300.985513 
L 224.044654 301.692013 
L 224.86914 301.186995 
L 225.693627 301.768611 
L 226.518113 302.627715 
L 227.342599 301.775658 
L 228.16698 300.632697 
L 228.991466 302.691628 
L 229.815953 305.130484 
L 230.640439 304.191494 
L 231.46482 305.066572 
L 232.289306 307.490011 
L 233.113793 308.753054 
L 234.76266 305.143169 
L 235.587146 307.240069 
L 236.411632 308.902909 
L 237.236119 307.599026 
L 238.060499 304.264454 
L 238.884986 302.176604 
L 240.533958 308.368204 
L 241.358339 307.063522 
L 243.007312 299.211535 
L 243.831798 299.704234 
L 244.656285 302.78185 
L 245.480665 306.355751 
L 246.305152 307.06909 
L 247.129638 307.205006 
L 247.954124 309.941901 
L 248.778505 311.292034 
L 249.602991 310.057633 
L 250.427478 309.927093 
L 251.251964 310.162698 
L 252.076345 310.612609 
L 252.900831 311.421408 
L 253.725318 312.477731 
L 255.374185 315.634399 
L 256.198671 318.589062 
L 257.847644 323.067152 
L 258.67213 325.319387 
L 259.496511 327.01882 
L 260.320997 327.994178 
L 261.96997 328.170621 
L 262.794351 328.187378 
L 263.618837 329.452526 
L 264.443323 331.854458 
L 266.09219 338.307109 
L 266.916677 339.233668 
L 267.741163 337.986591 
L 268.565649 337.499983 
L 269.39003 338.089059 
L 270.214516 338.264122 
L 271.039003 339.171442 
L 271.863489 338.776802 
L 272.687976 337.22842 
L 273.512356 337.648564 
L 274.336843 338.840402 
L 275.161329 337.489371 
L 275.985815 334.939871 
L 276.810196 334.153205 
L 278.459169 337.221251 
L 279.283655 338.209026 
L 280.108036 338.402227 
L 281.757009 337.049663 
L 282.581495 336.388004 
L 283.405876 336.27537 
L 284.230362 337.899142 
L 285.054848 340.675628 
L 285.879335 343.051005 
L 286.703821 342.869149 
L 287.528202 340.644248 
L 288.352688 340.000027 
L 289.177175 341.492308 
L 290.001661 342.629435 
L 290.826042 342.480769 
L 291.650528 340.810347 
L 292.475014 339.474885 
L 294.123881 339.465384 
L 294.948368 339.823235 
L 296.59734 341.895665 
L 297.421721 342.746311 
L 298.246207 343.105835 
L 299.89518 343.114062 
L 300.719667 342.970188 
L 301.544047 342.444208 
L 304.017506 342.143832 
L 304.841887 342.525327 
L 305.666373 344.142222 
L 306.49086 344.697327 
L 308.964213 341.591902 
L 309.7887 341.073123 
L 310.613186 341.665375 
L 312.262053 345.025571 
L 313.086539 345.524425 
L 313.911026 345.509596 
L 315.559893 346.194358 
L 316.384379 344.509198 
L 317.208866 341.617078 
L 318.033352 341.145943 
L 318.857733 343.381805 
L 319.682219 345.034313 
L 320.506705 344.816271 
L 321.331192 343.966117 
L 322.155572 343.749481 
L 324.629032 345.573395 
L 325.453412 345.57209 
L 326.277898 345.10038 
L 327.102385 344.419816 
L 327.926871 344.354153 
L 328.751358 345.445876 
L 329.575738 347.136758 
L 330.400225 347.733601 
L 332.049197 346.646117 
L 332.873578 346.282701 
L 333.698064 345.765754 
L 334.522551 344.926469 
L 335.347037 345.035239 
L 336.171418 346.545094 
L 336.995904 347.417903 
L 337.820391 347.324378 
L 338.644877 346.854947 
L 339.469258 346.531464 
L 341.11823 347.656155 
L 341.942717 347.729277 
L 343.591584 346.680325 
L 344.41607 346.697985 
L 345.240557 347.237885 
L 346.064937 347.410348 
L 346.889424 346.926377 
L 347.71391 346.145727 
L 348.538396 345.523147 
L 349.362883 345.667733 
L 350.187263 346.615394 
L 351.01175 347.340432 
L 351.836236 347.592282 
L 352.660723 347.512175 
L 353.485103 347.692701 
L 354.309589 347.586392 
L 355.958562 344.397041 
L 356.782943 344.891391 
L 357.607429 345.772915 
L 358.431916 346.107922 
L 359.256402 346.261102 
L 360.080783 346.634671 
L 360.905269 346.754777 
L 361.729755 347.30142 
L 362.554242 348.165386 
L 363.378728 348.505929 
L 364.203109 348.00743 
L 365.027595 347.8128 
L 365.852082 348.203739 
L 366.676568 348.154867 
L 367.500949 347.588036 
L 368.325435 347.499646 
L 369.149921 347.698074 
L 369.974408 348.156353 
L 370.798788 349.099719 
L 371.623275 349.631947 
L 372.447761 349.759097 
L 373.272248 349.720692 
L 374.096628 348.958246 
L 374.921115 347.791029 
L 375.745601 347.599298 
L 376.570087 348.517711 
L 377.394468 349.050619 
L 378.218954 348.904257 
L 379.043441 349.038548 
L 380.692308 350.474114 
L 381.516794 350.318566 
L 383.165767 349.195427 
L 383.990147 349.26376 
L 385.63912 349.970045 
L 387.288093 349.503271 
L 388.112474 349.679165 
L 388.93696 349.14206 
L 389.761446 348.249468 
L 390.585933 348.572906 
L 392.2348 350.358345 
L 393.059286 350.6896 
L 393.883773 350.645066 
L 394.708259 350.309893 
L 395.53264 349.848867 
L 396.357126 349.590385 
L 397.181612 348.856773 
L 398.006099 348.832196 
L 398.830479 350.020023 
L 399.654966 350.692559 
L 400.479452 350.212013 
L 401.303939 349.341471 
L 402.128319 349.156603 
L 402.952806 349.729464 
L 403.777292 349.748804 
L 404.601778 349.581703 
L 406.250645 349.845733 
L 407.075132 349.814589 
L 407.899618 350.648447 
L 408.723999 351.182297 
L 409.548485 350.723033 
L 410.372971 349.881867 
L 411.197458 349.626328 
L 412.021838 350.260209 
L 412.846325 350.481015 
L 413.670811 349.552631 
L 414.495298 348.847543 
L 415.319784 349.04921 
L 416.144165 349.715049 
L 416.968651 349.835242 
L 417.793137 349.334379 
L 418.617624 349.833051 
L 419.44211 350.499552 
L 420.266491 350.324985 
L 421.915464 348.858769 
L 422.73995 349.320721 
L 423.564331 350.350679 
L 424.388817 350.897842 
L 425.213303 350.837663 
L 426.03779 350.64129 
L 426.86217 351.277748 
L 427.686657 351.477193 
L 428.511143 351.03992 
L 429.33563 351.207497 
L 430.16001 351.58406 
L 430.984497 351.589406 
L 431.808983 351.400844 
L 432.633469 350.970855 
L 433.45785 350.39891 
L 434.282336 350.421988 
L 435.931309 351.856713 
L 438.404662 352.320195 
L 440.053529 352.653159 
L 440.878016 352.551736 
L 441.702502 352.716623 
L 442.526989 353.027752 
L 443.351475 352.882818 
L 444.175856 352.95506 
L 445.000342 353.598934 
L 445.824828 353.812662 
L 446.649315 353.69902 
L 448.298182 354.510822 
L 448.298182 354.510822 
" clip-path="url(#p7ba129f860)" style="fill: none; stroke: #ccbb44; stroke-width: 1.5; stroke-linecap: square"/>
   </g>
   <g id="line2d_21">
    <path d="M 83.061818 353.6426 
L 83.88628 353.323341 
L 88.833047 354.274982 
L 91.306432 354.196032 
L 92.130892 354.075275 
L 92.955353 353.794956 
L 96.253198 353.574395 
L 97.902118 354.199685 
L 98.726584 354.25269 
L 99.551049 353.700433 
L 100.375503 352.807292 
L 101.199969 352.651771 
L 102.024434 353.341681 
L 102.848889 353.872549 
L 104.497808 353.199152 
L 106.146739 353.922284 
L 108.620124 353.702794 
L 110.269044 353.048015 
L 111.093499 352.878362 
L 111.917964 352.903154 
L 113.566884 353.700638 
L 115.215814 353.41696 
L 116.864734 354.092816 
L 117.689189 353.881829 
L 118.513654 353.466674 
L 120.162574 353.395623 
L 121.811504 352.860622 
L 122.635959 352.9029 
L 124.284889 353.870101 
L 125.109344 354.009836 
L 126.758264 353.617765 
L 127.582729 353.667287 
L 128.407194 353.960987 
L 129.231649 354.037112 
L 130.056114 353.883791 
L 131.705034 354.057239 
L 132.529499 353.790717 
L 133.353965 352.95161 
L 134.178419 351.759539 
L 135.002885 350.966296 
L 135.827339 350.788333 
L 136.651804 350.929946 
L 137.47627 350.84599 
L 139.949655 348.205282 
L 140.774109 348.476513 
L 141.598575 349.199473 
L 143.247495 350.057551 
L 144.07196 349.905522 
L 144.896425 349.10192 
L 145.72088 348.634946 
L 146.545345 348.753013 
L 148.194265 348.598081 
L 149.843185 348.051546 
L 151.492105 349.291155 
L 152.31657 348.845401 
L 153.141035 348.83145 
L 154.789955 350.090245 
L 155.61442 349.932694 
L 156.438875 349.226742 
L 157.26334 348.750834 
L 158.087805 349.651996 
L 158.91226 349.588125 
L 159.736725 348.27406 
L 160.56118 348.345998 
L 162.2101 350.606934 
L 163.034576 350.619962 
L 163.85903 349.467004 
L 164.683495 348.601243 
L 165.50795 349.210317 
L 166.332415 350.056357 
L 167.156881 350.208709 
L 167.981335 349.666433 
L 168.805801 349.482482 
L 169.630255 349.843419 
L 170.45472 349.435774 
L 172.103651 347.038764 
L 172.928106 346.878515 
L 173.752571 347.433599 
L 175.401491 348.275062 
L 176.225945 348.419288 
L 177.050411 347.948927 
L 177.874876 347.82457 
L 178.69933 348.663519 
L 180.34825 349.735194 
L 181.172716 349.356093 
L 181.997181 348.618584 
L 182.821646 349.336435 
L 183.646101 349.852027 
L 184.470566 349.928776 
L 185.295021 349.54746 
L 186.119486 348.75966 
L 186.943951 348.628991 
L 187.768406 348.187981 
L 188.592871 347.884863 
L 189.417283 348.469521 
L 191.066256 348.786746 
L 191.890742 349.479956 
L 192.715229 350.535806 
L 193.539609 350.748163 
L 194.364096 350.140695 
L 196.837449 349.128398 
L 197.661936 349.635599 
L 198.486422 350.512324 
L 199.310908 350.20972 
L 200.135289 349.710593 
L 200.959775 350.303344 
L 201.784262 351.329501 
L 202.608748 351.648887 
L 203.433129 351.20754 
L 204.257615 350.912639 
L 205.906588 351.294371 
L 206.731074 351.069501 
L 207.555455 350.529554 
L 208.379941 350.318703 
L 210.028914 351.295405 
L 212.502267 351.157938 
L 213.326754 350.875593 
L 214.151134 351.369455 
L 214.975621 351.453157 
L 215.800107 350.388473 
L 216.624594 349.664845 
L 217.448974 349.792083 
L 218.273461 350.396007 
L 219.097947 350.836913 
L 219.922433 350.8857 
L 220.746814 350.741367 
L 221.5713 350.349899 
L 222.395787 350.295278 
L 223.220273 350.704183 
L 224.044654 351.250208 
L 224.86914 351.29716 
L 225.693627 350.767725 
L 226.518113 350.459721 
L 228.16698 350.358006 
L 228.991466 349.972519 
L 229.815953 350.07737 
L 230.640439 350.643636 
L 231.46482 350.997942 
L 232.289306 351.19054 
L 233.113793 351.042655 
L 233.938279 350.63196 
L 234.76266 349.698936 
L 235.587146 348.980505 
L 236.411632 348.925319 
L 238.060499 350.971789 
L 238.884986 351.024116 
L 239.709472 350.475158 
L 240.533958 350.33084 
L 241.358339 350.317405 
L 242.182825 349.911452 
L 243.007312 350.162792 
L 243.831798 350.834909 
L 245.480665 351.213803 
L 246.305152 351.395672 
L 247.129638 351.406247 
L 247.954124 350.748475 
L 248.778505 349.89632 
L 249.602991 349.407364 
L 250.427478 349.551721 
L 251.251964 350.301551 
L 252.076345 350.377204 
L 253.725318 350.19603 
L 256.198671 348.794908 
L 257.023157 349.273541 
L 257.847644 349.527491 
L 260.320997 348.80388 
L 261.145484 348.78605 
L 262.794351 349.650325 
L 263.618837 349.912243 
L 264.443323 349.957436 
L 265.26781 349.865437 
L 266.09219 350.000642 
L 266.916677 350.411468 
L 267.741163 350.324136 
L 268.565649 349.651637 
L 269.39003 349.123352 
L 270.214516 349.000194 
L 271.863489 349.373034 
L 272.687976 349.815329 
L 273.512356 349.655805 
L 275.161329 347.272196 
L 275.985815 346.38109 
L 276.810196 345.877337 
L 278.459169 346.389155 
L 279.283655 346.238956 
L 280.108036 345.545878 
L 280.932522 345.610182 
L 281.757009 347.11113 
L 282.581495 348.15887 
L 283.405876 347.588012 
L 284.230362 347.162752 
L 285.054848 347.522693 
L 285.879335 347.067496 
L 286.703821 346.002928 
L 287.528202 345.394184 
L 288.352688 345.136563 
L 290.001661 346.490611 
L 290.826042 345.486115 
L 291.650528 343.383217 
L 292.475014 343.717373 
L 293.299501 345.720389 
L 294.123881 347.063363 
L 294.948368 347.42687 
L 295.772854 346.820409 
L 296.59734 346.453937 
L 297.421721 346.896966 
L 298.246207 347.089029 
L 299.89518 346.232699 
L 301.544047 348.339636 
L 302.368534 348.188412 
L 303.19302 348.342918 
L 304.017506 348.132984 
L 304.841887 347.028573 
L 305.666373 346.152976 
L 306.49086 345.991583 
L 308.139727 346.536094 
L 308.964213 347.122724 
L 309.7887 347.928489 
L 310.613186 348.212966 
L 311.437567 348.110886 
L 312.262053 347.263138 
L 313.086539 346.588641 
L 314.735512 346.395576 
L 315.559893 346.85909 
L 316.384379 347.531836 
L 317.208866 347.396219 
L 318.033352 346.463542 
L 318.857733 346.322573 
L 319.682219 346.931249 
L 320.506705 347.184916 
L 321.331192 347.137669 
L 322.155572 347.330841 
L 322.980059 348.097906 
L 323.804545 349.045825 
L 324.629032 349.321624 
L 325.453412 348.317878 
L 326.277898 346.71738 
L 327.102385 346.323055 
L 328.751358 348.777781 
L 329.575738 348.965948 
L 331.224711 347.485324 
L 332.049197 347.82104 
L 332.873578 347.441412 
L 333.698064 346.490202 
L 334.522551 346.776829 
L 335.347037 347.937817 
L 336.171418 348.598739 
L 336.995904 348.548475 
L 337.820391 348.04109 
L 338.644877 347.297823 
L 339.469258 346.983401 
L 340.293744 347.91726 
L 341.11823 348.551054 
L 342.767097 346.616146 
L 343.591584 346.403843 
L 344.41607 346.546173 
L 345.240557 347.835148 
L 346.064937 348.712189 
L 347.71391 346.833024 
L 349.362883 347.582988 
L 351.01175 348.964632 
L 351.836236 348.713184 
L 352.660723 348.056977 
L 353.485103 347.607558 
L 354.309589 348.133508 
L 355.134076 348.897683 
L 355.958562 348.382739 
L 356.782943 347.241113 
L 357.607429 347.368278 
L 358.431916 347.90927 
L 360.080783 348.429316 
L 360.905269 348.38577 
L 361.729755 348.682427 
L 362.554242 349.566019 
L 363.378728 349.537427 
L 364.203109 349.028119 
L 365.027595 348.656745 
L 365.852082 348.630582 
L 368.325435 350.832153 
L 369.149921 350.528931 
L 369.974408 349.068318 
L 370.798788 347.963285 
L 373.272248 347.392237 
L 374.096628 348.685021 
L 374.921115 350.206991 
L 375.745601 350.458481 
L 376.570087 350.016532 
L 378.218954 349.709557 
L 379.043441 349.83836 
L 380.692308 351.041101 
L 381.516794 350.84715 
L 382.34128 350.194736 
L 383.165767 350.118798 
L 383.990147 350.260745 
L 385.63912 350.846435 
L 386.463607 351.359686 
L 387.288093 351.660279 
L 388.112474 351.004878 
L 388.93696 350.101548 
L 389.761446 349.47836 
L 390.585933 349.808631 
L 391.410419 350.407182 
L 392.2348 350.703228 
L 393.059286 350.619278 
L 393.883773 350.104576 
L 394.708259 349.887073 
L 395.53264 350.605528 
L 396.357126 350.588998 
L 397.181612 349.244508 
L 398.006099 348.619137 
L 398.830479 349.271533 
L 399.654966 349.563543 
L 401.303939 349.583493 
L 402.128319 349.78344 
L 402.952806 350.158255 
L 403.777292 350.656947 
L 404.601778 350.881527 
L 405.426159 350.908195 
L 406.250645 350.648905 
L 407.899618 350.677805 
L 408.723999 350.295165 
L 409.548485 350.054248 
L 410.372971 349.966213 
L 411.197458 350.052553 
L 413.670811 351.037585 
L 414.495298 350.985663 
L 415.319784 350.675721 
L 416.968651 351.432492 
L 418.617624 350.137549 
L 420.266491 350.748574 
L 421.915464 350.887354 
L 422.73995 350.628325 
L 423.564331 350.228446 
L 425.213303 348.979654 
L 426.03779 349.345228 
L 426.86217 350.178451 
L 428.511143 350.523309 
L 429.33563 350.514761 
L 430.16001 349.893974 
L 430.984497 349.878972 
L 432.633469 351.052572 
L 433.45785 351.480269 
L 434.282336 351.279245 
L 435.106823 350.82257 
L 435.931309 350.855858 
L 438.404662 351.533668 
L 439.229149 351.677443 
L 440.053529 352.182455 
L 440.878016 352.849148 
L 441.702502 353.155206 
L 442.526989 353.219375 
L 443.351475 353.062767 
L 444.175856 353.095089 
L 445.000342 353.380605 
L 446.649315 354.206687 
L 447.473695 354.418627 
L 448.298182 354.512776 
L 448.298182 354.512776 
" clip-path="url(#p7ba129f860)" style="fill: none; stroke: #66ccee; stroke-width: 1.5; stroke-linecap: square"/>
   </g>
   <g id="line2d_22">
    <path d="M 83.061818 347.527816 
L 83.88628 347.515989 
L 84.710741 348.367411 
L 85.535202 348.75027 
L 86.359663 348.143 
L 87.184125 347.699348 
L 88.008586 347.495207 
L 88.833047 347.089223 
L 89.657509 347.244412 
L 90.48197 348.091038 
L 91.306432 349.267313 
L 92.130892 349.206788 
L 92.955353 348.343683 
L 93.779813 348.315291 
L 94.604279 349.139352 
L 96.253198 350.12552 
L 97.077664 349.568673 
L 97.902118 348.455295 
L 99.551049 347.323392 
L 100.375503 347.066497 
L 101.199969 347.343898 
L 102.848889 349.463479 
L 103.673354 350.669392 
L 104.497808 351.180895 
L 105.322274 350.780532 
L 106.146739 350.252268 
L 106.971194 349.373516 
L 107.795659 348.142664 
L 108.620124 347.499041 
L 110.269044 348.843882 
L 111.093499 347.913486 
L 111.917964 347.267222 
L 112.742429 347.902464 
L 113.566884 349.063014 
L 114.391349 349.578809 
L 115.215814 349.925003 
L 116.040269 350.462756 
L 116.864734 350.375981 
L 117.689189 349.465355 
L 118.513654 348.946504 
L 120.162574 349.57813 
L 120.987039 350.29539 
L 121.811504 350.852424 
L 122.635959 350.439525 
L 123.460424 349.54165 
L 125.109344 348.384168 
L 125.933809 348.392847 
L 126.758264 348.924731 
L 127.582729 348.985668 
L 128.407194 348.681268 
L 129.231649 347.972255 
L 130.056114 346.317208 
L 130.88058 341.565989 
L 131.705034 329.543949 
L 132.529499 311.157858 
L 133.353965 295.938039 
L 134.178419 288.386735 
L 135.002885 284.665904 
L 136.651804 281.765565 
L 137.47627 278.702286 
L 138.300724 277.136385 
L 139.12519 277.459132 
L 139.949655 275.958971 
L 140.774109 276.027181 
L 141.598575 277.837736 
L 142.42304 278.876032 
L 143.247495 278.519615 
L 144.07196 277.978089 
L 144.896425 279.213604 
L 146.545345 285.676185 
L 147.3698 283.57772 
L 148.194265 279.029575 
L 149.01873 279.219294 
L 149.843185 280.027415 
L 150.66765 278.554729 
L 151.492105 281.17222 
L 152.31657 285.677333 
L 153.141035 287.372852 
L 153.9655 288.786236 
L 154.789955 292.013359 
L 155.61442 293.905957 
L 156.438875 291.807249 
L 157.26334 290.652368 
L 158.91226 290.658336 
L 159.736725 288.50372 
L 160.56118 285.228623 
L 161.385645 284.604027 
L 162.2101 284.340181 
L 163.034576 283.802867 
L 163.85903 284.938798 
L 164.683495 286.831518 
L 165.50795 287.981109 
L 166.332415 288.247304 
L 167.156881 290.185143 
L 167.981335 293.353122 
L 168.805801 295.437057 
L 169.630255 295.830851 
L 170.45472 294.963429 
L 171.279175 298.100695 
L 172.103651 304.355303 
L 172.928106 305.510654 
L 173.752571 302.004059 
L 175.401491 299.229509 
L 176.225945 296.177802 
L 177.050411 295.569546 
L 177.874876 296.822044 
L 178.69933 296.96412 
L 179.523796 295.926137 
L 180.34825 295.973084 
L 181.172716 297.305869 
L 181.997181 297.909079 
L 182.821646 297.615356 
L 183.646101 298.491548 
L 184.470566 298.640202 
L 186.119486 297.057492 
L 186.943951 297.652402 
L 187.768406 299.50912 
L 188.592871 300.170466 
L 189.417283 299.389943 
L 190.24177 301.170864 
L 191.066256 304.874799 
L 191.890742 306.236626 
L 193.539609 301.089655 
L 194.364096 302.39232 
L 195.188582 302.612716 
L 196.013069 299.62386 
L 196.837449 297.878993 
L 197.661936 300.044799 
L 198.486422 301.678197 
L 199.310908 301.668992 
L 200.135289 303.590249 
L 201.784262 303.327447 
L 202.608748 306.035179 
L 203.433129 307.308766 
L 204.257615 305.339675 
L 205.082102 300.968129 
L 205.906588 300.173599 
L 206.731074 302.821767 
L 207.555455 305.890788 
L 208.379941 308.489939 
L 209.204428 309.9897 
L 210.028914 309.359641 
L 210.853295 306.989638 
L 211.677781 305.219158 
L 212.502267 305.935316 
L 213.326754 308.104776 
L 214.151134 308.43631 
L 214.975621 307.99249 
L 215.800107 309.709811 
L 216.624594 309.959406 
L 217.448974 307.666349 
L 218.273461 307.488898 
L 219.097947 310.53655 
L 219.922433 311.672917 
L 220.746814 310.60149 
L 221.5713 311.356469 
L 222.395787 312.278268 
L 223.220273 312.043133 
L 224.044654 313.261543 
L 224.86914 314.100428 
L 225.693627 314.077877 
L 227.342599 318.192641 
L 228.16698 318.51638 
L 228.991466 318.316046 
L 229.815953 315.783366 
L 230.640439 312.151017 
L 231.46482 310.325794 
L 232.289306 310.197742 
L 233.113793 311.456592 
L 233.938279 315.061744 
L 234.76266 319.666527 
L 235.587146 321.246401 
L 236.411632 320.780865 
L 237.236119 320.976552 
L 238.060499 320.582341 
L 238.884986 317.691259 
L 239.709472 315.90651 
L 240.533958 317.529642 
L 241.358339 320.086579 
L 242.182825 321.674857 
L 243.007312 321.246401 
L 243.831798 320.186163 
L 244.656285 319.916279 
L 245.480665 318.874729 
L 246.305152 318.895731 
L 247.129638 319.167477 
L 247.954124 319.623078 
L 248.778505 319.697483 
L 249.602991 319.558818 
L 250.427478 321.613659 
L 251.251964 324.367502 
L 252.900831 327.153623 
L 253.725318 329.633284 
L 255.374185 335.350073 
L 256.198671 336.88869 
L 257.023157 337.430059 
L 257.847644 338.212656 
L 258.67213 339.564597 
L 259.496511 340.326476 
L 260.320997 339.612458 
L 261.145484 339.210096 
L 262.794351 339.195149 
L 263.618837 340.137934 
L 264.443323 342.156896 
L 265.26781 342.771445 
L 266.09219 342.387145 
L 266.916677 343.588153 
L 267.741163 345.178479 
L 268.565649 345.495752 
L 270.214516 344.529912 
L 271.039003 343.436757 
L 271.863489 343.244105 
L 272.687976 344.492408 
L 273.512356 345.136879 
L 274.336843 344.537864 
L 275.161329 343.080198 
L 275.985815 342.167048 
L 276.810196 342.880552 
L 277.634682 343.890487 
L 278.459169 344.330501 
L 279.283655 344.636105 
L 280.108036 343.842479 
L 280.932522 342.629186 
L 281.757009 343.239235 
L 283.405876 345.443185 
L 284.230362 345.286045 
L 285.054848 344.351557 
L 286.703821 344.64555 
L 288.352688 345.217169 
L 289.177175 344.363149 
L 290.001661 343.121149 
L 292.475014 343.9793 
L 294.123881 345.40634 
L 294.948368 344.60214 
L 295.772854 343.18407 
L 296.59734 342.348971 
L 297.421721 342.277801 
L 298.246207 342.828416 
L 299.070694 343.131885 
L 299.89518 343.219031 
L 301.544047 345.495734 
L 302.368534 345.467726 
L 304.841887 344.143997 
L 305.666373 344.084763 
L 306.49086 344.99067 
L 307.315346 345.01465 
L 308.139727 344.63085 
L 308.964213 345.06021 
L 309.7887 345.954238 
L 310.613186 346.123102 
L 311.437567 345.445654 
L 313.086539 342.262845 
L 313.911026 342.090801 
L 316.384379 344.99453 
L 317.208866 344.744142 
L 318.033352 343.425128 
L 318.857733 343.147697 
L 319.682219 343.327735 
L 320.506705 343.75065 
L 321.331192 344.538917 
L 322.980059 345.300962 
L 323.804545 346.309235 
L 324.629032 346.39007 
L 326.277898 344.367774 
L 327.926871 344.507622 
L 328.751358 344.671517 
L 330.400225 346.11608 
L 331.224711 346.393508 
L 332.049197 345.742277 
L 332.873578 343.934749 
L 333.698064 343.665899 
L 335.347037 347.385787 
L 336.171418 348.692225 
L 336.995904 348.326323 
L 337.820391 347.122214 
L 338.644877 346.942474 
L 339.469258 347.145844 
L 340.293744 347.004474 
L 341.942717 344.85866 
L 343.591584 345.336908 
L 345.240557 345.789539 
L 346.889424 347.460182 
L 347.71391 346.890297 
L 348.538396 345.60903 
L 349.362883 344.782312 
L 350.187263 344.917527 
L 351.01175 344.793117 
L 351.836236 345.004509 
L 352.660723 346.25691 
L 354.309589 349.285855 
L 355.134076 349.720951 
L 356.782943 347.448835 
L 357.607429 346.695467 
L 358.431916 346.413291 
L 359.256402 347.385035 
L 360.080783 347.902638 
L 361.729755 346.753164 
L 362.554242 345.487661 
L 363.378728 344.927657 
L 365.027595 348.457407 
L 365.852082 348.913648 
L 366.676568 348.762832 
L 368.325435 349.110951 
L 369.149921 348.831237 
L 370.798788 346.033298 
L 372.447761 344.011472 
L 374.096628 345.729526 
L 374.921115 344.894125 
L 375.745601 343.089835 
L 376.570087 343.2687 
L 377.394468 344.567419 
L 378.218954 345.420656 
L 379.043441 346.754826 
L 379.867927 347.193282 
L 380.692308 346.604978 
L 381.516794 346.724347 
L 382.34128 346.97169 
L 383.165767 345.808462 
L 383.990147 345.064124 
L 384.814634 345.738625 
L 385.63912 346.70936 
L 386.463607 346.369395 
L 387.288093 345.395291 
L 388.112474 344.798801 
L 388.93696 344.635167 
L 389.761446 345.818817 
L 390.585933 347.469757 
L 391.410419 347.941642 
L 392.2348 347.328873 
L 393.059286 347.076666 
L 393.883773 347.672308 
L 396.357126 348.526676 
L 397.181612 348.896156 
L 398.006099 348.027862 
L 398.830479 346.294012 
L 399.654966 346.346304 
L 400.479452 347.481104 
L 401.303939 347.718905 
L 402.128319 347.332064 
L 403.777292 345.543332 
L 404.601778 345.246827 
L 405.426159 345.300162 
L 406.250645 344.890674 
L 407.075132 344.922382 
L 407.899618 346.288605 
L 408.723999 347.081307 
L 410.372971 345.67256 
L 411.197458 346.000583 
L 412.846325 348.449323 
L 413.670811 348.067603 
L 414.495298 346.958831 
L 415.319784 346.471042 
L 416.144165 346.269668 
L 416.968651 345.693115 
L 417.793137 345.467382 
L 418.617624 346.356431 
L 419.44211 347.024546 
L 421.090977 346.190874 
L 421.915464 346.869433 
L 423.564331 347.188987 
L 424.388817 348.023531 
L 425.213303 348.431348 
L 426.03779 347.388169 
L 426.86217 345.595332 
L 427.686657 344.676994 
L 428.511143 344.811183 
L 429.33563 345.376498 
L 430.16001 346.197903 
L 430.984497 346.68996 
L 432.633469 348.528823 
L 433.45785 348.507878 
L 434.282336 347.738815 
L 435.106823 345.843116 
L 435.931309 344.932013 
L 436.75569 346.475899 
L 437.580176 347.344131 
L 438.404662 347.050922 
L 439.229149 346.302842 
L 440.053529 346.060149 
L 444.175856 350.49343 
L 445.824828 350.730695 
L 446.649315 351.061644 
L 447.473695 351.962232 
L 448.298182 353.263593 
L 448.298182 353.263593 
" clip-path="url(#p7ba129f860)" style="fill: none; stroke-dasharray: 5.55,2.4; stroke-dashoffset: 0; stroke: #aa3377; stroke-width: 1.5"/>
   </g>
   <g id="line2d_23">
    <path d="M 83.061818 100.820336 
L 84.710741 76.10812 
L 85.535202 71.602224 
L 87.184125 86.752092 
L 88.008586 81.445244 
L 88.833047 73.832812 
L 89.657509 74.207274 
L 90.48197 77.489383 
L 91.306432 78.386212 
L 92.130892 78.790428 
L 93.779813 64.2816 
L 94.604279 67.221264 
L 95.428744 69.708164 
L 96.253198 66.070734 
L 97.077664 66.189754 
L 97.902118 70.827025 
L 98.726584 71.201313 
L 99.551049 70.252282 
L 100.375503 71.17382 
L 101.199969 68.396504 
L 102.024434 68.402768 
L 102.848889 71.939796 
L 103.673354 74.527967 
L 104.497808 75.590799 
L 105.322274 79.733543 
L 106.146739 87.066695 
L 106.971194 92.067988 
L 107.795659 85.740244 
L 108.620124 72.944509 
L 109.444579 68.407292 
L 110.269044 69.800561 
L 111.093499 72.646262 
L 111.917964 76.308923 
L 112.742429 77.36549 
L 113.566884 81.074785 
L 114.391349 86.160122 
L 115.215814 87.755761 
L 116.040269 86.159948 
L 116.864734 84.8154 
L 117.689189 85.868487 
L 118.513654 87.819447 
L 119.338119 91.271908 
L 120.162574 91.562499 
L 120.987039 84.183235 
L 121.811504 77.854274 
L 122.635959 79.635056 
L 124.284889 95.681057 
L 125.109344 96.017063 
L 125.933809 94.025908 
L 126.758264 96.720049 
L 127.582729 97.504644 
L 128.407194 93.486836 
L 129.231649 88.535135 
L 130.056114 95.964861 
L 130.88058 118.457974 
L 131.705034 155.661414 
L 133.353965 255.128229 
L 134.178419 291.505243 
L 135.002885 314.908235 
L 135.827339 326.364382 
L 136.651804 332.076195 
L 137.47627 336.273038 
L 138.300724 339.586531 
L 139.12519 341.204968 
L 139.949655 341.594817 
L 141.598575 341.650007 
L 142.42304 341.972957 
L 143.247495 343.781623 
L 144.07196 346.468265 
L 144.896425 347.494504 
L 145.72088 346.586341 
L 146.545345 345.903757 
L 147.3698 346.24644 
L 148.194265 346.860188 
L 149.01873 345.973375 
L 149.843185 344.432279 
L 150.66765 344.351952 
L 151.492105 345.406361 
L 152.31657 346.72483 
L 153.141035 347.038484 
L 154.789955 345.021781 
L 155.61442 344.364531 
L 156.438875 344.906457 
L 157.26334 346.100666 
L 158.087805 345.809244 
L 158.91226 344.389162 
L 159.736725 344.561043 
L 160.56118 345.601967 
L 161.385645 345.647823 
L 162.2101 344.671351 
L 163.034576 344.001087 
L 163.85903 344.60189 
L 165.50795 346.462526 
L 166.332415 346.952328 
L 167.981335 345.817761 
L 168.805801 346.174027 
L 169.630255 346.335423 
L 172.103651 346.109476 
L 172.928106 346.087965 
L 174.577025 348.644046 
L 175.401491 348.358805 
L 176.225945 347.661041 
L 178.69933 348.380722 
L 179.523796 348.563313 
L 180.34825 348.482285 
L 181.172716 347.940196 
L 181.997181 347.025124 
L 182.821646 346.441061 
L 183.646101 347.025547 
L 184.470566 347.756588 
L 185.295021 348.228669 
L 186.119486 348.169917 
L 186.943951 347.972667 
L 188.592871 349.283054 
L 189.417283 348.983199 
L 190.24177 348.189053 
L 191.066256 347.566628 
L 191.890742 347.508352 
L 192.715229 347.169406 
L 193.539609 345.708941 
L 194.364096 344.702883 
L 195.188582 345.73859 
L 197.661936 350.16185 
L 198.486422 350.936979 
L 199.310908 350.170385 
L 200.135289 348.932241 
L 200.959775 348.574298 
L 201.784262 348.039496 
L 202.608748 346.763749 
L 203.433129 346.786749 
L 204.257615 347.184401 
L 205.082102 346.804672 
L 205.906588 346.169141 
L 206.731074 346.46223 
L 208.379941 348.977232 
L 209.204428 349.04574 
L 210.028914 348.48462 
L 210.853295 348.088971 
L 211.677781 348.349624 
L 212.502267 348.121309 
L 213.326754 347.255761 
L 214.151134 347.005957 
L 214.975621 347.513732 
L 215.800107 347.728837 
L 216.624594 347.152571 
L 217.448974 347.43781 
L 218.273461 348.688512 
L 219.097947 349.034421 
L 219.922433 348.830446 
L 220.746814 349.196974 
L 221.5713 348.966028 
L 222.395787 347.683816 
L 223.220273 346.840642 
L 224.044654 346.760655 
L 224.86914 347.489935 
L 225.693627 348.395407 
L 226.518113 348.964044 
L 227.342599 348.853092 
L 228.16698 347.636304 
L 228.991466 346.649454 
L 229.815953 346.977206 
L 231.46482 349.294298 
L 232.289306 350.908298 
L 233.113793 351.289207 
L 234.76266 348.894683 
L 235.587146 348.33867 
L 236.411632 348.680034 
L 237.236119 349.599483 
L 238.060499 350.074238 
L 238.884986 349.670952 
L 239.709472 348.290883 
L 240.533958 346.318625 
L 241.358339 344.965603 
L 242.182825 344.963338 
L 243.831798 347.226749 
L 244.656285 347.336446 
L 245.480665 347.267261 
L 247.129638 349.924761 
L 247.954124 349.642151 
L 248.778505 348.711575 
L 249.602991 347.514237 
L 250.427478 346.667713 
L 251.251964 346.768668 
L 252.076345 347.39716 
L 252.900831 347.727045 
L 255.374185 345.593897 
L 256.198671 344.300337 
L 257.023157 343.832254 
L 257.847644 344.360153 
L 258.67213 344.14244 
L 259.496511 344.495768 
L 260.320997 346.939485 
L 261.145484 348.741591 
L 261.96997 348.335166 
L 262.794351 347.492147 
L 263.618837 347.137568 
L 264.443323 347.062749 
L 265.26781 347.576101 
L 266.09219 347.675563 
L 266.916677 347.354704 
L 267.741163 347.18134 
L 268.565649 346.581157 
L 269.39003 346.261608 
L 270.214516 346.085811 
L 271.039003 345.019536 
L 271.863489 344.259168 
L 272.687976 344.67914 
L 275.161329 344.890975 
L 276.810196 343.010758 
L 278.459169 342.64077 
L 280.108036 343.239479 
L 280.932522 343.982528 
L 281.757009 344.415745 
L 282.581495 344.237753 
L 284.230362 342.280498 
L 285.054848 342.08765 
L 285.879335 341.338939 
L 286.703821 341.551714 
L 287.528202 343.074548 
L 289.177175 343.370866 
L 290.001661 343.986843 
L 290.826042 343.764973 
L 291.650528 342.87655 
L 292.475014 342.625083 
L 293.299501 343.13764 
L 294.123881 342.554137 
L 294.948368 342.235764 
L 295.772854 343.25837 
L 296.59734 344.078089 
L 297.421721 344.474159 
L 298.246207 345.262112 
L 299.070694 344.846571 
L 299.89518 343.734174 
L 300.719667 343.674296 
L 301.544047 343.746552 
L 302.368534 344.080831 
L 303.19302 343.439442 
L 304.017506 341.469877 
L 304.841887 341.155519 
L 305.666373 341.588567 
L 307.315346 340.877528 
L 308.139727 341.149371 
L 308.964213 341.858425 
L 309.7887 341.60808 
L 310.613186 342.239178 
L 311.437567 343.972569 
L 312.262053 344.897469 
L 313.086539 344.646494 
L 313.911026 344.577014 
L 314.735512 344.62158 
L 315.559893 344.536575 
L 316.384379 344.015001 
L 317.208866 344.2468 
L 318.033352 344.643937 
L 319.682219 342.768442 
L 320.506705 342.660178 
L 321.331192 342.698249 
L 322.155572 343.307566 
L 322.980059 344.294575 
L 323.804545 344.551597 
L 324.629032 343.987988 
L 325.453412 343.189572 
L 326.277898 343.017638 
L 327.926871 344.041824 
L 328.751358 344.887916 
L 329.575738 346.620381 
L 330.400225 347.538538 
L 331.224711 347.317505 
L 332.049197 346.698171 
L 333.698064 343.567272 
L 334.522551 343.152964 
L 335.347037 343.889234 
L 336.171418 344.818188 
L 336.995904 344.866512 
L 337.820391 345.104069 
L 339.469258 346.719269 
L 340.293744 347.081029 
L 341.942717 345.995463 
L 343.591584 346.824512 
L 344.41607 345.637075 
L 345.240557 344.83999 
L 346.064937 345.556367 
L 346.889424 345.548773 
L 347.71391 345.67222 
L 348.538396 346.368502 
L 349.362883 346.378862 
L 350.187263 345.793353 
L 351.836236 344.305618 
L 352.660723 344.721542 
L 353.485103 345.610798 
L 354.309589 346.000706 
L 355.134076 345.891724 
L 355.958562 346.141422 
L 356.782943 345.958558 
L 357.607429 345.343395 
L 358.431916 346.207743 
L 359.256402 347.406795 
L 360.080783 348.01135 
L 360.905269 348.761186 
L 361.729755 349.104998 
L 363.378728 348.443055 
L 364.203109 348.505532 
L 365.852082 349.310289 
L 366.676568 349.387355 
L 367.500949 348.856118 
L 368.325435 348.706097 
L 369.149921 349.649697 
L 369.974408 349.483561 
L 370.798788 348.365753 
L 371.623275 348.374881 
L 372.447761 348.101982 
L 373.272248 346.993342 
L 374.921115 347.013168 
L 375.745601 345.797924 
L 376.570087 345.2646 
L 378.218954 348.523637 
L 379.043441 348.262509 
L 379.867927 347.521515 
L 380.692308 348.540292 
L 381.516794 349.1956 
L 383.165767 348.09085 
L 383.990147 347.189088 
L 384.814634 346.646721 
L 386.463607 347.839302 
L 387.288093 347.770395 
L 388.112474 348.277269 
L 388.93696 348.963922 
L 389.761446 348.577397 
L 390.585933 347.893009 
L 393.059286 349.061187 
L 393.883773 350.090059 
L 394.708259 350.431924 
L 395.53264 349.440829 
L 396.357126 349.140029 
L 397.181612 349.25428 
L 398.006099 348.556852 
L 398.830479 348.141227 
L 399.654966 348.745492 
L 400.479452 348.762863 
L 401.303939 348.560706 
L 402.128319 349.153191 
L 402.952806 349.116637 
L 403.777292 349.31241 
L 404.601778 350.214983 
L 405.426159 349.672315 
L 406.250645 348.672185 
L 407.075132 348.9748 
L 407.899618 349.4618 
L 408.723999 349.258113 
L 409.548485 348.590828 
L 410.372971 348.066571 
L 411.197458 347.691636 
L 412.021838 347.894891 
L 413.670811 350.958648 
L 414.495298 350.952574 
L 415.319784 350.210168 
L 416.144165 350.685135 
L 416.968651 351.722667 
L 417.793137 351.644315 
L 419.44211 349.135291 
L 421.915464 349.357748 
L 423.564331 349.679151 
L 424.388817 349.740997 
L 426.03779 350.047676 
L 426.86217 349.795064 
L 427.686657 349.757792 
L 429.33563 350.844551 
L 430.16001 350.434181 
L 430.984497 349.168909 
L 431.808983 348.327416 
L 432.633469 347.934408 
L 433.45785 348.268906 
L 434.282336 349.438591 
L 435.106823 350.243506 
L 435.931309 350.1707 
L 436.75569 349.61941 
L 437.580176 349.824419 
L 438.404662 350.87839 
L 439.229149 351.521489 
L 440.053529 352.018273 
L 440.878016 352.174365 
L 443.351475 351.637465 
L 444.175856 352.052677 
L 445.000342 352.844358 
L 445.824828 353.287327 
L 446.649315 353.354644 
L 448.298182 354.033831 
L 448.298182 354.033831 
" clip-path="url(#p7ba129f860)" style="fill: none; stroke-dasharray: 9.6,2.4,1.5,2.4; stroke-dashoffset: 0; stroke: #bbbbbb; stroke-width: 1.5"/>
   </g>
   <g id="patch_3">
    <path d="M 64.8 369.1008 
L 64.8 49.7664 
" style="fill: none; stroke: #000000; stroke-width: 0.8; stroke-linejoin: miter; stroke-linecap: square"/>
   </g>
   <g id="patch_4">
    <path d="M 466.56 369.1008 
L 466.56 49.7664 
" style="fill: none; stroke: #000000; stroke-width: 0.8; stroke-linejoin: miter; stroke-linecap: square"/>
   </g>
   <g id="patch_5">
    <path d="M 64.8 369.1008 
L 466.56 369.1008 
" style="fill: none; stroke: #000000; stroke-width: 0.8; stroke-linejoin: miter; stroke-linecap: square"/>
   </g>
   <g id="patch_6">
    <path d="M 64.8 49.7664 
L 466.56 49.7664 
" style="fill: none; stroke: #000000; stroke-width: 0.8; stroke-linejoin: miter; stroke-linecap: square"/>
   </g>
   <g id="legend_1">
    <g id="patch_7">
     <path d="M 366.9 182.66265 
L 458.16 182.66265 
Q 460.56 182.66265 460.56 180.26265 
L 460.56 58.1664 
Q 460.56 55.7664 458.16 55.7664 
L 366.9 55.7664 
Q 364.5 55.7664 364.5 58.1664 
L 364.5 180.26265 
Q 364.5 182.66265 366.9 182.66265 
z
" style="fill: #ffffff; opacity: 0.8; stroke: #cccccc; stroke-linejoin: miter"/>
    </g>
    <g id="line2d_24">
     <path d="M 369.3 65.484525 
L 381.3 65.484525 
L 393.3 65.484525 
" style="fill: none; stroke-dasharray: 1.5,2.475; stroke-dashoffset: 0; stroke: #4477aa; stroke-width: 1.5"/>
    </g>
    <g id="text_19">
     <!-- Gold -->
     <g transform="translate(402.9 69.684525) scale(0.12 -0.12)">
      <defs>
       <path id="DejaVuSans-47" d="M 3809 666 
L 3809 1919 
L 2778 1919 
L 2778 2438 
L 4434 2438 
L 4434 434 
Q 4069 175 3628 42 
Q 3188 -91 2688 -91 
Q 1594 -91 976 548 
Q 359 1188 359 2328 
Q 359 3472 976 4111 
Q 1594 4750 2688 4750 
Q 3144 4750 3555 4637 
Q 3966 4525 4313 4306 
L 4313 3634 
Q 3963 3931 3569 4081 
Q 3175 4231 2741 4231 
Q 1884 4231 1454 3753 
Q 1025 3275 1025 2328 
Q 1025 1384 1454 906 
Q 1884 428 2741 428 
Q 3075 428 3337 486 
Q 3600 544 3809 666 
z
" transform="scale(0.015625)"/>
       <path id="DejaVuSans-6c" d="M 603 4863 
L 1178 4863 
L 1178 0 
L 603 0 
L 603 4863 
z
" transform="scale(0.015625)"/>
       <path id="DejaVuSans-64" d="M 2906 2969 
L 2906 4863 
L 3481 4863 
L 3481 0 
L 2906 0 
L 2906 525 
Q 2725 213 2448 61 
Q 2172 -91 1784 -91 
Q 1150 -91 751 415 
Q 353 922 353 1747 
Q 353 2572 751 3078 
Q 1150 3584 1784 3584 
Q 2172 3584 2448 3432 
Q 2725 3281 2906 2969 
z
M 947 1747 
Q 947 1113 1208 752 
Q 1469 391 1925 391 
Q 2381 391 2643 752 
Q 2906 1113 2906 1747 
Q 2906 2381 2643 2742 
Q 2381 3103 1925 3103 
Q 1469 3103 1208 2742 
Q 947 2381 947 1747 
z
" transform="scale(0.015625)"/>
      </defs>
      <use xlink:href="#DejaVuSans-47"/>
      <use xlink:href="#DejaVuSans-6f" x="77.490234"/>
      <use xlink:href="#DejaVuSans-6c" x="138.671875"/>
      <use xlink:href="#DejaVuSans-64" x="166.455078"/>
     </g>
    </g>
    <g id="line2d_25">
     <path d="M 369.3 83.098275 
L 381.3 83.098275 
L 393.3 83.098275 
" style="fill: none; stroke-dasharray: 1.5,2.475; stroke-dashoffset: 0; stroke: #ee6677; stroke-width: 1.5"/>
    </g>
    <g id="text_20">
     <!-- Platinum -->
     <g transform="translate(402.9 87.298275) scale(0.12 -0.12)">
      <defs>
       <path id="DejaVuSans-61" d="M 2194 1759 
Q 1497 1759 1228 1600 
Q 959 1441 959 1056 
Q 959 750 1161 570 
Q 1363 391 1709 391 
Q 2188 391 2477 730 
Q 2766 1069 2766 1631 
L 2766 1759 
L 2194 1759 
z
M 3341 1997 
L 3341 0 
L 2766 0 
L 2766 531 
Q 2569 213 2275 61 
Q 1981 -91 1556 -91 
Q 1019 -91 701 211 
Q 384 513 384 1019 
Q 384 1609 779 1909 
Q 1175 2209 1959 2209 
L 2766 2209 
L 2766 2266 
Q 2766 2663 2505 2880 
Q 2244 3097 1772 3097 
Q 1472 3097 1187 3025 
Q 903 2953 641 2809 
L 641 3341 
Q 956 3463 1253 3523 
Q 1550 3584 1831 3584 
Q 2591 3584 2966 3190 
Q 3341 2797 3341 1997 
z
" transform="scale(0.015625)"/>
      </defs>
      <use xlink:href="#DejaVuSans-50"/>
      <use xlink:href="#DejaVuSans-6c" x="60.302734"/>
      <use xlink:href="#DejaVuSans-61" x="88.085938"/>
      <use xlink:href="#DejaVuSans-74" x="149.365234"/>
      <use xlink:href="#DejaVuSans-69" x="188.574219"/>
      <use xlink:href="#DejaVuSans-6e" x="216.357422"/>
      <use xlink:href="#DejaVuSans-75" x="279.736328"/>
      <use xlink:href="#DejaVuSans-6d" x="343.115234"/>
     </g>
    </g>
    <g id="line2d_26">
     <path d="M 369.3 100.712025 
L 381.3 100.712025 
L 393.3 100.712025 
" style="fill: none; stroke-dasharray: 5.55,2.4; stroke-dashoffset: 0; stroke: #228833; stroke-width: 1.5"/>
    </g>
    <g id="text_21">
     <!-- Indium -->
     <g transform="translate(402.9 104.912025) scale(0.12 -0.12)">
      <use xlink:href="#DejaVuSans-49"/>
      <use xlink:href="#DejaVuSans-6e" x="29.492188"/>
      <use xlink:href="#DejaVuSans-64" x="92.871094"/>
      <use xlink:href="#DejaVuSans-69" x="156.347656"/>
      <use xlink:href="#DejaVuSans-75" x="184.130859"/>
      <use xlink:href="#DejaVuSans-6d" x="247.509766"/>
     </g>
    </g>
    <g id="line2d_27">
     <path d="M 369.3 118.325775 
L 381.3 118.325775 
L 393.3 118.325775 
" style="fill: none; stroke: #ccbb44; stroke-width: 1.5; stroke-linecap: square"/>
    </g>
    <g id="text_22">
     <!-- Tin -->
     <g transform="translate(402.9 122.525775) scale(0.12 -0.12)">
      <defs>
       <path id="DejaVuSans-54" d="M -19 4666 
L 3928 4666 
L 3928 4134 
L 2272 4134 
L 2272 0 
L 1638 0 
L 1638 4134 
L -19 4134 
L -19 4666 
z
" transform="scale(0.015625)"/>
      </defs>
      <use xlink:href="#DejaVuSans-54"/>
      <use xlink:href="#DejaVuSans-69" x="57.958984"/>
      <use xlink:href="#DejaVuSans-6e" x="85.742188"/>
     </g>
    </g>
    <g id="line2d_28">
     <path d="M 369.3 135.939525 
L 381.3 135.939525 
L 393.3 135.939525 
" style="fill: none; stroke: #66ccee; stroke-width: 1.5; stroke-linecap: square"/>
    </g>
    <g id="text_23">
     <!-- Sodium -->
     <g transform="translate(402.9 140.139525) scale(0.12 -0.12)">
      <defs>
       <path id="DejaVuSans-53" d="M 3425 4513 
L 3425 3897 
Q 3066 4069 2747 4153 
Q 2428 4238 2131 4238 
Q 1616 4238 1336 4038 
Q 1056 3838 1056 3469 
Q 1056 3159 1242 3001 
Q 1428 2844 1947 2747 
L 2328 2669 
Q 3034 2534 3370 2195 
Q 3706 1856 3706 1288 
Q 3706 609 3251 259 
Q 2797 -91 1919 -91 
Q 1588 -91 1214 -16 
Q 841 59 441 206 
L 441 856 
Q 825 641 1194 531 
Q 1563 422 1919 422 
Q 2459 422 2753 634 
Q 3047 847 3047 1241 
Q 3047 1584 2836 1778 
Q 2625 1972 2144 2069 
L 1759 2144 
Q 1053 2284 737 2584 
Q 422 2884 422 3419 
Q 422 4038 858 4394 
Q 1294 4750 2059 4750 
Q 2388 4750 2728 4690 
Q 3069 4631 3425 4513 
z
" transform="scale(0.015625)"/>
      </defs>
      <use xlink:href="#DejaVuSans-53"/>
      <use xlink:href="#DejaVuSans-6f" x="63.476562"/>
      <use xlink:href="#DejaVuSans-64" x="124.658203"/>
      <use xlink:href="#DejaVuSans-69" x="188.134766"/>
      <use xlink:href="#DejaVuSans-75" x="215.917969"/>
      <use xlink:href="#DejaVuSans-6d" x="279.296875"/>
     </g>
    </g>
    <g id="line2d_29">
     <path d="M 369.3 153.553275 
L 381.3 153.553275 
L 393.3 153.553275 
" style="fill: none; stroke-dasharray: 5.55,2.4; stroke-dashoffset: 0; stroke: #aa3377; stroke-width: 1.5"/>
    </g>
    <g id="text_24">
     <!-- Oxygen -->
     <g transform="translate(402.9 157.753275) scale(0.12 -0.12)">
      <defs>
       <path id="DejaVuSans-4f" d="M 2522 4238 
Q 1834 4238 1429 3725 
Q 1025 3213 1025 2328 
Q 1025 1447 1429 934 
Q 1834 422 2522 422 
Q 3209 422 3611 934 
Q 4013 1447 4013 2328 
Q 4013 3213 3611 3725 
Q 3209 4238 2522 4238 
z
M 2522 4750 
Q 3503 4750 4090 4092 
Q 4678 3434 4678 2328 
Q 4678 1225 4090 567 
Q 3503 -91 2522 -91 
Q 1538 -91 948 565 
Q 359 1222 359 2328 
Q 359 3434 948 4092 
Q 1538 4750 2522 4750 
z
" transform="scale(0.015625)"/>
       <path id="DejaVuSans-78" d="M 3513 3500 
L 2247 1797 
L 3578 0 
L 2900 0 
L 1881 1375 
L 863 0 
L 184 0 
L 1544 1831 
L 300 3500 
L 978 3500 
L 1906 2253 
L 2834 3500 
L 3513 3500 
z
" transform="scale(0.015625)"/>
       <path id="DejaVuSans-67" d="M 2906 1791 
Q 2906 2416 2648 2759 
Q 2391 3103 1925 3103 
Q 1463 3103 1205 2759 
Q 947 2416 947 1791 
Q 947 1169 1205 825 
Q 1463 481 1925 481 
Q 2391 481 2648 825 
Q 2906 1169 2906 1791 
z
M 3481 434 
Q 3481 -459 3084 -895 
Q 2688 -1331 1869 -1331 
Q 1566 -1331 1297 -1286 
Q 1028 -1241 775 -1147 
L 775 -588 
Q 1028 -725 1275 -790 
Q 1522 -856 1778 -856 
Q 2344 -856 2625 -561 
Q 2906 -266 2906 331 
L 2906 616 
Q 2728 306 2450 153 
Q 2172 0 1784 0 
Q 1141 0 747 490 
Q 353 981 353 1791 
Q 353 2603 747 3093 
Q 1141 3584 1784 3584 
Q 2172 3584 2450 3431 
Q 2728 3278 2906 2969 
L 2906 3500 
L 3481 3500 
L 3481 434 
z
" transform="scale(0.015625)"/>
      </defs>
      <use xlink:href="#DejaVuSans-4f"/>
      <use xlink:href="#DejaVuSans-78" x="78.710938"/>
      <use xlink:href="#DejaVuSans-79" x="137.890625"/>
      <use xlink:href="#DejaVuSans-67" x="197.070312"/>
      <use xlink:href="#DejaVuSans-65" x="260.546875"/>
      <use xlink:href="#DejaVuSans-6e" x="322.070312"/>
     </g>
    </g>
    <g id="line2d_30">
     <path d="M 369.3 171.167025 
L 381.3 171.167025 
L 393.3 171.167025 
" style="fill: none; stroke-dasharray: 9.6,2.4,1.5,2.4; stroke-dashoffset: 0; stroke: #bbbbbb; stroke-width: 1.5"/>
    </g>
    <g id="text_25">
     <!-- Silicon -->
     <g transform="translate(402.9 175.367025) scale(0.12 -0.12)">
      <use xlink:href="#DejaVuSans-53"/>
      <use xlink:href="#DejaVuSans-69" x="63.476562"/>
      <use xlink:href="#DejaVuSans-6c" x="91.259766"/>
      <use xlink:href="#DejaVuSans-69" x="119.042969"/>
      <use xlink:href="#DejaVuSans-63" x="146.826172"/>
      <use xlink:href="#DejaVuSans-6f" x="201.806641"/>
      <use xlink:href="#DejaVuSans-6e" x="262.988281"/>
     </g>
    </g>
   </g>
  </g>
 </g>
 <defs>
  <clipPath id="p7ba129f860">
   <rect x="64.8" y="49.7664" width="401.76" height="319.3344"/>
  </clipPath>
 </defs>
</svg>
